<svg width="43" height="43" viewBox="0 0 43 43" fill="none" xmlns="http://www.w3.org/2000/svg">
<g clip-path="url(#clip0_2_3)">
<path d="M18.5463 39.2074L27.903 31.0882L28.5824 33.8535L28.6314 34.0531L28.8295 33.9987C29.7786 33.7383 30.6974 33.3897 31.5722 32.9581L31.5728 32.9578C33.0946 32.2008 34.4743 31.2165 35.6571 30.0435L35.6571 30.0434C36.8617 28.8474 37.8352 27.4648 38.5339 25.9568L38.5348 25.9549C39.2371 24.396 39.648 22.7358 39.7494 21.0466C39.8546 19.3061 39.6537 17.5614 39.1548 15.8819L39.1546 15.8813C38.8991 15.0308 38.5664 14.2024 38.1601 13.405M18.5463 39.2074L37.4868 12.2232L37.4877 12.2245L37.3196 12.3328M18.5463 39.2074L30.7604 42.7109L30.0416 39.7879L29.9993 39.6158L30.1651 39.5531C31.7299 38.961 33.2103 38.1915 34.5729 37.2619C36.4137 36.0021 38.0209 34.4703 39.3311 32.7275L39.3316 32.7268C41.9223 29.3128 43.1272 25.1528 42.734 20.9892L42.7331 20.9798V20.9781C42.5503 18.9906 42.0208 17.044 41.1654 15.2151C40.7407 14.3149 40.2345 13.45 39.6522 12.6298L39.6509 12.628C39.5372 12.4639 39.4161 12.3053 39.2921 12.1427C39.2624 12.1039 39.2326 12.0648 39.2027 12.0254C39.1559 11.9643 39.1095 11.9079 39.0608 11.8487C39.0306 11.812 38.9995 11.7742 38.9669 11.7335C38.8895 11.6371 38.8112 11.5435 38.7281 11.4484L38.728 11.4483L38.4798 11.1635C38.4305 11.1098 38.383 11.0596 38.3343 11.0083C38.2981 10.97 38.2613 10.9311 38.2227 10.8897L38.2232 10.8901L38.3686 10.7528L38.2221 10.889L37.9633 10.6151L38.1083 10.4773L37.9629 10.6147L37.9008 10.5494L37.8359 10.4869L37.9739 10.3422L37.8353 10.4864L37.6979 10.3552L37.6967 10.3541C36.9819 9.66076 36.2037 9.02656 35.3709 8.45874C33.7249 7.3447 31.8981 6.49581 29.9667 5.94097C30.8561 6.33322 31.7118 6.79238 32.5252 7.31465C33.3342 7.83406 34.0958 8.4153 34.8021 9.05244L34.8026 9.05289C35.4975 9.68398 36.1325 10.3704 36.7003 11.1044L36.7001 11.1041L36.5423 11.227L36.7005 11.1046L36.8042 11.2377L36.8044 11.2379L36.8565 11.305L36.8622 11.3124L36.862 11.3125L36.9108 11.3818M38.1601 13.405C38.1603 13.4054 38.1605 13.4059 38.1607 13.4063L37.9812 13.4945L38.1594 13.4037C38.1596 13.4041 38.1599 13.4045 38.1601 13.405ZM38.1601 13.405C38.0767 13.2353 37.9843 13.0687 37.895 12.9078C37.8769 12.8751 37.8588 12.8426 37.8411 12.8103C37.841 12.8102 37.8409 12.8101 37.8409 12.81L37.6657 12.9066C37.6262 12.8346 37.5836 12.7642 37.541 12.6938C37.5258 12.6687 37.5106 12.6436 37.4955 12.6185C37.4869 12.604 37.4782 12.5896 37.4696 12.5751C37.421 12.4936 37.3722 12.4116 37.3196 12.3328M37.3196 12.3328L37.4859 12.2218L37.3055 11.9417L37.3055 11.9417L37.3031 11.9381C37.2592 11.8731 37.2124 11.8075 37.1674 11.7445C37.1464 11.7151 37.1258 11.6863 37.1061 11.6583L37.106 11.6582L36.9109 11.382L36.7474 11.4971L36.9426 11.7736C36.9639 11.8037 36.9852 11.8336 37.0066 11.8636C37.0508 11.9254 37.0949 11.9872 37.1373 12.05L37.3196 12.3328Z" fill="url(#paint0_linear_2_3)" stroke="#E7C8A3" stroke-width="0.4"/>
<path d="M4.84354 29.5948C4.92668 29.7635 5.01877 29.9296 5.1078 30.0901C5.12628 30.1234 5.14462 30.1565 5.16273 30.1893L5.33784 30.0927L5.16253 30.1889C5.20247 30.2617 5.24667 30.3347 5.28829 30.4035C5.30481 30.4308 5.32093 30.4574 5.33622 30.4831L5.50807 30.3808L5.33622 30.4831C5.34389 30.496 5.35163 30.509 5.35946 30.5222C5.40821 30.6044 5.46015 30.6919 5.51688 30.7768L5.69812 31.058L5.69807 31.0581L5.70077 31.062C5.74049 31.1206 5.7836 31.1811 5.82512 31.2394C5.84983 31.2741 5.87398 31.3081 5.89652 31.3403L5.8971 31.3411L6.09284 31.6181L6.09304 31.6183L6.14198 31.6873L6.14182 31.6874L6.14714 31.6943L6.1992 31.7613L6.19941 31.7616L6.3031 31.8947C6.30321 31.8948 6.30331 31.8949 6.30342 31.8951C6.87132 32.629 7.50622 33.3155 8.20091 33.9468L8.20148 33.9473L10.5865 35.5163L10.4783 35.6845C10.4784 35.6846 10.4784 35.6846 10.4784 35.6846C11.292 36.2075 12.1481 36.6671 13.0379 37.0597C11.106 36.5049 9.27858 35.6558 7.63205 34.5414C6.79927 33.9736 6.02112 33.3395 5.30635 32.6461L5.30517 32.645L5.16775 32.5138L5.16721 32.5133L5.10199 32.4506L5.04031 32.3862L5.03929 32.3851L4.78094 32.1112C4.78075 32.111 4.78056 32.1108 4.78036 32.1106C4.74269 32.0701 4.70674 32.0322 4.67145 31.995C4.62182 31.9427 4.5735 31.8917 4.52347 31.8369L4.27499 31.5523L4.275 31.5523L4.27332 31.5504C4.19225 31.4599 4.11541 31.3658 4.03608 31.267L3.88018 31.3923L4.03607 31.267C4.00515 31.2286 3.97545 31.1924 3.94652 31.1571C3.89617 31.0957 3.84817 31.0372 3.80017 30.9746C3.77435 30.9406 3.74859 30.9069 3.72295 30.8733C3.59483 30.7056 3.46954 30.5415 3.35215 30.3722L3.35087 30.3704C2.76858 29.5503 2.26239 28.6854 1.83774 27.7853C0.980717 25.9536 0.450938 24.0038 0.269126 22.0131L0.269068 22.0125C-0.124169 17.8491 1.08071 13.6892 3.67144 10.2754L3.67206 10.2745C4.98126 8.53083 6.58767 6.99811 8.42804 5.73739C9.79067 4.80782 11.2711 4.03824 12.8359 3.4462L13.0017 3.38349L12.9594 3.2114L12.2406 0.287435L24.4563 3.79233L15.0985 11.9135L14.4191 9.14862L14.3701 8.94914L14.172 9.00347C13.223 9.26371 12.3042 9.61214 11.4293 10.0436L11.4287 10.0439C9.90685 10.8011 8.52717 11.7855 7.34444 12.9587L7.34438 12.9588C6.13985 14.1546 5.16632 15.537 4.46762 17.0449L4.46674 17.0468C3.76442 18.6059 3.35348 20.2662 3.25209 21.9557L3.25209 21.9557C3.14788 23.6954 3.3495 25.4393 3.84882 27.1179L3.84897 27.1184C4.10434 27.969 4.43709 28.7975 4.84354 29.5948ZM4.84354 29.5948C4.84376 29.5953 4.84397 29.5957 4.84418 29.5961L5.02236 29.5053L4.84294 29.5936C4.84314 29.594 4.84334 29.5944 4.84354 29.5948Z" fill="url(#paint1_linear_2_3)" stroke="#DFC19D" stroke-width="0.4"/>
</g>
<defs>
<linearGradient id="paint0_linear_2_3" x1="33.3076" y1="44.0467" x2="14.1474" y2="19.1763" gradientUnits="userSpaceOnUse">
<stop stop-color="#EE9E3E" stop-opacity="0.1"/>
<stop offset="1" stop-color="#D6BC9B"/>
</linearGradient>
<linearGradient id="paint1_linear_2_3" x1="15.1667" y1="38.908" x2="-3.99488" y2="14.0377" gradientUnits="userSpaceOnUse">
<stop stop-color="#EE9E3E" stop-opacity="0.1"/>
<stop offset="1" stop-color="#D6BC9B"/>
</linearGradient>
<clipPath id="clip0_2_3">
<rect width="43" height="43" fill="white"/>
</clipPath>
</defs>
</svg>
