<svg width="1192" height="542" viewBox="0 0 1192 542" fill="none" xmlns="http://www.w3.org/2000/svg">
<path d="M-366 513.806C-218.829 472.418 -103.929 373.211 18.5392 290.242C141.007 207.273 245.37 144.47 396.5 172.679C493.025 190.653 625.91 239.175 724.494 242.314C849.192 246.289 952.835 164.272 1048.06 93.1596C1143.28 22.047 1301.67 14.262 1420 49.1792C1551.97 88.1161 1565.62 171.774 1679.23 242.622C1737.22 278.765 1808.59 293.354 1877.91 307.141L2151.68 361.575C2226.96 376.561 2303.13 391.6 2380.29 390.33C2476.62 388.567 2570.17 361.532 2649 312.677" stroke="url(#paint0_linear_61_12)" stroke-opacity="0.6" stroke-width="58" stroke-miterlimit="10"/>
<defs>
<linearGradient id="paint0_linear_61_12" x1="226.29" y1="239.74" x2="1750.39" y2="239.74" gradientUnits="userSpaceOnUse">
<stop stop-color="#5466A7"/>
<stop offset="0.601724" stop-color="#8E97B8"/>
<stop offset="1" stop-color="#D1C8D7"/>
</linearGradient>
</defs>
</svg>
