<svg width="210" height="163" viewBox="0 0 210 163" fill="none" xmlns="http://www.w3.org/2000/svg">
<path d="M243.407 104.755C244.059 106.792 245.494 108.488 247.395 109.469C249.296 110.45 251.509 110.636 253.547 109.986C257.745 108.63 260.134 104.109 258.778 99.8466L258.772 99.8272C258.197 98.1029 225.847 0.582031 129.993 0.582031C34.1573 0.582031 1.80107 98.1029 1.23274 99.8337L1.22628 99.8466C-0.12997 104.109 2.19503 108.63 6.45753 109.986C10.72 111.342 15.2409 109.017 16.5971 104.755C17.7532 101.138 45.7177 16.7279 129.999 16.7279C214.28 16.7279 242.245 101.138 243.407 104.755ZM129.999 168.499C145.415 168.499 160.199 162.375 171.1 151.474C182 140.574 188.124 125.789 188.124 110.374C188.124 94.958 182 80.1737 171.1 69.2731C160.199 58.3726 145.415 52.2487 129.999 52.2487C114.583 52.2487 99.799 58.3726 88.8984 69.2731C77.9979 80.1737 71.874 94.958 71.874 110.374C71.874 125.789 77.9979 140.574 88.8984 151.474C99.799 162.375 114.583 168.499 129.999 168.499Z" fill="url(#paint0_linear_59_276)"/>
<defs>
<linearGradient id="paint0_linear_59_276" x1="158.415" y1="173.149" x2="106.232" y2="14.532" gradientUnits="userSpaceOnUse">
<stop stop-color="#EE9E3E" stop-opacity="0.1"/>
<stop offset="1" stop-color="#D6BC9B"/>
</linearGradient>
</defs>
</svg>
