<svg width="24" height="25" viewBox="0 0 24 25" fill="none" xmlns="http://www.w3.org/2000/svg">
<path d="M20.5714 13.9286H13.4286V21.0714C13.4286 21.4503 13.2781 21.8137 13.0102 22.0816C12.7422 22.3495 12.3789 22.5 12 22.5C11.6211 22.5 11.2578 22.3495 10.9898 22.0816C10.7219 21.8137 10.5714 21.4503 10.5714 21.0714V13.9286H3.42857C3.04969 13.9286 2.68633 13.7781 2.41842 13.5102C2.15051 13.2422 2 12.8789 2 12.5C2 12.1211 2.15051 11.7578 2.41842 11.4898C2.68633 11.2219 3.04969 11.0714 3.42857 11.0714H10.5714V3.92857C10.5714 3.54969 10.7219 3.18633 10.9898 2.91842C11.2578 2.65051 11.6211 2.5 12 2.5C12.3789 2.5 12.7422 2.65051 13.0102 2.91842C13.2781 3.18633 13.4286 3.54969 13.4286 3.92857V11.0714H20.5714C20.9503 11.0714 21.3137 11.2219 21.5816 11.4898C21.8495 11.7578 22 12.1211 22 12.5C22 12.8789 21.8495 13.2422 21.5816 13.5102C21.3137 13.7781 20.9503 13.9286 20.5714 13.9286Z" fill="#181E35"/>
</svg>
