<svg width="66" height="41" viewBox="0 0 66 41" fill="none" xmlns="http://www.w3.org/2000/svg">
<g clip-path="url(#clip0_59_583)">
<path d="M61.0975 25.5695C61.259 26.043 61.6143 26.437 62.0854 26.665C62.5564 26.8929 63.1046 26.9362 63.6096 26.7853C64.6497 26.4701 65.2417 25.4194 64.9057 24.4288L64.9041 24.4243C64.7617 24.0235 56.7468 1.35938 32.9983 1.35938C9.25459 1.35938 1.23815 24.0235 1.09734 24.4258L1.09574 24.4288C0.759723 25.4194 1.33575 26.4701 2.39181 26.7853C3.44787 27.1005 4.56793 26.5601 4.90395 25.5695C5.19037 24.729 12.1188 5.11172 32.9999 5.11172C53.8811 5.11172 60.8095 24.729 61.0975 25.5695ZM32.9999 40.3838C36.8192 40.3838 40.4821 38.9606 43.1828 36.4272C45.8835 33.8939 47.4007 30.458 47.4007 26.8753C47.4007 23.2927 45.8835 19.8567 43.1828 17.3234C40.4821 14.7901 36.8192 13.3669 32.9999 13.3669C29.1806 13.3669 25.5177 14.7901 22.817 17.3234C20.1163 19.8567 18.5991 23.2927 18.5991 26.8753C18.5991 30.458 20.1163 33.8939 22.817 36.4272C25.5177 38.9606 29.1806 40.3838 32.9999 40.3838Z" fill="url(#paint0_linear_59_583)"/>
</g>
<defs>
<linearGradient id="paint0_linear_59_583" x1="40.0402" y1="41.4644" x2="28.5291" y2="4.16391" gradientUnits="userSpaceOnUse">
<stop stop-color="#EE9E3E" stop-opacity="0.1"/>
<stop offset="1" stop-color="#D6BC9B"/>
</linearGradient>
<clipPath id="clip0_59_583">
<rect width="66" height="40" fill="white" transform="translate(0 0.5)"/>
</clipPath>
</defs>
</svg>
