<svg width="188" height="122" viewBox="0 0 188 122" fill="none" xmlns="http://www.w3.org/2000/svg">
<path d="M-48.972 42.2682C-50.0764 40.436 -51.8628 39.1171 -53.9389 38.6012C-56.0151 38.0853 -58.2111 38.4145 -60.0447 39.5165C-63.8166 41.8044 -65.0991 46.7545 -62.7963 50.5893L-62.7856 50.6066C-61.8286 52.152 -7.85901 139.583 85.4113 117.475C178.663 95.3718 187.655 -6.98246 187.809 -8.79771L187.812 -8.81177C188.148 -13.2722 184.844 -17.1349 180.383 -17.4715C175.923 -17.8081 172.06 -14.5031 171.723 -10.0427C171.433 -6.25689 163.69 82.3275 81.6812 101.766C-0.327803 121.204 -47.0067 45.5192 -48.972 42.2682ZM46.6772 -45.9132C31.6771 -42.3578 18.7038 -32.9892 10.6112 -19.8684C2.51857 -6.7477 -0.0303802 9.05043 3.52505 24.0505C7.08049 39.0506 16.4491 52.024 29.5698 60.1166C42.6906 68.2092 58.4887 70.7581 73.4888 67.2027C88.4889 63.6472 101.462 54.2787 109.555 41.1579C117.647 28.0372 120.196 12.2391 116.641 -2.76105C113.085 -17.7611 103.717 -30.7345 90.5962 -38.8271C77.4754 -46.9197 61.6773 -49.4686 46.6772 -45.9132Z" fill="url(#paint0_linear_59_284)"/>
<defs>
<linearGradient id="paint0_linear_59_284" x1="-52.1472" y1="42.3728" x2="21.9388" y2="93.8498" gradientUnits="userSpaceOnUse">
<stop offset="0.0683462" stop-color="#EEEBF0" stop-opacity="0.8"/>
<stop offset="1" stop-color="#D1C8D6"/>
</linearGradient>
</defs>
</svg>
