<svg width="93" height="24" viewBox="0 0 93 24" fill="none" xmlns="http://www.w3.org/2000/svg">
<g clip-path="url(#clip0_59_433)">
<path d="M0 2.21559C0 0.887161 0.591474 0.183594 1.95806 0.183594H9.08437C14.6223 0.183594 17.7251 2.17743 17.7251 6.57056C17.7251 9.15587 16.3585 11.0376 13.8114 11.703C16.9119 12.5163 18.5742 14.398 18.5742 17.353C18.5742 21.8201 15.4356 23.8139 9.93342 23.8139H1.95806C0.591474 23.8139 0 23.1127 0 21.7843V2.21559ZM8.86257 9.63763C11.04 9.63763 12.3709 9.15825 12.3709 7.20019C12.3709 5.24213 10.9685 4.72697 8.67892 4.72697H5.35665V9.63763H8.86495H8.86257ZM9.52797 19.3111C11.8175 19.3111 13.1841 18.6457 13.1841 16.5779C13.1841 14.5101 11.8175 13.8829 9.52797 13.8829H5.35427V19.3111H9.52559H9.52797Z" fill="#22497D"/>
<path d="M30.6093 0C35.5581 0 37.1441 0.775117 37.1441 2.69502V4.65309H30.6093C26.9531 4.65309 25.8083 6.24148 25.8083 12.0012C25.8083 17.7609 26.9531 19.3493 30.6093 19.3493H37.1441V21.3074C37.1441 23.2273 35.5557 24.0024 30.6093 24.0024C23.8527 24.0024 20.3086 20.3844 20.3086 12.0036C20.3086 3.62278 23.8527 0 30.6093 0Z" fill="#22497D"/>
<path d="M38.9907 2.17743C38.9907 0.884776 39.544 0.183594 40.9106 0.183594H48.7023C54.2402 0.183594 57.343 3.24829 57.343 7.78928C57.343 11.0758 55.7189 13.4751 52.616 14.5841L58.08 22.817C58.2636 23.1485 58.4115 23.4824 58.4115 23.8139H53.6106C52.6136 23.8139 52.244 23.74 51.6167 22.7431L47.0757 15.4331H44.3425V23.8139H38.9883V2.17743H38.9907ZM44.3449 4.72459V10.9279H48.3326C50.584 10.9279 52.1366 10.1146 52.1366 7.78928C52.1366 5.46393 50.5864 4.72459 48.3326 4.72459H44.3449Z" fill="#22497D"/>
<path d="M92.1871 0.183594H64.6406V23.8139H92.1871V0.183594Z" fill="#D91B2B"/>
</g>
<defs>
<clipPath id="clip0_59_433">
<rect width="92.1888" height="24" fill="white"/>
</clipPath>
</defs>
</svg>
