<svg width="131" height="24" viewBox="0 0 131 24" fill="none" xmlns="http://www.w3.org/2000/svg">
<g clip-path="url(#clip0_59_470)">
<path d="M108.41 17.6943L110.658 6.20209H113.601L116.276 15.1286L118.042 6.20209H120.183L117.936 17.6943H114.993L112.37 8.71434L110.551 17.6943H108.41ZM105.146 13.1509L104.29 9.03505L102.043 13.1509H105.146ZM97.013 17.6943L103.488 6.20209H105.896L108.41 17.6943H106.11L105.575 15.2889H100.866L99.5286 17.6943H97.013ZM92.9464 10.6386C93.1073 10.6386 93.2139 10.6386 93.3215 10.692C93.3748 10.692 93.4815 10.692 93.5357 10.692C94.2308 10.692 94.7659 10.5317 95.1401 10.2645C95.5153 9.99718 95.6753 9.62305 95.6753 9.14198C95.6753 8.76779 95.5153 8.44708 95.2477 8.28672C94.9801 8.12636 94.4984 8.01946 93.8566 8.01946C93.8033 8.01946 93.749 8.01946 93.6957 8.01946C93.589 8.01946 93.5357 8.01946 93.4815 8.01946L92.9464 10.6386ZM89.3615 17.6943L91.6086 6.20209H95.0335C95.997 6.20209 96.7455 6.46935 97.2806 6.95041C97.8157 7.43149 98.0833 8.12636 98.0833 8.92811C98.0833 9.56953 97.9233 10.1041 97.6024 10.5852C97.2806 11.0662 96.7455 11.4404 96.1037 11.7611C96.5855 12.0284 96.9597 12.3491 97.2273 12.7767C97.4948 13.2043 97.6024 13.7389 97.6024 14.2734C97.6024 14.8078 97.4948 15.2889 97.2273 15.77C97.013 16.2511 96.6388 16.6253 96.2104 16.946C95.8895 17.2133 95.4619 17.3736 95.0335 17.4805C94.605 17.5874 93.9099 17.6408 93.0539 17.6408H89.3615V17.6943ZM91.9837 15.8235H92.9464C93.749 15.8235 94.3384 15.6631 94.7126 15.3424C95.0335 15.0217 95.2477 14.5406 95.2477 13.8457C95.2477 13.3112 95.0868 12.9371 94.8193 12.7232C94.4984 12.5094 94.0166 12.4025 93.2682 12.4025C93.1073 12.4025 93.0006 12.4025 92.9464 12.4025C92.893 12.4025 92.7864 12.4025 92.733 12.4025L91.9837 15.8235ZM89.0405 11.7077C88.8801 13.6319 88.2379 15.1286 87.0607 16.251C85.8835 17.3736 84.3853 17.9615 82.566 17.9615C80.9607 17.9615 79.73 17.4805 78.7668 16.5183C77.8037 15.5562 77.3221 14.2734 77.3221 12.7232C77.3221 11.9214 77.4291 11.2266 77.6432 10.5317C77.8572 9.83682 78.1248 9.24882 78.4993 8.66089C79.0879 7.80565 79.837 7.16423 80.7466 6.68315C81.6563 6.20209 82.673 5.98828 83.7432 5.98828C85.0809 5.98828 86.2046 6.30899 87.1142 6.95041C88.0239 7.59185 88.6125 8.50053 88.8801 9.67647H86.4186C86.2046 9.1954 85.8835 8.82124 85.4019 8.55398C84.9203 8.28672 84.3318 8.12636 83.6897 8.12636C82.5125 8.12636 81.5493 8.55398 80.8001 9.35576C80.0511 10.1575 79.6765 11.2266 79.6765 12.5629C79.6765 13.525 79.9441 14.3268 80.5327 14.9148C81.1212 15.5028 81.8704 15.77 82.8335 15.77C83.5826 15.77 84.2783 15.6096 84.8668 15.2355C85.4554 14.8614 85.9905 14.3268 86.3116 13.6854H81.6563L82.0309 11.7077H89.0405ZM72.6133 13.3646L75.2353 17.6943H72.7738L70.0985 12.5629L69.1353 17.6943H66.8344L69.0817 6.20209H72.2922C73.63 6.20209 74.7001 6.52281 75.3958 7.11078C76.1449 7.69875 76.5194 8.55398 76.5194 9.62305C76.5194 10.692 76.1449 11.6007 75.4493 12.2957C74.7537 12.9371 73.7905 13.3112 72.6133 13.3646ZM70.2589 11.6542C70.3124 11.6542 70.4194 11.6542 70.4729 11.6542C70.58 11.6542 70.687 11.6542 70.8475 11.6542C71.9713 11.6542 72.7738 11.4939 73.3625 11.1731C73.8976 10.8524 74.1651 10.3179 74.1651 9.67647C74.1651 9.1954 74.0046 8.76778 73.63 8.50053C73.3089 8.23327 72.7738 8.07291 72.1853 8.07291C72.0248 8.07291 71.8107 8.07291 71.5967 8.07291C71.3826 8.07291 71.1686 8.07291 70.901 8.12636L70.2589 11.6542ZM58.6475 17.6943L60.8949 6.20209H67.316L66.9414 8.17982H62.7677L62.2326 10.9059H66.4063L66.0317 12.8302H61.9115L61.323 15.77H65.4967L65.1221 17.6943H58.6475ZM47.4106 17.6943L49.658 6.20209H52.601L55.2765 15.1286L57.0423 6.20209H59.1826L56.9353 17.6943H53.9922L51.3703 8.71434L49.551 17.6943H47.4106ZM38.7422 17.6943L40.9896 5.98828H47.5712L47.1966 7.96601H42.9694L42.4344 10.7455H46.6616L46.287 12.7232H42.0598L41.4712 15.7166H45.6984L45.3238 17.6943H38.7422ZM122.965 12.4025L121.948 17.6943H119.648L121.895 6.20209H124.196L123.286 10.7455L127.62 6.20209H130.242L124.999 11.6542L128.584 17.6943H126.069L122.965 12.4025Z" fill="black"/>
<path fill-rule="evenodd" clip-rule="evenodd" d="M11.615 6.46771H19.5878C22.5842 6.46771 23.922 9.78178 21.0325 11.4922C25.3132 14.3252 21.193 17.4788 19.5343 17.4788L9.47464 17.5323L10.4378 12.3475H15.6817C16.4307 12.3475 16.4842 10.637 15.6282 10.6904H10.7588L11.615 6.46771ZM23.601 6.30735H28.0957C28.8448 6.30735 28.7913 7.80401 28.0957 7.80401H26.0089C25.4202 7.80401 25.3667 9.46107 26.0089 9.46107H30.7176C31.2527 9.46107 31.2527 11.0111 30.7176 11.0111H26.1159C25.5808 11.0111 25.5273 12.6147 26.1159 12.6147H33.0185C33.6071 12.6147 33.6071 14.1648 33.0185 14.1648H25.8483C25.3132 14.1648 25.3132 15.7149 25.8483 15.7149H35.4264C36.015 15.7149 36.0685 17.2651 35.4264 17.2651H23.4404C24.6711 15.3942 24.9386 13.4164 23.7615 11.225C24.5106 9.62142 24.457 7.96436 23.601 6.30735ZM12.15 0C16.0562 0 19.5343 1.87083 21.7282 4.81069C19.1597 4.81069 13.7554 4.81069 11.0799 4.81069C10.4913 4.81069 9.79562 5.39867 9.6886 6.04009C9.10006 9.19378 8.08337 14.8597 7.54829 17.9599C7.38776 18.9755 8.08337 19.3497 8.40443 19.3497C11.3474 19.3497 16.9123 19.3497 21.5141 19.3497C19.2667 22.2361 15.7887 24 12.0965 24C5.51494 24 0.164062 18.6548 0.164062 12.0268C0.217571 5.34521 5.56845 0 12.15 0Z" fill="#FDC100"/>
</g>
<defs>
<clipPath id="clip0_59_470">
<rect width="130.667" height="24" fill="white" transform="translate(0.164062)"/>
</clipPath>
</defs>
</svg>
