<svg width="159" height="24" viewBox="0 0 159 24" fill="none" xmlns="http://www.w3.org/2000/svg">
<g clip-path="url(#clip0_59_388)">
<path d="M90.1406 22.7093L90.9872 18.704H91.7868L90.9402 22.7093H90.1406ZM91.599 17.9983L91.1279 18.4694H90.4709L91.2705 17.668H92.0214L92.3517 18.4694H91.8337L91.599 17.9983ZM92.3517 19.8357H93.1044L93.0105 20.213C93.1983 20.0704 93.386 19.9296 93.5268 19.8827C93.6676 19.8357 93.8571 19.7888 94.0448 19.7888C94.2794 19.7888 94.4672 19.8357 94.6098 19.9765C94.7505 20.1191 94.7975 20.3068 94.7975 20.5415C94.7975 20.6372 94.7505 20.8249 94.7036 21.1083L94.3733 22.7562H93.5737L93.904 21.1083C93.9509 20.8718 93.9979 20.731 93.9979 20.6841C93.9979 20.5902 93.9509 20.4946 93.904 20.4476C93.8571 20.4007 93.7632 20.3538 93.6676 20.3538C93.5737 20.3538 93.4329 20.4007 93.2921 20.4946C93.1513 20.5902 93.0575 20.731 92.9636 20.8718C92.9167 20.9657 92.821 21.2021 92.7741 21.5794L92.5394 22.7562H91.7398L92.3517 19.8357ZM97.1024 21.6263L97.8551 21.7671C97.7125 22.0974 97.5248 22.379 97.2901 22.5216C97.0555 22.7093 96.7721 22.8031 96.4436 22.8031C96.0664 22.8031 95.7848 22.7093 95.5501 22.4746C95.3137 22.2382 95.2198 21.9566 95.2198 21.5794C95.2198 21.249 95.2668 20.9657 95.4094 20.6841C95.5501 20.4007 95.7379 20.1661 96.0194 20.0235C96.3028 19.8827 96.5844 19.7888 96.866 19.7888C97.1963 19.7888 97.4779 19.8827 97.6656 20.0704C97.8551 20.2599 97.9959 20.4946 97.9959 20.7779L97.2432 20.8718C97.2432 20.731 97.1963 20.5902 97.1024 20.4946C97.0068 20.4007 96.9129 20.4007 96.7721 20.4007C96.6313 20.4007 96.4905 20.4476 96.3498 20.5902C96.209 20.6841 96.1133 20.8718 96.0664 21.1083C96.0194 21.3429 95.9725 21.5324 95.9725 21.7201C95.9725 21.9079 96.0194 22.0035 96.1133 22.0974C96.209 22.1912 96.3028 22.2382 96.4436 22.2382C96.5844 22.2382 96.6783 22.1912 96.819 22.0974C96.9598 21.9566 97.0068 21.814 97.1024 21.6263ZM98.7955 19.8357H99.5482L99.4525 20.4007C99.7359 19.9765 100.017 19.7888 100.348 19.7888C100.442 19.7888 100.582 19.8357 100.723 19.8827L100.442 20.5415C100.348 20.4946 100.299 20.4946 100.205 20.4946C100.064 20.4946 99.9236 20.5415 99.7828 20.6372C99.642 20.731 99.5482 20.8718 99.4525 21.0613C99.3586 21.249 99.3117 21.4837 99.2179 21.8609L99.0301 22.7562H98.2305L98.7955 19.8357ZM103.216 21.5324H101.241C101.241 21.5794 101.241 21.5794 101.241 21.6263C101.241 21.814 101.288 21.9566 101.429 22.0974C101.523 22.2382 101.664 22.2851 101.851 22.2851C102.135 22.2851 102.322 22.1443 102.463 21.8609L103.169 21.9566C103.028 22.2382 102.84 22.4277 102.604 22.5685C102.369 22.7093 102.135 22.7562 101.851 22.7562C101.476 22.7562 101.147 22.6154 100.911 22.379C100.676 22.1443 100.535 21.814 100.535 21.3898C100.535 21.0126 100.629 20.6372 100.864 20.3538C101.147 19.9296 101.57 19.7419 102.135 19.7419C102.51 19.7419 102.794 19.8357 102.981 20.0704C103.169 20.3068 103.31 20.5902 103.31 21.0126C103.263 21.2021 103.263 21.3429 103.216 21.5324ZM102.557 21.0126C102.557 20.9657 102.557 20.9657 102.557 20.9187C102.557 20.6841 102.51 20.5415 102.416 20.4476C102.322 20.3538 102.182 20.3068 102.041 20.3068C101.898 20.3068 101.711 20.3538 101.617 20.4946C101.476 20.6372 101.382 20.7779 101.335 21.0126H102.557ZM106.18 22.7093H105.427L105.474 22.379C105.333 22.5216 105.191 22.6154 105.05 22.6623C104.909 22.7093 104.768 22.7562 104.58 22.7562C104.297 22.7562 104.015 22.6623 103.875 22.4277C103.687 22.2382 103.591 21.9079 103.591 21.5324C103.591 21.0613 103.734 20.6372 103.969 20.2599C104.25 19.8827 104.58 19.695 105.003 19.695C105.38 19.695 105.662 19.8357 105.896 20.1661L106.227 18.6571H107.026L106.18 22.7093ZM104.391 21.5324C104.391 21.7201 104.44 21.9079 104.534 22.0035C104.627 22.0974 104.768 22.1912 104.909 22.1912C105.05 22.1912 105.191 22.1443 105.286 22.0505C105.427 21.9566 105.521 21.814 105.568 21.6263C105.662 21.4368 105.662 21.249 105.662 21.0613C105.662 20.8718 105.615 20.6841 105.474 20.5415C105.38 20.4007 105.237 20.3538 105.097 20.3538C104.862 20.3538 104.674 20.4946 104.534 20.731C104.44 20.9657 104.391 21.249 104.391 21.5324ZM109.754 21.5324H107.779C107.779 21.5794 107.779 21.5794 107.779 21.6263C107.779 21.814 107.826 21.9566 107.967 22.0974C108.06 22.2382 108.201 22.2851 108.389 22.2851C108.672 22.2851 108.86 22.1443 109.001 21.8609L109.707 21.9566C109.566 22.2382 109.378 22.4277 109.142 22.5685C108.907 22.7093 108.672 22.7562 108.389 22.7562C108.014 22.7562 107.683 22.6154 107.449 22.379C107.214 22.1443 107.073 21.814 107.073 21.3898C107.073 21.0126 107.167 20.6372 107.402 20.3538C107.683 19.9296 108.107 19.7419 108.672 19.7419C109.048 19.7419 109.329 19.8357 109.519 20.0704C109.707 20.3068 109.847 20.5902 109.847 21.0126C109.8 21.2021 109.8 21.3429 109.754 21.5324ZM109.095 21.0126C109.095 20.9657 109.095 20.9657 109.095 20.9187C109.095 20.6841 109.048 20.5415 108.954 20.4476C108.86 20.3538 108.719 20.3068 108.578 20.3068C108.436 20.3068 108.248 20.3538 108.154 20.4946C108.014 20.6372 107.92 20.7779 107.873 21.0126H109.095ZM110.6 19.8357H111.353L111.259 20.4007C111.54 19.9765 111.822 19.7888 112.152 19.7888C112.246 19.7888 112.387 19.8357 112.528 19.8827L112.246 20.5415C112.152 20.4946 112.105 20.4946 112.012 20.4946C111.871 20.4946 111.728 20.5415 111.587 20.6372C111.447 20.731 111.353 20.8718 111.259 21.0613C111.165 21.249 111.118 21.4837 111.024 21.8609L110.835 22.7562H110.035L110.6 19.8357ZM115.02 21.5324H113.046C113.046 21.5794 113.046 21.5794 113.046 21.6263C113.046 21.814 113.093 21.9566 113.234 22.0974C113.327 22.2382 113.468 22.2851 113.658 22.2851C113.939 22.2851 114.127 22.1443 114.268 21.8609L114.974 21.9566C114.833 22.2382 114.645 22.4277 114.41 22.5685C114.174 22.7093 113.939 22.7562 113.658 22.7562C113.28 22.7562 112.952 22.6154 112.717 22.379C112.481 22.1443 112.34 21.814 112.34 21.3898C112.34 21.0126 112.434 20.6372 112.67 20.3538C112.952 19.9296 113.374 19.7419 113.939 19.7419C114.317 19.7419 114.598 19.8357 114.786 20.0704C114.974 20.3068 115.114 20.5902 115.114 21.0126C115.067 21.2021 115.067 21.3429 115.02 21.5324ZM114.363 21.0126C114.363 20.9657 114.363 20.9657 114.363 20.9187C114.363 20.6841 114.317 20.5415 114.221 20.4476C114.127 20.3538 113.986 20.3068 113.845 20.3068C113.705 20.3068 113.517 20.3538 113.421 20.4946C113.28 20.6372 113.187 20.7779 113.14 21.0126H114.363ZM116.76 21.9079L117.513 21.7671C117.56 21.9079 117.656 22.0505 117.75 22.0974C117.843 22.1443 117.984 22.1912 118.172 22.1912C118.36 22.1912 118.502 22.1443 118.596 22.0505C118.69 22.0035 118.69 21.9079 118.69 21.8609C118.69 21.814 118.69 21.7671 118.643 21.7201C118.596 21.6732 118.502 21.6263 118.313 21.5794C117.843 21.4368 117.56 21.296 117.419 21.2021C117.232 21.0613 117.138 20.8718 117.138 20.6372C117.138 20.4007 117.232 20.213 117.372 20.0235C117.609 19.7888 117.984 19.695 118.455 19.695C118.831 19.695 119.112 19.7419 119.302 19.8827C119.49 20.0235 119.63 20.213 119.677 20.4476L118.972 20.5902C118.925 20.4946 118.878 20.4007 118.784 20.3538C118.69 20.2599 118.549 20.2599 118.36 20.2599C118.219 20.2599 118.078 20.3068 117.984 20.3538C117.89 20.4007 117.89 20.4476 117.89 20.5415C117.89 20.6372 117.937 20.6841 117.984 20.731C118.031 20.7779 118.172 20.8249 118.407 20.8718C118.784 20.9657 119.065 21.1083 119.159 21.2021C119.349 21.3429 119.443 21.5324 119.443 21.7671C119.443 22.0505 119.349 22.2851 119.112 22.4746C118.878 22.6623 118.549 22.7562 118.125 22.7562C117.703 22.7562 117.372 22.6623 117.138 22.5216C116.997 22.379 116.856 22.1912 116.76 21.9079ZM117.138 23.841L117.278 23.5107H117.419C117.56 23.5107 117.703 23.5107 117.843 23.4638C117.937 23.4168 117.984 23.4168 118.031 23.3699C118.078 23.3212 118.078 23.2742 118.078 23.2742C118.078 23.2273 118.031 23.1804 117.984 23.1334C117.937 23.0865 117.843 23.0865 117.75 23.0865C117.703 23.0865 117.609 23.0865 117.513 23.1334L117.609 22.8501C117.75 22.8031 117.843 22.8031 117.984 22.8031C118.172 22.8031 118.313 22.8501 118.455 22.9457C118.549 23.0396 118.596 23.1334 118.596 23.2742C118.596 23.4168 118.502 23.5576 118.36 23.6515C118.125 23.7923 117.843 23.8879 117.419 23.8879C117.278 23.841 117.185 23.841 117.138 23.841ZM120.805 18.704H121.605L121.464 19.4116H120.665L120.805 18.704ZM120.571 19.8357H121.37L120.758 22.7562H119.959L120.571 19.8357ZM123.91 22.7093H123.063L123.91 18.704H125.556C125.839 18.704 126.074 18.7528 126.262 18.7997C126.45 18.8466 126.543 18.9874 126.686 19.1282C126.78 19.2708 126.827 19.4585 126.827 19.695C126.827 19.8827 126.78 20.0704 126.733 20.3068C126.637 20.4946 126.543 20.6372 126.45 20.7779C126.356 20.8718 126.215 20.9657 126.074 21.0613C125.933 21.1083 125.744 21.1552 125.556 21.2021C125.415 21.2021 125.181 21.249 124.85 21.249H124.334L123.91 22.7093ZM124.334 20.5415H124.569C124.991 20.5415 125.275 20.4946 125.415 20.4476C125.556 20.4007 125.697 20.3068 125.744 20.1661C125.839 20.0235 125.886 19.9296 125.886 19.7888C125.886 19.695 125.886 19.5993 125.839 19.5524C125.791 19.5054 125.744 19.4585 125.65 19.4116C125.556 19.3646 125.415 19.3646 125.134 19.3646H124.522L124.334 20.5415ZM127.343 19.8357H128.096L128.002 20.4007C128.283 19.9765 128.567 19.7888 128.895 19.7888C128.989 19.7888 129.132 19.8357 129.273 19.8827L128.989 20.5415C128.895 20.4946 128.848 20.4946 128.755 20.4946C128.614 20.4946 128.473 20.5415 128.332 20.6372C128.19 20.731 128.096 20.8718 128.002 21.0613C127.908 21.249 127.861 21.4837 127.767 21.8609L127.579 22.7562H126.78L127.343 19.8357ZM129.083 21.5324C129.083 21.0126 129.226 20.5902 129.554 20.2599C129.836 19.9296 130.26 19.7888 130.729 19.7888C131.153 19.7888 131.482 19.9296 131.718 20.1661C131.953 20.4007 132.094 20.731 132.094 21.1083C132.094 21.5794 131.953 22.0035 131.624 22.332C131.341 22.6623 130.919 22.8501 130.401 22.8501C130.119 22.8501 129.883 22.8031 129.695 22.7093C129.507 22.6154 129.319 22.4277 129.226 22.2382C129.132 21.9566 129.083 21.7201 129.083 21.5324ZM131.294 20.9657C131.294 20.7779 131.247 20.6372 131.153 20.5415C131.059 20.4476 130.919 20.3538 130.729 20.3538C130.541 20.3538 130.401 20.4007 130.26 20.4946C130.119 20.5902 130.025 20.731 129.978 20.9657C129.883 21.1552 129.883 21.3429 129.883 21.5324C129.883 21.7201 129.93 21.9079 130.072 22.0505C130.166 22.1912 130.307 22.2382 130.495 22.2382C130.729 22.2382 130.872 22.1443 131.013 21.9566C131.2 21.6263 131.294 21.3429 131.294 20.9657ZM132.281 21.9079L133.034 21.7671C133.081 21.9079 133.175 22.0505 133.271 22.0974C133.364 22.1443 133.505 22.1912 133.693 22.1912C133.881 22.1912 134.021 22.1443 134.117 22.0505C134.211 22.0035 134.211 21.9079 134.211 21.8609C134.211 21.814 134.211 21.7671 134.164 21.7201C134.117 21.6732 134.021 21.6263 133.834 21.5794C133.364 21.4368 133.081 21.296 132.94 21.2021C132.753 21.0613 132.659 20.8718 132.659 20.6372C132.659 20.4007 132.753 20.213 132.893 20.0235C133.128 19.7888 133.505 19.695 133.975 19.695C134.352 19.695 134.633 19.7419 134.821 19.8827C135.011 20.0235 135.151 20.213 135.198 20.4476L134.493 20.5902C134.446 20.4946 134.399 20.4007 134.305 20.3538C134.211 20.2599 134.07 20.2599 133.881 20.2599C133.74 20.2599 133.599 20.3068 133.505 20.3538C133.411 20.4007 133.411 20.4476 133.411 20.5415C133.411 20.6372 133.458 20.6841 133.505 20.731C133.552 20.7779 133.693 20.8249 133.928 20.8718C134.305 20.9657 134.586 21.1083 134.68 21.2021C134.868 21.3429 134.964 21.5324 134.964 21.7671C134.964 22.0505 134.868 22.2851 134.633 22.4746C134.399 22.6623 134.07 22.7562 133.646 22.7562C133.222 22.7562 132.893 22.6623 132.659 22.5216C132.518 22.379 132.375 22.1912 132.281 21.9079ZM136.045 19.8357H136.798L136.751 20.1191C136.891 19.9765 137.079 19.8827 137.173 19.8357C137.314 19.7888 137.456 19.7419 137.597 19.7419C137.879 19.7419 138.16 19.8357 138.35 20.0704C138.538 20.2599 138.631 20.5902 138.631 21.0126C138.631 21.5324 138.491 21.9566 138.16 22.332C137.879 22.6623 137.55 22.8031 137.173 22.8031C136.798 22.8031 136.514 22.6623 136.326 22.332L135.998 23.841H135.198L136.045 19.8357ZM136.514 21.4837C136.514 21.7201 136.563 21.9079 136.704 22.0035C136.798 22.1443 136.938 22.1912 137.079 22.1912C137.22 22.1912 137.314 22.1443 137.456 22.0505C137.597 21.9566 137.691 21.814 137.738 21.5794C137.832 21.3429 137.879 21.1552 137.879 20.9657C137.879 20.731 137.832 20.5902 137.738 20.4476C137.644 20.3538 137.503 20.2599 137.362 20.2599C137.22 20.2599 137.079 20.3068 136.938 20.4007C136.798 20.4946 136.704 20.6841 136.657 20.8718C136.563 21.1552 136.514 21.3429 136.514 21.4837ZM141.736 21.5324H139.759C139.759 21.5794 139.759 21.5794 139.759 21.6263C139.759 21.814 139.806 21.9566 139.949 22.0974C140.043 22.2382 140.184 22.2851 140.371 22.2851C140.655 22.2851 140.842 22.1443 140.983 21.8609L141.689 21.9566C141.548 22.2382 141.359 22.4277 141.124 22.5685C140.889 22.7093 140.655 22.7562 140.371 22.7562C139.996 22.7562 139.666 22.6154 139.431 22.379C139.196 22.1443 139.056 21.814 139.056 21.3898C139.056 21.0126 139.149 20.6372 139.384 20.3538C139.666 19.9296 140.09 19.7419 140.655 19.7419C141.03 19.7419 141.312 19.8357 141.501 20.0704C141.689 20.3068 141.83 20.5902 141.83 21.0126C141.783 21.2021 141.736 21.3429 141.736 21.5324ZM141.077 21.0126C141.077 20.9657 141.077 20.9657 141.077 20.9187C141.077 20.6841 141.03 20.5415 140.936 20.4476C140.842 20.3538 140.702 20.3068 140.559 20.3068C140.418 20.3068 140.231 20.3538 140.137 20.4946C139.996 20.6372 139.902 20.7779 139.855 21.0126C139.806 21.0126 141.077 21.0126 141.077 21.0126ZM142.582 19.8357H143.335L143.241 20.4007C143.523 19.9765 143.804 19.7888 144.135 19.7888C144.229 19.7888 144.369 19.8357 144.51 19.8827L144.229 20.5415C144.135 20.4946 144.088 20.4946 143.994 20.4946C143.851 20.4946 143.711 20.5415 143.57 20.6372C143.429 20.731 143.335 20.8718 143.241 21.0613C143.147 21.249 143.099 21.4837 143.005 21.8609L142.817 22.7562H142.018L142.582 19.8357ZM145.028 18.704H145.828L145.687 19.4116H144.887L145.028 18.704ZM144.794 19.8357H145.593L144.981 22.7562H144.182L144.794 19.8357ZM145.922 20.4007L146.062 19.8357H146.44L146.534 19.3646L147.427 18.8466L147.239 19.8357H147.709L147.568 20.4007H147.097L146.862 21.6263C146.815 21.8609 146.815 21.9566 146.815 22.0035C146.815 22.0505 146.815 22.0974 146.862 22.1443C146.909 22.1912 146.956 22.1912 147.05 22.1912C147.097 22.1912 147.191 22.1912 147.333 22.1912L147.191 22.7562C147.05 22.8031 146.909 22.8031 146.768 22.8031C146.487 22.8031 146.297 22.7562 146.156 22.6623C146.016 22.5685 145.969 22.4277 145.969 22.2382C145.969 22.1443 146.016 21.9566 146.062 21.6263L146.297 20.4476L145.922 20.4007ZM148.696 20.6372L147.943 20.5902C148.037 20.3538 148.18 20.1191 148.414 19.9765C148.649 19.8357 148.932 19.7419 149.261 19.7419C149.636 19.7419 149.92 19.8357 150.107 19.9765C150.295 20.1191 150.389 20.3068 150.389 20.5415C150.389 20.6372 150.389 20.731 150.389 20.8249C150.389 20.9187 150.342 21.2021 150.248 21.5794C150.154 21.9079 150.154 22.1443 150.154 22.2851C150.154 22.4277 150.154 22.5685 150.201 22.7093H149.449C149.402 22.6154 149.402 22.4746 149.402 22.379C149.308 22.5216 149.167 22.6154 149.026 22.6623C148.885 22.7093 148.743 22.7562 148.555 22.7562C148.32 22.7562 148.133 22.6623 147.943 22.5216C147.802 22.379 147.709 22.1443 147.709 21.9079C147.709 21.6263 147.802 21.3898 147.943 21.249C148.133 21.0613 148.414 20.9657 148.885 20.9657C149.261 20.9187 149.496 20.9187 149.636 20.8718C149.683 20.7779 149.683 20.6841 149.683 20.5902C149.683 20.4946 149.636 20.4476 149.589 20.4007C149.542 20.3538 149.402 20.3068 149.308 20.3068C149.167 20.3068 149.073 20.3538 148.979 20.4007C148.79 20.4476 148.696 20.5415 148.696 20.6372ZM149.449 21.3429C149.402 21.3429 149.355 21.3898 149.261 21.3898C148.885 21.4368 148.602 21.4837 148.508 21.5794C148.414 21.6263 148.367 21.7201 148.367 21.8609C148.367 21.9566 148.414 22.0505 148.461 22.0974C148.508 22.1443 148.602 22.1912 148.743 22.1912C148.885 22.1912 148.979 22.1443 149.073 22.0974C149.167 22.0505 149.261 21.9566 149.308 21.8609C149.355 21.7671 149.402 21.6263 149.449 21.4368V21.3429ZM150.907 20.4007L151.048 19.8357H151.425L151.519 19.3646L152.412 18.8466L152.225 19.8357H152.694L152.553 20.4007H152.082L151.847 21.6263C151.8 21.8609 151.8 21.9566 151.8 22.0035C151.8 22.0505 151.8 22.0974 151.847 22.1443C151.894 22.1912 151.941 22.1912 152.035 22.1912C152.082 22.1912 152.178 22.1912 152.319 22.1912L152.178 22.7562C152.035 22.8031 151.894 22.8031 151.754 22.8031C151.472 22.8031 151.282 22.7562 151.142 22.6623C151.001 22.5685 150.954 22.4277 150.954 22.2382C150.954 22.1443 151.001 21.9566 151.048 21.6263L151.282 20.4476L150.907 20.4007ZM155.374 21.5324H153.4C153.4 21.5794 153.4 21.5794 153.4 21.6263C153.4 21.814 153.447 21.9566 153.587 22.0974C153.681 22.2382 153.824 22.2851 154.012 22.2851C154.293 22.2851 154.481 22.1443 154.622 21.8609L155.327 21.9566C155.187 22.2382 154.999 22.4277 154.764 22.5685C154.528 22.7093 154.293 22.7562 154.012 22.7562C153.634 22.7562 153.306 22.6154 153.071 22.379C152.835 22.1443 152.694 21.814 152.694 21.3898C152.694 21.0126 152.788 20.6372 153.024 20.3538C153.306 19.9296 153.728 19.7419 154.293 19.7419C154.67 19.7419 154.952 19.8357 155.14 20.0704C155.327 20.3068 155.47 20.5902 155.47 21.0126C155.421 21.2021 155.421 21.3429 155.374 21.5324ZM154.717 21.0126C154.717 20.9657 154.717 20.9657 154.717 20.9187C154.717 20.6841 154.67 20.5415 154.575 20.4476C154.481 20.3538 154.34 20.3068 154.199 20.3068C154.059 20.3068 153.871 20.3538 153.775 20.4946C153.634 20.6372 153.54 20.7779 153.494 21.0126H154.717ZM156.551 21.7201H156.127L156.363 19.695L156.551 18.7528H157.351L157.163 19.7888L156.551 21.7201ZM155.939 21.9566H156.692L156.551 22.7093H155.799L155.939 21.9566Z" fill="#313863"/>
<path d="M140.841 12.5353C140.37 12.9126 139.901 13.1472 139.477 13.2898C139.054 13.4306 138.583 13.5245 138.065 13.5245C137.219 13.5245 136.609 13.3367 136.138 13.0064C135.715 12.6292 135.479 12.205 135.479 11.6401C135.479 11.3097 135.573 11.0282 135.715 10.7448C135.903 10.4632 136.091 10.2737 136.372 10.086C136.656 9.94518 136.937 9.80259 137.313 9.70873C137.549 9.6618 137.924 9.61487 138.443 9.52101C139.477 9.42535 140.229 9.28456 140.701 9.14377C140.701 9.00118 140.701 8.90732 140.701 8.86039C140.701 8.38929 140.558 8.05898 140.323 7.87126C139.995 7.63661 139.711 7.49402 139.054 7.63661C137.971 7.82433 137.831 7.96512 137.078 8.57881L136.419 7.54095C136.372 7.54095 136.937 7.02292 137.408 6.88213C137.878 6.74134 138.396 6.59875 139.054 6.59875C139.711 6.59875 140.229 6.64568 140.605 6.78827C141.029 6.92906 141.311 7.06985 141.5 7.3063C141.688 7.49402 141.829 7.7774 141.876 8.05898C141.923 8.2485 141.923 8.57881 141.923 9.09684V10.604C141.923 11.6401 141.969 12.3007 142.016 12.5823C142.063 12.8656 142.157 13.1472 142.347 13.3837H141.029C140.982 13.1003 140.888 12.8656 140.841 12.5353ZM140.747 9.99211C140.276 10.1798 139.571 10.3206 138.677 10.4163C138.159 10.4632 137.784 10.5571 137.549 10.6509C137.313 10.7448 137.172 10.8386 137.031 11.0282C136.89 11.169 136.843 11.3585 136.843 11.5462C136.843 11.8296 136.984 12.1112 137.219 12.3007C137.455 12.4884 137.831 12.5823 138.349 12.5823C138.818 12.5823 139.289 12.4884 139.664 12.3007C140.042 12.1112 140.323 11.8296 140.511 11.4993C140.654 11.2628 140.701 10.8874 140.701 10.3675V9.99211H140.747ZM144.04 13.3367V6.69261H145.168V7.63661C145.733 6.88213 146.532 6.55182 147.567 6.55182C148.036 6.55182 148.46 6.64568 148.836 6.78827C149.213 6.92906 149.494 7.11678 149.682 7.35323C149.872 7.58788 150.012 7.87126 150.059 8.20157C150.106 8.38929 150.106 8.76653 150.106 9.28456V13.3837H148.836V9.33149C148.836 8.86039 148.789 8.53008 148.695 8.29543C148.601 8.05898 148.413 7.87126 148.179 7.73047C147.942 7.58788 147.614 7.54095 147.285 7.54095C146.72 7.54095 146.249 7.68354 145.874 8.01205C145.496 8.29543 145.262 8.90732 145.262 9.75566V13.3837L144.04 13.3367ZM152.081 13.3367V4.14939H153.352V9.37842L156.362 6.69261H158.008L155.139 9.14377L158.29 13.3367H156.738L154.245 9.94518L153.352 10.6979V13.3367C153.399 13.3367 152.081 13.3367 152.081 13.3367ZM113.797 4.76128C113.326 4.76128 112.951 4.38404 112.951 3.91294C112.951 3.44184 113.326 3.06641 113.797 3.06641C114.267 3.06641 114.644 3.44184 114.644 3.91294C114.644 4.38404 114.267 4.76128 113.797 4.76128ZM90.986 12.9126V6.22151H92.1629V7.25937C92.4444 6.78827 92.726 6.45796 92.9625 6.31717C93.1971 6.17458 93.4787 6.08072 93.809 6.08072C94.2314 6.08072 94.7025 6.22151 95.1248 6.45796L94.7025 7.49402C94.3722 7.3063 94.0906 7.25937 93.7621 7.25937C93.4787 7.25937 93.244 7.35323 93.0094 7.49402C92.7729 7.63661 92.6322 7.87126 92.5383 8.10771C92.3975 8.53008 92.3036 8.95425 92.3036 9.42535V12.9126H90.986ZM101.146 10.7917L102.462 10.9343C102.274 11.6401 101.85 12.1581 101.287 12.5353C100.722 12.9126 100.016 13.1003 99.1229 13.1003C97.9947 13.1003 97.1482 12.8187 96.4894 12.205C95.8306 11.5931 95.5021 10.7448 95.5021 9.6618C95.5021 8.53008 95.8306 7.63661 96.4894 7.02292C97.1482 6.41103 97.9947 6.08072 99.029 6.08072C100.063 6.08072 100.863 6.3641 101.522 6.97599C102.18 7.58788 102.509 8.43622 102.509 9.56794C102.509 9.61487 102.509 9.75566 102.509 9.84952H96.8648C96.9118 10.604 97.1482 11.169 97.5706 11.5462C97.9947 11.9234 98.511 12.1112 99.1698 12.1112C99.6409 12.1112 100.063 12.0173 100.394 11.7808C100.722 11.6401 100.957 11.3097 101.146 10.7917ZM96.9587 8.95425H101.193C101.146 8.38929 100.957 7.96512 100.722 7.68354C100.298 7.25937 99.7817 7.02292 99.1229 7.02292C98.511 7.02292 98.0417 7.21244 97.6175 7.54095C97.1951 7.91819 97.0056 8.38929 96.9587 8.95425ZM109.518 13.0534V12.205C109.047 12.8656 108.341 13.1959 107.4 13.1959C106.789 13.1959 106.225 13.0534 105.754 12.7718C105.236 12.4884 104.861 12.0642 104.579 11.5462C104.296 11.0282 104.155 10.4163 104.155 9.70873C104.155 9.04991 104.296 8.43622 104.532 7.87126C104.767 7.3063 105.142 6.92906 105.66 6.59875C106.179 6.31717 106.742 6.17458 107.354 6.17458C107.825 6.17458 108.2 6.27024 108.577 6.41103C108.953 6.59875 109.234 6.78827 109.471 7.06985V3.77215H110.74V13.0064L109.518 13.0534ZM105.473 9.70873C105.473 10.5571 105.66 11.2159 106.085 11.6401C106.507 12.0642 106.978 12.3007 107.541 12.3007C108.106 12.3007 108.577 12.1112 108.953 11.687C109.328 11.2628 109.565 10.6509 109.565 9.84952C109.565 8.95425 109.377 8.2485 108.953 7.82433C108.529 7.40016 108.059 7.16371 107.494 7.16371C106.931 7.16371 106.46 7.35323 106.085 7.7774C105.66 8.15464 105.473 8.81346 105.473 9.70873ZM113.185 12.9595V6.27024H114.456V12.9595H113.185ZM120.663 12.2537L120.851 13.2429C120.476 13.2898 120.147 13.3367 119.864 13.3367C119.395 13.3367 119.017 13.2898 118.783 13.1472C118.548 13.0064 118.359 12.8656 118.218 12.6292C118.124 12.4415 118.077 11.9704 118.077 11.3097V7.44709H117.137V6.55182H118.077V4.38404H119.348V6.59875H120.617V7.49402H119.348V11.4054C119.348 11.7339 119.348 11.9234 119.395 12.0173C119.441 12.1112 119.535 12.205 119.629 12.2537C119.723 12.3007 119.864 12.3476 120.052 12.3476C120.241 12.3007 120.429 12.3007 120.663 12.2537ZM58.2509 12.5823V11.5931C57.6408 12.3476 56.8882 12.7248 55.8521 12.7248C55.4297 12.7248 55.0056 12.6292 54.6301 12.4884C54.2547 12.3476 53.9713 12.1581 53.7836 11.9234C53.5959 11.687 53.4551 11.4054 53.4082 11.0751C53.3594 10.8386 53.3125 10.5101 53.3125 10.039V5.893H54.5832V9.56794C54.5832 10.1798 54.6301 10.5571 54.6771 10.7448C54.7709 11.0282 54.9117 11.2628 55.1951 11.4523C55.4767 11.6401 55.7582 11.687 56.1824 11.687C56.5579 11.687 56.9351 11.5931 57.2636 11.4523C57.5939 11.2628 57.8286 11.0282 57.9693 10.7448C58.1101 10.4632 58.1571 9.99211 58.1571 9.42535V5.84607H59.4278V12.4884L58.2509 12.5823ZM61.4024 12.5823V5.93993H62.5323V6.92906C62.8139 6.45796 63.0955 6.12765 63.3319 5.98686C63.5666 5.84607 63.8482 5.75041 64.1315 5.75041C64.5539 5.75041 64.9781 5.893 65.4474 6.12765L65.025 7.16371C64.6947 7.02292 64.4131 6.92906 64.0828 6.92906C63.8012 6.92906 63.5666 7.02292 63.3319 7.16371C63.0955 7.3063 62.9547 7.54095 62.8608 7.7774C62.72 8.15464 62.6262 8.62574 62.6262 9.09684V12.5823H61.4024ZM65.7777 9.28456C65.7777 8.05898 66.1531 7.11678 66.9527 6.55182C67.6115 6.08072 68.3642 5.79914 69.3046 5.79914C70.3389 5.79914 71.1854 6.08072 71.8442 6.69261C72.503 7.3063 72.8315 8.10771 72.8315 9.1907C72.8315 10.039 72.6908 10.7448 72.4092 11.2159C72.1258 11.687 71.7034 12.1112 71.1385 12.3476C70.5735 12.6292 69.9634 12.7718 69.3046 12.7718C68.2704 12.7718 67.4238 12.4884 66.765 11.8765C66.0593 11.2628 65.7777 10.3675 65.7777 9.28456ZM67.0466 9.28456C67.0466 10.1329 67.2343 10.7917 67.6585 11.2159C68.0808 11.6401 68.5989 11.8765 69.2577 11.8765C69.8696 11.8765 70.4327 11.6401 70.8569 11.2159C71.2793 10.7917 71.467 10.1329 71.467 9.28456C71.467 8.48315 71.2793 7.82433 70.8569 7.40016C70.4327 6.97599 69.9165 6.78827 69.2577 6.78827C68.5989 6.78827 68.0808 6.97599 67.6585 7.40016C67.2812 7.7774 67.0466 8.43622 67.0466 9.28456Z" fill="#313863"/>
<path d="M128.846 4.10088C128.799 2.31034 127.577 2.12262 126.4 2.21648L126.447 6.78669C127.952 6.173 128.893 6.173 128.846 4.10088ZM43.2933 3.77057C43.4341 3.53592 43.6237 3.29947 43.8114 3.11175C44.7518 2.12262 45.833 1.60279 47.1037 1.60279C48.6559 1.60279 49.8779 1.79231 51.0078 2.82837L51.8544 1.69845C50.7714 0.897044 48.6559 0.285156 47.1037 0.285156C45.3637 0.285156 43.9052 0.897044 42.6815 2.16955C41.9775 2.8753 41.5064 3.67671 41.1779 4.57198C41.788 4.2886 42.6345 3.96009 43.2933 3.77057ZM42.5876 5.98528C43.9522 5.42032 45.5983 5.2308 46.869 5.32646L46.9629 3.91136C45.5044 3.67671 44.1868 3.8175 43.0587 4.24167C42.3999 4.47812 41.7411 4.7597 41.0841 5.04308C40.9415 5.56111 40.8945 6.07914 40.8945 6.6441V6.73976C41.4595 6.40945 42.0244 6.173 42.5876 5.98528ZM46.869 5.7019C44.5641 5.56111 42.871 6.07914 40.8945 7.1152C40.9884 8.71802 41.5533 10.0844 42.5876 11.1674C43.7644 12.393 45.2698 13.0048 47.0567 13.0048C48.7029 13.0048 50.7714 12.2991 51.8074 11.4977L50.7244 10.5086C49.5494 11.5446 48.5621 11.6385 47.0567 11.6385C45.6922 11.6385 44.5641 11.1674 43.6706 10.1782C43.0118 9.47069 42.6345 8.76495 42.4937 7.82275C43.8583 7.16213 45.3637 6.97441 46.8221 7.06827L46.869 5.7019ZM88.2572 12.2991C87.2229 13.0987 85.8584 13.4759 84.2122 13.4759C82.3784 13.4759 80.9199 12.8641 79.7449 11.6385C78.615 10.4616 78.05 8.90573 78.05 7.1152C78.05 5.37339 78.6619 3.86443 79.8388 2.59372C81.0607 1.36814 82.5191 0.709326 84.2591 0.709326C85.8584 0.709326 87.176 1.08476 88.2572 1.88617V3.58285C87.1273 2.54679 85.7645 2.02696 84.2591 2.02696C82.9884 2.02696 81.9073 2.54679 80.9669 3.53592C80.0265 4.52505 79.5554 5.7019 79.5554 7.06827C79.5554 8.48156 79.9795 9.66022 80.873 10.6024C81.7665 11.5915 82.8946 12.0626 84.2591 12.0626C85.7645 12.0626 87.0803 11.5446 88.3041 10.5555L88.2572 12.2991ZM134.019 9.9436C134.019 11.6854 132.844 13.947 129.739 13.9001L124.848 13.8532L124.801 12.4868H126.918L128.846 12.5807C130.633 12.6276 132.232 12.4399 132.562 10.2252C132.75 8.71802 130.822 6.6441 129.08 7.39858L126.447 8.48156V11.7793H124.895L124.848 0.943973H127.34C129.505 0.943973 131.104 3.72364 129.88 5.98528C132.609 5.74883 134.019 8.43463 134.019 9.9436Z" fill="#313863"/>
<path d="M5.9039 23.464L3.08091 22.0507C3.03398 22.0507 3.03398 22.0038 2.98705 22.0038C-0.352161 20.3071 -0.633737 14.1359 2.37697 8.19934C5.38587 2.3097 10.5589 -1.17752 13.9 0.519159C14.1346 0.659948 14.3692 0.802541 14.557 0.943329L15.9215 1.60215C16.1562 1.65088 16.4396 1.74474 16.6742 1.88553C16.6742 1.88553 16.6742 1.88553 16.7211 1.88553C18.9792 0.141919 21.378 -0.469969 23.2118 0.47223C23.3057 0.519159 23.3996 0.566089 23.4934 0.613018L25.0926 1.41443C25.4229 1.46136 25.7514 1.60215 26.0799 1.74474C26.0799 1.8386 26.1269 1.8386 26.1738 1.88553C28.1972 0.47223 30.2657 -0.0927284 31.9588 0.519159L34.7348 1.93246C34.7348 1.93246 34.7348 1.93246 34.7817 1.93246C38.121 3.62914 38.4025 9.80036 35.4406 15.7369C32.4768 21.5796 27.3976 25.0181 24.0584 23.464L21.331 22.0977C19.2607 23.5579 17.0966 24.1229 15.4035 23.3702C15.3096 23.3215 15.2627 23.3215 15.1689 23.2745C15.1219 23.2276 15.0281 23.1807 14.9811 23.1807L13.335 22.3323C13.0047 22.2385 12.6762 22.1446 12.3946 22.0038C12.3946 22.0038 12.3946 22.0038 12.3477 22.0038C10.0427 23.6518 7.73775 24.3124 5.9039 23.464ZM3.50508 8.57658C0.730827 14.1359 0.871615 19.883 3.78666 21.3432C5.62051 22.2854 8.11319 21.3432 10.4181 19.1754C9.47775 16.5383 10.0427 12.3923 12.0643 8.38706C13.1003 6.36187 14.3692 4.61827 15.6869 3.2519C15.3096 2.3097 14.6978 1.55522 13.9 1.17978C10.9831 -0.282251 6.27933 3.01725 3.50508 8.57658ZM12.7231 8.67044C9.94885 14.2298 10.0896 19.9768 13.0047 21.484C14.7934 22.3793 17.1922 21.5327 19.4485 19.5057C18.5081 16.8687 19.073 12.7226 21.0946 8.71737C22.1776 6.59652 23.4934 4.80598 24.9049 3.43961C24.5277 2.49742 23.9176 1.74474 23.118 1.3675C20.1542 -0.186587 15.4974 3.11111 12.7231 8.67044ZM21.7534 8.85816C18.9792 14.4175 19.12 20.1664 22.035 21.6735C24.9988 23.1807 29.6556 19.883 32.4299 14.3236C35.2041 8.7643 35.0633 3.01725 32.1483 1.50829C29.2314 0.00113041 24.5277 3.29883 21.7534 8.85816Z" fill="#313863"/>
<path d="M12.6302 4.52547C5.24604 1.65195 -0.679709 17.3877 7.26761 18.8949L8.11415 16.5863C6.1395 15.9257 5.71713 13.9475 6.1395 11.9692H9.10328L9.90288 9.94402H6.89218C8.02029 7.72931 10.0437 5.9857 11.8306 6.83404L12.6302 4.52547Z" fill="#313863"/>
<path d="M22.3679 4.71119C14.9837 1.79073 9.01103 17.5735 16.9584 19.0337L17.8049 16.7251C12.7726 15.0303 17.711 5.22922 21.4744 7.01976L22.3679 4.71119Z" fill="#313863"/>
<path d="M30.8741 4.19537L27.441 4.14844L21.7969 18.0937H25.0892C28.9464 17.4349 31.2044 14.1372 30.2622 9.84856C31.6737 8.57786 34.2603 4.43182 30.8741 4.19537ZM24.5242 15.9259L26.5006 11.0741C29.9806 10.8377 28.5692 15.8321 24.5242 15.9259ZM27.3472 8.85943L28.4284 6.17362C31.3921 5.89205 29.5095 9.37746 27.3472 8.85943Z" fill="#313863"/>
</g>
<defs>
<clipPath id="clip0_59_388">
<rect width="157.846" height="24" fill="white" transform="translate(0.304688)"/>
</clipPath>
</defs>
</svg>
