<svg width="86" height="24" viewBox="0 0 86 24" fill="none" xmlns="http://www.w3.org/2000/svg">
<path d="M31.4033 21.6659V14.3413C31.4033 12.5381 30.4772 10.9011 28.6521 10.9011C26.8543 10.9011 25.792 12.5381 25.792 14.3413V21.6659H22.4688V7.96023H25.5469L25.792 9.6249C26.5002 8.23775 28.0528 7.73828 29.3332 7.73828C30.9404 7.73828 32.5474 8.40412 33.3102 10.2908C34.5087 8.34859 36.0614 7.79381 37.8048 7.79381C41.6183 7.79381 43.4978 10.1798 43.4978 14.2859V21.6659H40.1746V14.2859C40.1746 12.4825 39.439 10.9568 37.6413 10.9568C35.8435 10.9568 34.7266 12.5381 34.7266 14.3413V21.6659H31.4033Z" fill="#253746"/>
<path d="M49.206 14.7324C49.206 17.3404 50.9767 18.8939 53.1831 18.8939C58.4132 18.8939 58.4132 10.5985 53.1831 10.5985C50.9767 10.5985 49.206 12.1245 49.206 14.7324ZM57.2688 7.93843H60.4559V21.6747H57.3233L57.1602 19.5877C56.3972 21.1969 54.2999 21.9736 52.8017 22.0015C48.8248 22.0292 45.8828 19.5322 45.8828 14.7324C45.8828 10.0159 48.9609 7.54663 52.8835 7.57445C54.6812 7.57445 56.3972 8.43447 57.1602 9.79391L57.2688 7.93843Z" fill="#253746"/>
<path d="M63.4953 7.93792V21.6713H66.8182V7.93792H63.4953ZM67.1182 3.97674C67.1182 6.61236 63.1953 6.61236 63.1953 3.97674C63.1953 1.34109 67.1182 1.34109 67.1182 3.97674Z" fill="#253746"/>
<path d="M73.3887 14.8162C73.3887 17.2854 75.1866 18.839 77.2838 18.839C79.4084 18.839 81.0977 17.2022 81.0977 14.8162C81.0977 12.347 79.4084 10.821 77.2838 10.821C75.1866 10.821 73.3887 12.4302 73.3887 14.8162ZM73.1706 2.26172V9.85001C73.9609 8.43499 76.1673 7.65826 77.5838 7.65826C81.5062 7.65826 84.4206 10.0997 84.4206 14.8162C84.4206 19.3108 81.4517 21.9743 77.502 21.9743C75.8673 21.9743 74.2058 21.4194 73.1706 19.7824L72.9529 21.669H69.8477V2.26172H73.1706Z" fill="#253746"/>
<path d="M18.5027 6.77155C16.7769 4.05171 13.7758 2.25 10.3596 2.25C5.00727 2.25 0.667969 6.66927 0.667969 12.1208C0.667969 12.8027 0.735818 13.4688 0.865102 14.1117C9.1154 8.81427 15.7289 7.23049 18.5027 6.77155Z" fill="#40C1AC"/>
<path d="M18.7013 7.09375C10.539 10.6891 5.18752 16.889 3.48047 19.0694C5.23622 20.871 7.66907 21.9873 10.3584 21.9873C15.7107 21.9873 20.0502 17.568 20.0502 12.1166C20.0502 10.2822 19.5571 8.56539 18.7013 7.09375Z" fill="#40C1AC"/>
</svg>
