<svg width="146" height="24" viewBox="0 0 146 24" fill="none" xmlns="http://www.w3.org/2000/svg">
<g clip-path="url(#clip0_59_379)">
<path d="M39.2462 7.32527H36.9292H36.7797L36.7049 7.47475L34.5374 13.6036L32.4446 7.40001L32.3699 7.25052H32.2204H29.9034H29.7539V7.47475V16.4438V16.5933H29.9034H31.6972H31.8467V16.4438V13.7531L31.6972 10.9129L33.7152 16.5186L33.79 16.668H33.9395H35.1353H35.2848L35.3596 16.5186L37.3776 10.9129L37.2281 13.8278V16.4438V16.5933H37.3776H39.1714H39.3209V16.4438V7.47475V7.32527H39.2462ZM66.4524 7.32527H64.6585H64.5091V7.47475V16.4438V16.5933H64.6585H66.4524H66.6018V16.4438V7.47475V7.32527H66.4524ZM122.135 10.0907L123.032 12.8562H121.238L122.135 10.0907ZM123.107 7.32527H121.238H121.089L121.014 7.47475L117.95 16.4438L117.875 16.668H118.099H119.893H120.043L120.117 16.5186L120.715 14.7248H123.555L124.153 16.5186L124.228 16.668H124.378H126.171H126.396L126.321 16.4438L123.256 7.47475L123.182 7.32527H123.107ZM51.2797 7.32527H49.4859H49.3364V7.47475V16.4438V16.5933H49.4859H55.241H55.3905V16.4438V15.0985V14.949H55.241H51.4292V7.47475V7.32527H51.2797ZM58.2307 9.04434H59.2024C59.5013 9.04434 59.7256 9.11908 60.0245 9.19382C60.2488 9.26856 60.473 9.41805 60.6225 9.64228C60.7719 9.8665 60.9214 10.0907 60.9962 10.315C61.0709 10.5392 61.1457 10.8382 61.1457 11.2119V12.7067C61.1457 13.0057 61.0709 13.3046 60.9962 13.6036C60.9214 13.9026 60.7719 14.1268 60.6225 14.2763C60.473 14.5005 60.2488 14.65 60.0245 14.7248C59.8003 14.7995 59.5013 14.8742 59.2024 14.8742H58.2307V9.04434ZM59.3518 7.32527H56.2874H56.1379V7.47475V16.4438V16.5933H56.2874H59.3518C59.9498 16.5933 60.473 16.5186 60.9214 16.2943C61.3699 16.1449 61.8183 15.8459 62.1921 15.4722C62.4163 15.2479 62.6405 14.949 62.79 14.65C62.8647 14.5005 62.9395 14.351 63.0142 14.2016C63.1637 13.7531 63.3132 13.2299 63.3132 12.632V11.1371C63.3132 10.5392 63.2384 10.016 63.0142 9.56753C62.8647 9.11908 62.5658 8.67063 62.1921 8.29692C61.8183 7.9232 61.3699 7.62423 60.9214 7.47475C60.473 7.40001 59.9498 7.32527 59.3518 7.32527ZM75.4214 7.32527H73.6276H73.4781V7.47475V13.0057L70.1895 7.40001L70.1147 7.32527H70.04H68.2462H68.0967V7.47475V16.4438V16.5933H68.2462H70.04H70.1895V16.4438V10.9129L73.4781 16.5186L73.5529 16.5933H73.6276H75.4214H75.5709V16.4438V7.47475V7.32527H75.4214ZM79.0838 9.04434H80.0555C80.3544 9.04434 80.5787 9.11908 80.8776 9.19382C81.1018 9.26856 81.3261 9.41805 81.4756 9.64228C81.625 9.8665 81.7745 10.0907 81.8493 10.315C81.924 10.5392 81.9988 10.8382 81.9988 11.2119V12.7067C81.9988 13.0057 81.924 13.3046 81.8493 13.6036C81.7745 13.9026 81.625 14.1268 81.4756 14.2763C81.3261 14.5005 81.1018 14.65 80.8776 14.7248C80.6534 14.7995 80.3544 14.8742 80.0555 14.8742H79.0838V9.04434ZM80.2049 7.32527H77.1405H76.991V7.47475V16.4438V16.5933H77.1405H80.2049C80.8029 16.5933 81.3261 16.5186 81.7745 16.2943C82.223 16.1449 82.6714 15.8459 83.0451 15.4722C83.7926 14.7248 84.1663 13.8278 84.1663 12.632V11.1371C84.1663 10.5392 84.0915 10.016 83.8673 9.56753C83.7178 9.11908 83.4189 8.67063 83.0451 8.29692C82.6714 7.9232 82.223 7.62423 81.7745 7.47475C81.2513 7.40001 80.7281 7.32527 80.2049 7.32527ZM109.205 7.32527H107.411H107.187V7.47475V13.0057L103.898 7.40001L103.823 7.32527H103.749H101.955H101.805V7.47475V16.4438V16.5933H101.955H103.749H103.898V16.4438V10.9129L107.187 16.5186L107.262 16.5933H107.336H109.13H109.28V16.4438V7.47475V7.32527H109.205ZM112.867 12.632H114.437C114.661 12.632 114.811 12.632 114.96 12.7067C115.11 12.7815 115.184 12.8562 115.334 12.9309C115.409 13.0057 115.483 13.0804 115.483 13.2299V13.3046C115.558 13.4541 115.558 13.6036 115.558 13.8278C115.558 13.9773 115.558 14.1268 115.483 14.2763C115.409 14.4258 115.334 14.5005 115.259 14.5753C115.184 14.65 115.035 14.7248 114.885 14.7995C114.736 14.8742 114.512 14.8742 114.287 14.8742H112.793V12.632H112.867ZM112.867 9.04434H113.914C114.138 9.04434 114.362 9.04434 114.512 9.11908C114.661 9.19382 114.811 9.19382 114.96 9.34331C115.035 9.41805 115.11 9.49279 115.184 9.56753V9.64228C115.259 9.79176 115.259 9.94125 115.259 10.0907C115.259 10.2402 115.259 10.3897 115.184 10.5392C115.11 10.6887 115.035 10.7634 114.96 10.8382C114.885 10.9129 114.736 10.9876 114.586 11.0624C114.437 11.1371 114.213 11.1371 113.988 11.1371H112.867V9.04434ZM110.849 7.32527H110.7V7.47475V16.4438V16.5933H110.849H114.287C115.035 16.5933 115.708 16.4438 116.231 16.2196C116.305 16.1449 116.455 16.1449 116.53 16.0701C116.604 15.9954 116.679 15.9206 116.829 15.9206C117.053 15.6964 117.277 15.4722 117.427 15.1732C117.427 15.0985 117.501 15.0985 117.501 15.0237C117.651 14.65 117.726 14.2763 117.726 13.8278C117.726 13.5289 117.726 13.3046 117.651 13.0804C117.576 12.8562 117.501 12.632 117.352 12.4077C117.202 12.1835 117.053 12.034 116.829 11.8845C116.754 11.8098 116.604 11.8098 116.53 11.7351C116.679 11.6603 116.829 11.5108 116.903 11.4361C116.978 11.3613 116.978 11.3613 117.053 11.2866C117.053 11.2119 117.128 11.2119 117.128 11.1371C117.277 10.9876 117.352 10.7634 117.427 10.5392C117.501 10.315 117.501 10.0907 117.501 9.8665C117.501 9.26856 117.352 8.74537 116.978 8.29692C116.903 8.22217 116.829 8.14743 116.754 8.07269C116.679 7.99795 116.604 7.9232 116.53 7.84846C116.231 7.62423 115.857 7.47475 115.409 7.40001C114.96 7.32527 114.512 7.25052 113.988 7.25052H110.849V7.32527ZM134.468 7.32527H132.674H132.525V7.47475V13.0057L129.236 7.40001L129.161 7.32527H129.086H127.293H127.143V7.47475V16.4438V16.5933H127.293H129.086H129.236V16.4438V10.9129L132.525 16.5186L132.599 16.5933H132.674H134.468H134.617V16.4438V7.47475V7.32527H134.468ZM137.906 7.32527H136.112H135.963V7.47475V16.4438V16.5933H136.112H137.906H138.055V16.4438V12.8562H138.803L141.12 16.5186L141.195 16.5933H141.269H143.437H143.811L143.586 16.2943L140.372 11.6603L143.287 7.62423L143.512 7.32527H143.138H140.97H140.896L140.821 7.40001L138.504 10.9876H137.981V7.47475V7.32527H137.906ZM43.058 14.351C42.9085 14.2016 42.8338 13.9773 42.7591 13.7531C42.7591 13.6784 42.7591 13.6784 42.6843 13.6036C42.6096 13.3046 42.5348 13.0057 42.5348 12.7067V11.0624C42.5348 10.7634 42.6096 10.3897 42.6843 10.1655C42.7591 9.8665 42.9085 9.64228 43.058 9.49279C43.2075 9.34331 43.357 9.19382 43.5065 9.11908L43.5812 9.04434C43.8055 8.9696 44.0297 8.89485 44.3286 8.89485C44.7024 8.89485 45.0761 8.9696 45.3003 9.19382C45.375 9.26856 45.375 9.26856 45.4498 9.34331C45.5245 9.41805 45.5245 9.41805 45.5993 9.49279C45.8982 9.94125 46.0477 10.4644 46.0477 11.0624V12.7067C46.0477 13.1552 45.973 13.6036 45.8235 13.9773C45.8235 14.0521 45.7488 14.1268 45.7488 14.2016C45.674 14.2763 45.674 14.351 45.5993 14.351C45.4498 14.5753 45.2256 14.7248 45.0761 14.7995C44.8518 14.8742 44.6276 14.949 44.3286 14.949C43.9549 14.949 43.5812 14.8742 43.357 14.65C43.2823 14.5753 43.2823 14.5753 43.2075 14.5005C43.1328 14.5005 43.1328 14.4258 43.058 14.351ZM42.1611 7.77372C42.0116 7.84846 41.9369 7.9232 41.7874 7.99795C41.7127 8.07269 41.5632 8.22217 41.4884 8.29692C41.1147 8.67063 40.8905 9.11908 40.6663 9.56753C40.5168 10.016 40.3673 10.5392 40.3673 11.1371V12.7067C40.3673 13.3046 40.442 13.8278 40.6663 14.2763C40.8158 14.7248 41.1147 15.1732 41.4884 15.5469C41.7874 15.8459 42.1611 16.1449 42.5348 16.2943C42.6096 16.2943 42.6843 16.3691 42.7591 16.3691C43.2075 16.5186 43.7307 16.668 44.3286 16.668C44.9266 16.668 45.4498 16.5933 45.8982 16.3691C46.3467 16.1449 46.7951 15.9206 47.1689 15.5469C47.5426 15.1732 47.8415 14.7248 47.991 14.2763C48.1405 13.8278 48.29 13.3046 48.29 12.7067V11.1371C48.29 10.5392 48.2152 10.016 47.991 9.56753C47.8415 9.11908 47.5426 8.67063 47.1689 8.29692C46.8699 7.99795 46.4962 7.69898 46.1225 7.54949C46.0477 7.54949 45.973 7.47475 45.8982 7.47475C45.4498 7.25052 44.9266 7.17578 44.3286 7.17578C43.5065 7.17578 42.7591 7.40001 42.1611 7.77372ZM88.6508 7.17578C88.1276 7.17578 87.6044 7.25052 87.156 7.47475C86.7075 7.62423 86.3338 7.9232 85.9601 8.29692C85.7359 8.52114 85.5116 8.82011 85.3622 9.11908C85.2874 9.26856 85.2127 9.41805 85.1379 9.56753C84.9884 10.016 84.9137 10.5392 84.9137 11.1371V12.9309C84.9137 13.5289 84.9884 13.9773 85.2127 14.5005C85.2874 14.7248 85.4369 14.949 85.5116 15.1732C85.6611 15.3974 85.8106 15.5469 85.9601 15.7711C86.3338 16.1449 86.7075 16.4438 87.156 16.5933C87.6044 16.7428 88.1276 16.8923 88.6508 16.8923C89.174 16.8923 89.6972 16.8175 90.1457 16.668C90.5941 16.5186 90.9678 16.2943 91.2668 15.9954C91.7152 15.5469 92.0142 15.0237 92.1637 14.351C92.1637 14.2016 92.2384 14.1268 92.2384 13.9773C92.2384 13.8278 92.2384 13.6784 92.2384 13.6036L92.1637 13.4541H92.0142H90.2951H90.1457V13.6036C90.1457 13.9026 90.1457 14.1268 90.0709 14.351C89.9962 14.5753 89.9214 14.7248 89.7719 14.8742C89.6972 14.949 89.5477 15.0985 89.3982 15.0985H89.3235C89.0993 15.1732 88.9498 15.1732 88.6508 15.1732C88.4266 15.1732 88.2024 15.0985 87.9781 15.0237C87.7539 14.949 87.6044 14.7995 87.4549 14.5753C87.156 14.2016 87.0065 13.6784 87.0065 13.0057V11.2119C87.0065 10.9129 87.0065 10.6139 87.0812 10.315C87.156 10.0907 87.2307 9.8665 87.3802 9.64228C87.5297 9.41805 87.6792 9.26856 87.9034 9.19382C88.0529 9.11908 88.2771 9.04434 88.5761 9.04434C88.9498 9.04434 89.3235 9.11908 89.5477 9.26856C89.6225 9.26856 89.6225 9.34331 89.6972 9.34331C89.7719 9.34331 89.7719 9.41805 89.7719 9.41805C89.9214 9.56753 89.9962 9.71702 90.0709 9.94125C90.1457 10.1655 90.1457 10.3897 90.1457 10.6887V10.8382H90.2951H92.0142H92.1637L92.2384 10.6887C92.2384 9.94125 92.089 9.34331 91.7152 8.82011C91.6405 8.74537 91.5658 8.59588 91.491 8.52114C91.4163 8.4464 91.3415 8.37166 91.2668 8.22217C90.9678 7.9232 90.5194 7.69898 90.0709 7.54949C89.6972 7.25052 89.174 7.17578 88.6508 7.17578ZM96.7977 14.949C96.424 14.949 96.0503 14.8742 95.8261 14.65C95.7513 14.5753 95.7513 14.5753 95.6766 14.5005C95.6018 14.4258 95.6018 14.4258 95.5271 14.351C95.3776 14.2016 95.3029 13.9773 95.2281 13.7531C95.2281 13.6784 95.2281 13.6784 95.1534 13.6036C95.0787 13.3046 95.0039 13.0057 95.0039 12.7067V11.0624C95.0039 10.7634 95.0787 10.3897 95.1534 10.1655C95.2281 9.8665 95.3776 9.64228 95.5271 9.49279C95.6766 9.34331 95.8261 9.19382 95.9756 9.11908L96.0503 9.04434C96.2745 8.9696 96.4988 8.89485 96.7977 8.89485C97.1714 8.89485 97.5451 8.9696 97.7694 9.19382C97.8441 9.26856 97.8441 9.26856 97.9189 9.34331C97.9936 9.41805 97.9936 9.41805 98.0683 9.49279C98.2178 9.64228 98.2926 9.8665 98.3673 10.0907C98.3673 10.1655 98.3673 10.1655 98.4421 10.2402C98.5168 10.5392 98.5915 10.8382 98.5915 11.1371V12.7815C98.5915 13.2299 98.5168 13.6784 98.3673 14.0521C98.3673 14.1268 98.2926 14.2016 98.2926 14.2763C98.2178 14.351 98.2178 14.4258 98.1431 14.4258C97.9936 14.65 97.7694 14.7995 97.6199 14.8742C97.3209 14.949 97.0967 14.949 96.7977 14.949ZM96.7977 7.17578C95.9756 7.17578 95.2281 7.40001 94.6302 7.77372C94.4807 7.84846 94.406 7.9232 94.2565 7.99795C94.1817 8.07269 94.0323 8.22217 93.9575 8.29692C93.5838 8.67063 93.3596 9.11908 93.1353 9.56753C92.9859 10.016 92.8364 10.5392 92.8364 11.1371V12.7067C92.8364 13.3046 92.9111 13.8278 93.1353 14.2763C93.2848 14.7248 93.5838 15.1732 93.9575 15.5469C94.2565 15.8459 94.6302 16.1449 95.0039 16.2943C95.0786 16.2943 95.1534 16.3691 95.2281 16.3691C95.6766 16.5186 96.1998 16.668 96.7977 16.668C97.3957 16.668 97.9189 16.5933 98.3673 16.3691C98.8158 16.1449 99.2642 15.9206 99.6379 15.5469C100.012 15.1732 100.311 14.7248 100.46 14.2763C100.61 13.8278 100.759 13.3046 100.759 12.7067V11.1371C100.759 10.5392 100.684 10.016 100.46 9.56753C100.311 9.11908 100.012 8.67063 99.6379 8.29692C99.339 7.99795 98.9652 7.69898 98.5915 7.54949C98.5168 7.54949 98.442 7.47475 98.3673 7.47475C97.9189 7.25052 97.3957 7.17578 96.7977 7.17578Z" fill="#283D71"/>
<path d="M13.6101 23.767C20.1321 23.767 25.4193 18.4798 25.4193 11.9577C25.4193 5.43563 20.1321 0.148438 13.6101 0.148438C7.08797 0.148438 1.80078 5.43563 1.80078 11.9577C1.80078 18.4798 7.08797 23.767 13.6101 23.767Z" fill="#FDD301"/>
<path d="M22.7291 8.74476H13.6105C12.4146 8.74476 11.443 7.77312 11.443 6.57724C11.443 5.38136 12.4146 4.40971 13.6105 4.40971V2.24219C8.60277 2.24219 4.49195 5.9793 3.96875 10.8375H23.2523C23.1775 10.1649 22.9533 9.41745 22.7291 8.74476Z" fill="url(#paint0_linear_59_379)"/>
<path d="M3.96875 13.0039C4.04349 13.7513 4.19298 14.4988 4.49195 15.1714H13.6105C14.8064 15.1714 15.778 16.1431 15.778 17.339C15.778 18.5348 14.8064 19.5065 13.6105 19.5065V21.674C18.6182 21.674 22.7291 17.9369 23.2523 13.0786H3.96875V13.0039Z" fill="url(#paint1_linear_59_379)"/>
</g>
<defs>
<linearGradient id="paint0_linear_59_379" x1="18.8394" y1="15.2797" x2="7.71663" y2="4.15686" gradientUnits="userSpaceOnUse">
<stop stop-color="#057DAF"/>
<stop offset="1" stop-color="#063073"/>
</linearGradient>
<linearGradient id="paint1_linear_59_379" x1="19.5076" y1="19.7593" x2="8.38482" y2="8.63649" gradientUnits="userSpaceOnUse">
<stop stop-color="#C72127"/>
<stop offset="1" stop-color="#EC1B2E"/>
</linearGradient>
<clipPath id="clip0_59_379">
<rect width="145" height="23.9175" fill="white" transform="translate(0.304688)"/>
</clipPath>
</defs>
</svg>
