<svg width="112" height="24" viewBox="0 0 112 24" fill="none" xmlns="http://www.w3.org/2000/svg">
<g clip-path="url(#clip0_59_399)">
<path d="M14.7148 5.50349C14.7148 3.93851 15.9823 2.6702 17.5473 2.6702C19.1114 2.6702 20.3797 3.93851 20.3797 5.50349C20.3797 7.06846 19.1114 8.33594 17.5473 8.33594C15.9823 8.33594 14.7148 7.06846 14.7148 5.50349Z" fill="#00694F"/>
<path d="M11.2932 4.64886C7.39331 4.64886 4.23503 7.80963 4.23503 11.7079C4.23503 15.607 7.39331 18.7669 11.2932 18.7669C15.1915 18.7669 18.3523 15.607 18.3523 11.7079V11.6212L18.4056 11.6771C18.4056 11.6787 22.3772 11.6812 22.3772 11.6829C22.3772 17.8211 17.4015 22.7969 11.2632 22.7969C5.12418 22.7969 0.148438 17.8211 0.148438 11.6829C0.148438 5.56551 5.09168 0.601427 11.2024 0.568094L11.2932 4.64886Z" fill="#00694F"/>
<path d="M6.4375 11.7176C6.4375 9.00763 8.63496 6.81017 11.3449 6.81017C14.054 6.81017 16.2515 9.00763 16.2515 11.7176C16.2515 14.4284 14.054 16.625 11.3449 16.625C8.63496 16.625 6.4375 14.4284 6.4375 11.7176Z" fill="#67B230"/>
<path d="M53.173 9.12276C53.7588 8.82276 54.1004 8.66276 54.6763 8.66276C55.0221 8.66276 55.7004 8.7086 56.1071 9.35442C56.6137 10.1377 56.4187 11.3102 56.2129 12.0944C55.8596 13.431 55.1063 14.6268 54.0146 15.2718C53.1446 15.7785 52.2113 15.8251 51.3997 15.8476L53.173 9.12276ZM53.9521 5.99198L53.8238 5.78448C52.0455 6.15197 51.538 6.24614 49.8247 6.4528L49.6439 6.61447C49.1755 9.35442 48.9872 10.4136 47.2372 17.046C46.5147 19.7842 46.0556 21.3525 45.2998 23.955C47.0597 24 47.5497 23.9767 49.2947 24L49.463 23.8842L50.748 18.4043C52.4346 18.3809 54.7679 18.3584 57.0946 16.6076C58.9312 15.226 59.9328 13.2694 60.3445 11.7027C61.3112 8.04111 59.6604 5.83115 57.0804 5.83115C55.4921 5.83115 54.4238 6.4753 53.6638 6.91446L53.9521 5.99198ZM45.8756 15.6643C45.4539 15.7785 45.1531 15.8718 44.7614 15.8718C43.5865 15.8718 43.689 15.1352 43.7348 14.7885C43.8231 14.1893 44.1573 12.9244 44.4231 12.0027L45.3256 8.7561L47.3739 8.84776L47.5481 8.7086L48.4289 6.24614L46.0248 6.10781L47.1147 2.23954C45.3014 2.5612 44.8581 2.6762 43.1131 3.09036L42.9781 3.25119L42.2415 6.12947L41.0107 6.08447L40.8423 6.19864L39.9849 8.66276L41.549 8.7561L40.5148 12.4169C40.339 12.9935 40.1649 13.5685 40.0057 14.166C39.4482 16.2851 38.8932 18.5659 42.4848 18.5659C43.3831 18.5659 44.1331 18.4276 44.9756 18.2884L45.1798 18.1276L46.0356 15.7568L45.8756 15.6643ZM34.18 12.1635C33.6816 14.051 32.8758 16.1476 30.9633 16.1476C30.365 16.1476 30.0234 15.8718 29.8142 15.6185C29.5267 15.226 29.2959 14.4435 29.8859 12.2094C30.0617 11.541 30.4509 10.0686 31.1225 9.26192C31.6325 8.6386 32.34 8.22527 33.0766 8.22527C33.7216 8.22527 34.16 8.5711 34.3633 8.94026C34.7391 9.60775 34.5075 10.9202 34.18 12.1635ZM38.1574 12.1869C38.3957 11.2877 39.379 7.55778 36.4883 6.28947C35.5791 5.89948 34.3933 5.85281 33.795 5.85281C29.7875 5.85281 26.9667 7.99528 25.8493 12.2327C25.4601 13.7052 25.2959 15.2043 25.8193 16.446C26.1809 17.3434 26.9817 18.5893 30.275 18.5893C35.1566 18.5893 37.2474 15.641 38.1574 12.1869Z" fill="#00694F"/>
<path d="M61.0963 18.4805L62.7188 18.458H63.9921C66.9787 18.3421 69.5487 18.1805 71.6328 15.7938C73.1844 14.0122 73.5561 11.7889 73.5561 10.6064C73.5561 7.69065 71.6328 6.13985 69.3403 6.13985C67.8578 6.13985 66.932 6.64651 65.9595 7.18066L67.0245 2.73324L67.6729 0.164118L67.5579 0.000787735L65.0329 0.440779L64.8487 0.604111C64.7079 1.66826 64.6162 2.20158 64.3146 3.66156C63.9671 5.37319 63.5754 7.13233 63.1571 8.87064L62.2079 13.1089L60.9805 18.3421L61.0963 18.4805ZM65.5662 8.9873C66.3062 8.52314 67.1412 8.01398 68.322 8.01398C69.8045 8.01398 71.0795 8.82397 71.0795 10.9331C71.0795 12.4131 70.2678 14.4755 68.5545 15.6555C67.0495 16.6747 65.3812 16.6747 64.1762 16.6747L63.8063 16.653L65.5662 8.9873Z" fill="#67B230"/>
<path d="M86.7247 6.62453L86.6072 6.4387L83.4139 6.41537C81.2823 6.41537 78.2948 6.55536 76.1415 9.07615C75.1682 10.232 74.2891 12.2186 74.2891 14.0419C74.2891 16.931 76.2107 18.5977 78.5723 18.5977C80.5415 18.5977 81.5589 17.7393 81.9548 17.4168L81.7931 18.3418L81.9081 18.5035L84.0839 18.4585L84.2472 18.296C84.7097 15.5435 84.8714 14.6661 85.6839 11.1078L86.7247 6.62453ZM82.3023 15.636C82.0473 15.8435 81.7931 16.0752 81.5381 16.236C80.9348 16.606 80.1481 16.7677 79.5223 16.7677C77.4148 16.7677 76.814 14.9886 76.814 13.8802C76.814 13.7652 76.8582 10.7853 79.2915 9.12282C80.6565 8.19784 82.1623 8.152 82.9264 8.152C83.2739 8.152 83.6214 8.17617 83.9689 8.17617L82.3023 15.636Z" fill="#67B230"/>
<path d="M97.6523 15.2616L97.9998 13.6866C98.3022 12.3908 98.7631 10.3517 98.7631 9.14834C98.7631 6.34589 96.2631 6.13756 95.499 6.13756C93.5773 6.13756 92.4198 6.94754 91.5149 7.55087L91.8399 6.36839L91.724 6.20672C90.6124 6.43922 90.3574 6.48505 89.2707 6.62422L89.1066 6.78588C88.7366 9.31084 88.6191 9.91249 87.9949 12.6449L87.6266 14.3824L86.6758 18.3648L86.7916 18.5273L89.1532 18.4582L89.3166 18.3182C90.0574 14.4524 90.3341 13.2241 91.1907 9.33334C91.8857 8.82334 92.8365 8.10502 94.2723 8.10502C95.359 8.10502 96.2173 8.56918 96.2173 9.95833C96.2173 10.515 96.1023 11.07 95.9848 11.6033L95.4056 14.2191L94.434 18.3648L94.5265 18.5273L96.8881 18.4582L97.0739 18.3182L97.6523 15.2616Z" fill="#67B230"/>
<path d="M108.991 8.63908C109.431 8.24575 109.662 8.01325 110.034 7.71159C110.959 6.92494 111.075 6.83244 111.307 6.62411L111.237 6.41495H108.574L108.319 6.55411C107.948 6.94744 105.98 8.98657 105.17 9.77406C104.405 10.5149 104.082 10.8174 103.526 11.3024L105.471 3.03501L106.19 0.209223L106.049 0.0467262L103.526 0.464218L103.363 0.603384C103.156 1.8767 103.038 2.61752 102.598 4.74748C102.276 6.22995 101.952 7.73493 101.603 9.24073L99.4727 18.3656L99.566 18.5039L101.905 18.4572L102.069 18.3181C102.647 15.2615 102.784 14.5673 103.457 11.6265L105.077 14.9148C105.912 16.6039 106.074 16.9289 106.675 18.3656L106.862 18.5039L109.431 18.4339L109.569 18.2497L105.98 11.4182L108.991 8.63908Z" fill="#67B230"/>
<path d="M14.7148 5.50349C14.7148 3.93851 15.9823 2.6702 17.5473 2.6702C19.1114 2.6702 20.3797 3.93851 20.3797 5.50349C20.3797 7.06846 19.1114 8.33594 17.5473 8.33594C15.9823 8.33594 14.7148 7.06846 14.7148 5.50349Z" fill="#00694F"/>
<path d="M11.2932 4.64886C7.39331 4.64886 4.23503 7.80963 4.23503 11.7079C4.23503 15.607 7.39331 18.7669 11.2932 18.7669C15.1915 18.7669 18.3523 15.607 18.3523 11.7079V11.6212L18.4056 11.6771C18.4056 11.6787 22.3772 11.6812 22.3772 11.6829C22.3772 17.8211 17.4015 22.7969 11.2632 22.7969C5.12418 22.7969 0.148438 17.8211 0.148438 11.6829C0.148438 5.56551 5.09168 0.601427 11.2024 0.568094L11.2932 4.64886Z" fill="#00694F"/>
<path d="M6.4375 11.7176C6.4375 9.00763 8.63496 6.81017 11.3449 6.81017C14.054 6.81017 16.2515 9.00763 16.2515 11.7176C16.2515 14.4284 14.054 16.625 11.3449 16.625C8.63496 16.625 6.4375 14.4284 6.4375 11.7176Z" fill="#67B230"/>
<path d="M53.173 9.12276C53.7588 8.82276 54.1004 8.66276 54.6763 8.66276C55.0221 8.66276 55.7004 8.7086 56.1071 9.35442C56.6137 10.1377 56.4187 11.3102 56.2129 12.0944C55.8596 13.431 55.1063 14.6268 54.0146 15.2718C53.1446 15.7785 52.2113 15.8251 51.3997 15.8476L53.173 9.12276ZM53.9521 5.99198L53.8238 5.78448C52.0455 6.15197 51.538 6.24614 49.8247 6.4528L49.6439 6.61447C49.1755 9.35442 48.9872 10.4136 47.2372 17.046C46.5147 19.7842 46.0556 21.3525 45.2998 23.955C47.0597 24 47.5497 23.9767 49.2947 24L49.463 23.8842L50.748 18.4043C52.4346 18.3809 54.7679 18.3584 57.0946 16.6076C58.9312 15.226 59.9328 13.2694 60.3445 11.7027C61.3112 8.04111 59.6604 5.83115 57.0804 5.83115C55.4921 5.83115 54.4238 6.4753 53.6638 6.91446L53.9521 5.99198ZM45.8756 15.6643C45.4539 15.7785 45.1531 15.8718 44.7614 15.8718C43.5865 15.8718 43.689 15.1352 43.7348 14.7885C43.8231 14.1893 44.1573 12.9244 44.4231 12.0027L45.3256 8.7561L47.3739 8.84776L47.5481 8.7086L48.4289 6.24614L46.0248 6.10781L47.1147 2.23954C45.3014 2.5612 44.8581 2.6762 43.1131 3.09036L42.9781 3.25119L42.2415 6.12947L41.0107 6.08447L40.8423 6.19864L39.9849 8.66276L41.549 8.7561L40.5148 12.4169C40.339 12.9935 40.1649 13.5685 40.0057 14.166C39.4482 16.2851 38.8932 18.5659 42.4848 18.5659C43.3831 18.5659 44.1331 18.4276 44.9756 18.2884L45.1798 18.1276L46.0356 15.7568L45.8756 15.6643ZM34.18 12.1635C33.6816 14.051 32.8758 16.1476 30.9633 16.1476C30.365 16.1476 30.0234 15.8718 29.8142 15.6185C29.5267 15.226 29.2959 14.4435 29.8859 12.2094C30.0617 11.541 30.4509 10.0686 31.1225 9.26192C31.6325 8.6386 32.34 8.22527 33.0766 8.22527C33.7216 8.22527 34.16 8.5711 34.3633 8.94026C34.7391 9.60775 34.5075 10.9202 34.18 12.1635ZM38.1574 12.1869C38.3957 11.2877 39.379 7.55778 36.4883 6.28947C35.5791 5.89948 34.3933 5.85281 33.795 5.85281C29.7875 5.85281 26.9667 7.99528 25.8493 12.2327C25.4601 13.7052 25.2959 15.2043 25.8193 16.446C26.1809 17.3434 26.9817 18.5893 30.275 18.5893C35.1566 18.5893 37.2474 15.641 38.1574 12.1869Z" fill="#00694F"/>
<path d="M61.0963 18.4805L62.7188 18.458H63.9921C66.9787 18.3421 69.5487 18.1805 71.6328 15.7938C73.1844 14.0122 73.5561 11.7889 73.5561 10.6064C73.5561 7.69065 71.6328 6.13985 69.3403 6.13985C67.8578 6.13985 66.932 6.64651 65.9595 7.18066L67.0245 2.73324L67.6729 0.164118L67.5579 0.000787735L65.0329 0.440779L64.8487 0.604111C64.7079 1.66826 64.6162 2.20158 64.3146 3.66156C63.9671 5.37319 63.5754 7.13233 63.1571 8.87064L62.2079 13.1089L60.9805 18.3421L61.0963 18.4805ZM65.5662 8.9873C66.3062 8.52314 67.1412 8.01398 68.322 8.01398C69.8045 8.01398 71.0795 8.82397 71.0795 10.9331C71.0795 12.4131 70.2678 14.4755 68.5545 15.6555C67.0495 16.6747 65.3812 16.6747 64.1762 16.6747L63.8063 16.653L65.5662 8.9873Z" fill="#67B230"/>
<path d="M86.7247 6.62453L86.6072 6.4387L83.4139 6.41537C81.2823 6.41537 78.2948 6.55536 76.1415 9.07615C75.1682 10.232 74.2891 12.2186 74.2891 14.0419C74.2891 16.931 76.2107 18.5977 78.5723 18.5977C80.5415 18.5977 81.5589 17.7393 81.9548 17.4168L81.7931 18.3418L81.9081 18.5035L84.0839 18.4585L84.2472 18.296C84.7097 15.5435 84.8714 14.6661 85.6839 11.1078L86.7247 6.62453ZM82.3023 15.636C82.0473 15.8435 81.7931 16.0752 81.5381 16.236C80.9348 16.606 80.1481 16.7677 79.5223 16.7677C77.4148 16.7677 76.814 14.9886 76.814 13.8802C76.814 13.7652 76.8582 10.7853 79.2915 9.12282C80.6565 8.19784 82.1623 8.152 82.9264 8.152C83.2739 8.152 83.6214 8.17617 83.9689 8.17617L82.3023 15.636Z" fill="#67B230"/>
<path d="M97.6523 15.2616L97.9998 13.6866C98.3022 12.3908 98.7631 10.3517 98.7631 9.14834C98.7631 6.34589 96.2631 6.13756 95.499 6.13756C93.5773 6.13756 92.4198 6.94754 91.5149 7.55087L91.8399 6.36839L91.724 6.20672C90.6124 6.43922 90.3574 6.48505 89.2707 6.62422L89.1066 6.78588C88.7366 9.31084 88.6191 9.91249 87.9949 12.6449L87.6266 14.3824L86.6758 18.3648L86.7916 18.5273L89.1532 18.4582L89.3166 18.3182C90.0574 14.4524 90.3341 13.2241 91.1907 9.33334C91.8857 8.82334 92.8365 8.10502 94.2723 8.10502C95.359 8.10502 96.2173 8.56918 96.2173 9.95833C96.2173 10.515 96.1023 11.07 95.9848 11.6033L95.4056 14.2191L94.434 18.3648L94.5265 18.5273L96.8881 18.4582L97.0739 18.3182L97.6523 15.2616Z" fill="#67B230"/>
<path d="M108.991 8.63908C109.431 8.24575 109.662 8.01325 110.034 7.71159C110.959 6.92494 111.075 6.83244 111.307 6.62411L111.237 6.41495H108.574L108.319 6.55411C107.948 6.94744 105.98 8.98657 105.17 9.77406C104.405 10.5149 104.082 10.8174 103.526 11.3024L105.471 3.03501L106.19 0.209223L106.049 0.0467262L103.526 0.464218L103.363 0.603384C103.156 1.8767 103.038 2.61752 102.598 4.74748C102.276 6.22995 101.952 7.73493 101.603 9.24073L99.4727 18.3656L99.566 18.5039L101.905 18.4572L102.069 18.3181C102.647 15.2615 102.784 14.5673 103.457 11.6265L105.077 14.9148C105.912 16.6039 106.074 16.9289 106.675 18.3656L106.862 18.5039L109.431 18.4339L109.569 18.2497L105.98 11.4182L108.991 8.63908Z" fill="#67B230"/>
</g>
<defs>
<clipPath id="clip0_59_399">
<rect width="111.16" height="24" fill="white" transform="translate(0.148438)"/>
</clipPath>
</defs>
</svg>
