<svg width="125" height="24" viewBox="0 0 125 24" fill="none" xmlns="http://www.w3.org/2000/svg">
<g clip-path="url(#clip0_59_444)">
<path d="M11.7394 19.8319C6.71673 19.352 2.27177 16.9413 0.625 14.1602C0.710536 14.6816 1.30476 15.8205 1.57682 16.5712C1.77534 17.1209 2.0634 17.5686 2.19796 17.972C4.27721 19.4437 6.6629 20.2124 9.94286 20.5258C13.3241 20.8485 16.2976 20.4347 18.6425 19.3153C16.5849 19.8389 14.3183 20.0771 11.7394 19.8319Z" fill="#FFD502"/>
<path d="M7.8247 9.72032C6.09585 7.84065 4.54341 5.94127 3.19907 4.08984C3.01788 4.327 2.81429 4.60493 2.60005 4.91989C2.30454 5.35157 2.06632 5.7566 1.88672 6.09342C3.20947 7.54274 4.67531 9.00592 6.26346 10.4419C10.7892 14.5351 15.1992 17.1918 18.723 19.108C15.5461 16.77 11.6954 13.9241 7.8247 9.72032Z" fill="#FFD502"/>
<path d="M14.972 6.39846C13.6796 3.82598 12.6681 2.12298 11.1791 0.125C10.9859 0.145518 10.6613 0.308064 10.0895 0.397331C9.66099 0.465014 9.22558 0.42078 8.87891 0.55961C11.0506 2.83925 12.8027 5.22414 14.7295 8.65598C16.922 12.5581 18.0214 15.6702 18.945 18.9257C18.5536 15.177 17.4091 11.2495 14.972 6.39846Z" fill="#FFD502"/>
<path d="M12.8586 23.8121C6.57684 23.8121 1.48436 18.8881 1.48436 12.8129C1.48436 6.73818 6.5454 1.99025 12.8277 1.99025C18.9871 1.99025 24.0334 6.54792 24.2266 12.4593C24.2325 12.3074 24.2365 12.1542 24.2365 12.0009C24.2365 5.37227 18.8304 0 12.1612 0C5.49258 0 0.0859375 5.37227 0.0859375 12.0009C0.0859375 18.628 5.49258 24 12.1612 24C13.4613 24 14.7129 23.7948 15.8862 23.4175C14.9221 23.6736 13.9074 23.8121 12.8586 23.8121Z" fill="#005A9E"/>
<path d="M6.35083 6.92233C10.6554 2.5344 17.3525 2.20184 21.3088 6.17995C23.7251 8.61041 24.6849 12.2765 23.8591 15.4208C24.978 11.6796 24.2929 7.43901 21.4516 4.58167C17.2901 0.396521 10.2716 0.658992 5.96685 5.04826C3.13216 7.93837 2.11318 11.9389 2.9363 15.5293C2.81799 12.5147 3.96833 9.35119 6.35083 6.92233Z" fill="#B51E83"/>
<path d="M23.6439 13.0836C23.6084 10.4426 22.599 8.00015 20.7425 6.7219C17.1522 4.25174 11.5744 6.1839 8.09783 11.2617C6.29783 13.8907 5.45739 16.7971 5.56025 19.3325C4.76404 16.3598 5.41982 12.6756 7.60513 9.48385C11.0825 4.40603 17.109 2.49811 21.0676 5.22169C23.4123 6.83462 24.5517 9.73353 24.3297 12.8664C24.3297 12.8664 24.2589 13.7695 24.1744 14.1636C24.0942 14.538 23.8863 15.3493 23.804 15.5881C23.7222 15.8258 23.6439 13.0836 23.6439 13.0836Z" fill="#009066"/>
<path d="M11.7124 11.5501C8.16707 15.3097 7.36447 20.3113 9.9207 22.7216C10.0342 22.8292 10.1525 22.9281 10.2754 23.0213C8.02504 20.771 8.70107 16.4611 11.8142 13.098C14.6753 10.0057 19.5437 8.65416 21.8995 10.8768C23.9764 12.8356 23.6984 16.5957 21.4201 19.7747C24.577 16.0833 25.2021 11.4113 22.7586 9.10769C20.2026 6.69801 15.257 7.79133 11.7124 11.5501Z" fill="#F36F21"/>
<path d="M15.0209 15.3818C12.6341 17.4555 11.836 20.4439 13.2385 22.059C14.3374 23.3236 16.4603 23.3689 18.4756 22.3316C16.7809 23.1123 15.0323 23.0164 14.1005 21.9439C12.8563 20.5121 13.5377 17.8839 15.621 16.073C17.7055 14.2629 20.4027 13.9557 21.6461 15.3879C22.5787 16.4607 22.4303 18.2053 21.4196 19.7745C22.7271 17.9244 22.9795 15.8151 21.8811 14.5507C20.4789 12.937 17.4068 13.3081 15.0209 15.3818Z" fill="#ED1C24"/>
<path d="M42.9018 14.1777C42.0041 14.7348 41.246 14.9049 40.1161 14.9049H38.6615L37.7949 18.9746H36L38.2903 8.28125H41.076C42.3915 8.28125 43.1805 8.48243 43.7068 8.83844C44.3413 9.27171 44.6818 9.96799 44.6818 10.7421C44.6815 12.3361 43.9541 13.5123 42.9018 14.1777ZM41.1066 9.73617H39.7601L38.9711 13.4502H40.364C41.2151 13.4502 41.6795 13.2645 42.0198 12.9085C42.4842 12.4288 42.7627 11.748 42.7627 11.0978C42.7624 10.2161 42.2828 9.73617 41.1066 9.73617Z" fill="#ED1C24"/>
<path d="M49.0795 13.4318C48.9428 13.3497 48.8064 13.3226 48.6015 13.3226C48.1234 13.3226 47.5907 13.6916 46.9899 14.5382L46.0474 18.9767H44.5586L45.5419 14.3605C45.7468 13.4182 45.7329 12.8991 45.5965 12.4211L46.9896 11.8477C47.1396 12.2029 47.1945 12.7217 47.0988 13.1997C47.7272 12.4075 48.4919 11.9023 49.1613 11.9023C49.407 11.9023 49.5301 11.9297 49.7347 12.0115L49.0795 13.4318Z" fill="#ED1C24"/>
<path d="M51.4937 19.141C49.9641 19.141 49.0898 18.2531 49.0898 16.6689C49.0898 14.0058 50.7153 11.9023 53.0096 11.9023C54.5937 11.9023 55.4544 12.8177 55.4544 14.3333C55.4547 16.8603 54.0342 19.141 51.4937 19.141ZM52.7778 13.0498C51.4119 13.0498 50.7017 15.2348 50.7017 16.8056C50.7017 17.6391 51.0977 18.0077 51.7671 18.0077C53.1053 18.0077 53.8293 15.9591 53.8293 14.279C53.8293 13.3501 53.3922 13.0498 52.7778 13.0498Z" fill="#ED1C24"/>
<path d="M64.1616 10.1092C63.682 9.67595 63.1093 9.50567 62.4285 9.50567C61.4844 9.50567 60.6178 10.0165 59.9834 10.8364C59.1011 11.9662 58.5903 14.1172 58.5903 15.417C58.5903 16.9492 59.3641 17.7539 60.7569 17.7539C61.4689 17.7539 62.0725 17.5218 62.846 17.0267L63.4808 18.2032C62.4903 18.8528 61.438 19.1625 60.2776 19.1625C58.0027 19.1625 56.6562 17.7236 56.6562 15.3555C56.6562 13.6378 57.3062 11.5796 58.4048 10.2177C59.5035 8.84057 61.1129 8.09766 62.6915 8.09766C63.7283 8.09766 64.6567 8.42275 65.183 8.94876L64.1616 10.1092Z" fill="#ED1C24"/>
<path d="M68.9933 13.4318C68.8566 13.3497 68.7202 13.3226 68.5152 13.3226C68.0372 13.3226 67.5045 13.6916 66.9036 14.5382L65.9611 18.9767H64.4727L65.4557 14.3605C65.6608 13.4182 65.647 12.8991 65.5103 12.4211L66.9036 11.8477C67.0537 12.2029 67.1086 12.7217 67.0129 13.1997C67.641 12.4075 68.406 11.9023 69.0751 11.9023C69.3211 11.9023 69.4439 11.9297 69.6485 12.0115L68.9933 13.4318Z" fill="#ED1C24"/>
<path d="M74.4811 15.1799C73.9076 15.74 72.9651 16.0539 71.5446 16.0539C71.1619 16.0539 70.8344 15.9993 70.7116 15.9993C70.6842 16.136 70.6295 16.5045 70.6295 16.7233C70.6295 17.584 71.1348 17.9938 71.8859 17.9938C72.6099 17.9938 73.1972 17.7476 73.8389 17.2421L74.3033 18.1713C73.4701 18.8406 72.6507 19.1543 71.4897 19.1543C70.0148 19.1543 69.0312 18.2669 69.0312 16.6279C69.0312 15.2484 69.6321 13.7596 70.5746 12.8448C71.2573 12.1891 72.0224 11.9023 72.91 11.9023C74.2484 11.9023 75.0953 12.5171 75.0953 13.746C75.0958 14.3059 74.877 14.7978 74.4811 15.1799ZM72.7194 13.0223C71.9408 13.0223 71.2581 13.6371 70.9576 14.9345C71.0396 14.9345 71.3263 14.9753 71.5587 14.9753C72.3917 14.9753 72.9651 14.8524 73.2931 14.5247C73.4706 14.3472 73.5799 14.1287 73.5799 13.842C73.5796 13.3772 73.3475 13.0223 72.7194 13.0223Z" fill="#ED1C24"/>
<path d="M81.541 16.5742C81.2269 18.0358 81.2815 18.4725 81.4728 18.8003L80.189 19.1006C80.0115 18.8826 79.9022 18.541 79.9294 18.104C79.3967 18.7593 78.6866 19.1147 77.8944 19.1147C76.5149 19.1147 75.8594 18.2951 75.8594 16.7381C75.8594 15.3586 76.4056 13.8834 77.3753 12.9273C78.0308 12.2857 78.891 11.9577 79.6835 11.9577C80.2979 11.9577 80.776 12.0531 81.0083 12.1762C81.0083 12.1077 81.1312 11.4796 81.1858 11.2475L81.6774 8.92578L83.1116 9.17146L81.541 16.5742ZM79.6291 13.1733C79.1918 13.1733 78.7005 13.3918 78.3724 13.8014C77.8123 14.4843 77.4302 15.8228 77.4302 16.7653C77.4302 17.5162 77.7031 17.9124 78.2632 17.9124C78.8366 17.9124 79.5881 17.4069 80.0115 16.6835L80.708 13.4467C80.4213 13.2554 80.1343 13.1733 79.6291 13.1733Z" fill="#ED1C24"/>
<path d="M84.6428 18.9778H83.1133L84.561 12.149L86.1318 11.9169L84.6428 18.9778ZM85.7766 11.0701C85.2301 11.0701 84.7795 10.6195 84.7795 10.0729C84.7795 9.5131 85.2301 9.0625 85.7902 9.0625C86.3365 9.0625 86.7735 9.5131 86.7735 10.0594C86.7735 10.6195 86.3362 11.0701 85.7766 11.0701Z" fill="#ED1C24"/>
<path d="M90.6352 13.1301H89.3103L88.532 16.8447C88.4774 17.1042 88.4499 17.3363 88.4499 17.514C88.4499 17.9513 88.6548 18.088 89.0918 18.088C89.3101 18.088 89.5699 18.047 89.7881 17.9511V18.88C89.3101 19.071 88.8323 19.1667 88.3542 19.1667C87.4256 19.1667 86.9062 18.702 86.9062 18.0057C86.9062 17.76 86.9337 17.4045 87.0019 17.0629L87.8349 13.1298H87.0565L87.2748 12.0645H88.0534C88.1901 11.4364 88.3265 10.9038 88.504 10.3844L90.102 10.0156C89.9107 10.6029 89.6786 11.409 89.5419 12.0642H91.1943L90.6352 13.1301Z" fill="#ED1C24"/>
<path d="M100.47 13.3106C101.6 13.5272 102.173 14.3938 102.173 15.4618C102.173 16.2508 101.786 17.2258 101.012 17.9535C100.207 18.6962 99.3563 18.9746 97.5763 18.9746H94.1719L96.4627 8.28125H99.805C101.832 8.28125 102.808 9.16353 102.808 10.6025C102.807 11.7635 102.08 12.8621 100.47 13.3106ZM98.5361 14.1619H96.9575L96.2455 17.5202H97.948C98.5825 17.5202 99.0466 17.35 99.4026 17.1021C99.8668 16.7773 100.223 16.112 100.223 15.4466C100.223 14.5952 99.8048 14.1619 98.5361 14.1619ZM99.3563 9.78253H97.8705L97.2672 12.6918H98.8146C99.4802 12.6918 99.8826 12.5679 100.192 12.3201C100.579 12.0107 100.857 11.5466 100.857 10.9585C100.857 10.1849 100.486 9.78253 99.3563 9.78253Z" fill="#ED1C24"/>
<path d="M109.101 14.0056L108.541 16.7371C108.363 17.5701 108.446 17.9256 108.787 18.2941L107.558 19.2092C107.189 18.9089 107.039 18.5265 107.039 18.0756C106.547 18.745 105.851 19.141 104.963 19.141C103.884 19.141 103.16 18.417 103.16 16.9421C103.16 15.4125 103.734 13.9374 104.621 13.0223C105.359 12.2711 106.26 11.9023 107.366 11.9023C108.159 11.9023 108.965 12.0662 109.511 12.4212C109.388 12.8035 109.197 13.5137 109.101 14.0056ZM107.189 13.0903C106.574 13.0903 106.138 13.227 105.605 13.855C104.99 14.5929 104.703 15.9311 104.703 16.9008C104.703 17.6522 104.949 17.9389 105.454 17.9389C106.083 17.9389 106.779 17.3106 107.093 16.6138L107.831 13.2267C107.694 13.1449 107.421 13.0903 107.189 13.0903Z" fill="#ED1C24"/>
<path d="M116.382 14.033L115.331 18.977H113.841L114.811 14.4018C114.88 14.1012 114.907 13.8827 114.907 13.7324C114.907 13.3364 114.729 13.1861 114.36 13.1861C113.869 13.1861 113.186 13.5275 112.462 14.4697L111.506 18.9767H110.031L111.041 14.1966C111.205 13.391 111.219 12.9263 111.069 12.4211L112.463 11.8477C112.599 12.1618 112.681 12.667 112.585 13.1451C113.241 12.3529 114.115 11.9161 115.071 11.9161C115.931 11.9161 116.45 12.4485 116.45 13.2818C116.45 13.5139 116.436 13.8006 116.382 14.033Z" fill="#ED1C24"/>
<path d="M120.449 11.3158L118.811 18.9778H117.309L118.934 11.3432C119.125 10.4692 119.152 9.78625 119.043 9.36283L120.6 8.84375C120.723 9.22613 120.709 10.1004 120.449 11.3158ZM121.228 15.0716L123.304 18.8827L121.624 19.0737L119.698 15.0309L122.553 11.9444L124.164 12.2172L121.228 15.0716Z" fill="#ED1C24"/>
</g>
<defs>
<clipPath id="clip0_59_444">
<rect width="124.077" height="24" fill="white" transform="translate(0.0859375)"/>
</clipPath>
</defs>
</svg>
