<svg width="125" height="24" viewBox="0 0 125 24" fill="none" xmlns="http://www.w3.org/2000/svg">
<g clip-path="url(#clip0_59_373)">
<path d="M21.8666 0.00352992L17.161 10.1665C8.96046 12.9586 8.82177 7.27625 3.45773 8.05151L0.304688 1.23784C9.61714 -2.1156 15.6063 2.71138 21.8666 0.00352992Z" fill="#0088FF"/>
<path d="M16.0489 12.5641L10.7982 23.9097L5.54688 12.5641H8.3532L10.7982 17.8484L13.2436 12.5641H16.0489ZM17.6216 15.0105H19.3084C19.3084 15.0105 17.6414 15.6207 17.6216 17.191V22.7822H20.3496V12.5759H17.6216V15.0105ZM36.1609 19.6024V14.8708H38.2991V12.5745H36.1609V9.87876H33.4718V12.5745H32.097V14.8708H33.4718V19.6208C33.4718 20.8773 33.7236 21.7377 34.2272 22.2021C34.8152 22.6965 35.5707 22.9459 36.3374 22.8986C37.0166 22.9315 37.6945 22.8108 38.3206 22.5453V20.3489C37.8926 20.5048 37.4405 20.5843 36.985 20.5836C36.4356 20.5836 36.1607 20.2566 36.1609 19.6024ZM54.6235 13.4399C53.992 14.0887 53.5977 14.9316 53.5043 15.8322V12.5731H50.8346V22.7794H53.5043V18.3074C53.6074 17.3946 54.0443 16.552 54.731 15.9418C55.317 15.3543 56.1096 15.0195 56.9392 15.0091C57.3451 15.0091 57.7118 15.0159 58.0394 15.0296V12.5367C57.6806 12.4984 57.3201 12.4785 56.9594 12.4771C56.5245 12.4666 56.0923 12.5468 55.6902 12.7125C55.288 12.8782 54.9248 13.1258 54.6235 13.4395M59.0202 15.0102H60.7084C60.7084 15.0102 59.0202 15.6273 59.0202 17.2184V22.7818H61.7485V12.5759H59.0202V15.0102ZM115.375 17.2468L119.83 12.5755H116.434L113.019 16.2271V9.88015H110.33V22.7822H113.019V19.7404L113.805 18.9152L117.416 22.7825H120.693L115.375 17.2468ZM49.4249 17.6792C49.419 18.7047 49.1095 19.7056 48.5354 20.5555C47.9613 21.4053 47.1484 22.0661 46.1992 22.4545C45.25 22.8428 44.207 22.9414 43.2019 22.7376C42.1967 22.5339 41.2744 22.037 40.5514 21.3097C39.8283 20.5824 39.3368 19.6572 39.139 18.6509C38.9412 17.6446 39.0458 16.6022 39.4397 15.6553C39.8336 14.7084 40.4992 13.8993 41.3524 13.3302C42.2056 12.7612 43.2082 12.4575 44.2338 12.4576C44.9175 12.4596 45.5942 12.5962 46.2251 12.8597C46.856 13.1232 47.4288 13.5083 47.9109 13.9932C48.3929 14.4781 48.7747 15.0532 49.0345 15.6856C49.2943 16.318 49.4269 16.9955 49.4249 17.6792ZM46.7447 17.6899C46.7447 16.0905 45.6207 14.7942 44.2338 14.7942C42.847 14.7942 41.7226 16.0905 41.7226 17.6899C41.7226 19.2893 42.8459 20.5843 44.2338 20.5843C45.6217 20.5843 46.7447 19.2879 46.7447 17.6899ZM28.8414 19.6867C28.6221 19.9625 28.3442 20.1861 28.0279 20.3413C27.7116 20.4965 27.3647 20.5796 27.0124 20.5843C25.6179 20.5843 24.4863 19.2879 24.4863 17.6899C24.4863 16.0919 25.6176 14.7942 27.0124 14.7942C27.3632 14.7992 27.7085 14.8818 28.0237 15.0359C28.3388 15.19 28.616 15.4118 28.8355 15.6856L31.2701 14.6572L31.2718 14.6589C30.6316 13.7562 29.7211 13.0802 28.6717 12.7286C27.6222 12.377 26.4882 12.3679 25.4334 12.7028C24.3785 13.0376 23.4573 13.699 22.8027 14.5914C22.1482 15.4838 21.7941 16.5612 21.7917 17.6679C21.7893 18.7747 22.1387 19.8536 22.7893 20.7489C23.44 21.6441 24.3583 22.3095 25.4117 22.6489C26.4652 22.9883 27.5992 22.9842 28.6501 22.6372C29.701 22.2901 30.6145 21.6181 31.2587 20.7181L28.8414 19.6867ZM122.711 12.5766C123.028 12.575 123.336 12.4798 123.598 12.3029C123.861 12.1261 124.065 11.8756 124.185 11.5829C124.304 11.2903 124.335 10.9687 124.272 10.6587C124.21 10.3488 124.057 10.0643 123.833 9.84117C123.608 9.61808 123.323 9.46639 123.013 9.40522C122.703 9.34406 122.381 9.37617 122.089 9.49751C121.797 9.61885 121.548 9.82397 121.372 10.087C121.196 10.35 121.103 10.6592 121.103 10.9754C121.102 11.1866 121.143 11.3958 121.223 11.5909C121.304 11.786 121.423 11.9632 121.572 12.1122C121.722 12.2611 121.9 12.3789 122.095 12.4586C122.291 12.5383 122.5 12.5784 122.711 12.5766ZM122.711 12.33C122.444 12.3283 122.183 12.2474 121.961 12.0975C121.74 11.9477 121.567 11.7355 121.466 11.4878C121.365 11.2402 121.339 10.9681 121.392 10.7059C121.446 10.4437 121.575 10.2031 121.765 10.0145C121.955 9.82596 122.196 9.6978 122.459 9.64623C122.721 9.59466 122.993 9.62199 123.24 9.72477C123.487 9.82755 123.698 10.0012 123.847 10.2237C123.995 10.4463 124.075 10.7079 124.075 10.9754C124.072 11.3353 123.927 11.6795 123.672 11.9332C123.416 12.1869 123.071 12.3295 122.711 12.33ZM122.945 11.0326C123.257 11.025 123.499 10.8971 123.499 10.5531C123.499 10.1755 123.192 10.0885 122.875 10.0885H122.113V11.8419H122.359V11.0326H122.656L123.18 11.8419H123.475L122.945 11.0326ZM122.358 10.7865V10.3357H122.826C123.015 10.3357 123.253 10.3704 123.253 10.549C123.253 10.8263 122.872 10.7865 122.654 10.7865H122.358ZM73.3996 12.5759V22.7822H70.7098V21.7073C70.3756 22.1061 69.9543 22.4229 69.4784 22.6333C69.0025 22.8437 68.4847 22.942 67.9648 22.9208C65.3509 22.9208 63.2325 20.5784 63.2325 17.6903C63.2325 14.8021 65.3509 12.4587 67.9648 12.4587C68.9637 12.4624 69.9317 12.8058 70.7098 13.4323V12.5769L73.3996 12.5759ZM70.8277 17.6892C70.8277 16.0794 70.0493 14.774 68.375 14.774C67.0197 14.774 65.9209 16.0794 65.9209 17.6892C65.9209 19.299 67.0193 20.6041 68.375 20.6041C70.0493 20.6041 70.8277 19.299 70.8277 17.6892ZM96.5852 12.5759V22.7822H93.8954V21.7073C93.5608 22.1062 93.1392 22.4231 92.6629 22.6334C92.1867 22.8438 91.6686 22.9421 91.1484 22.9208C88.5352 22.9208 86.4181 20.5784 86.4181 17.6903C86.4181 14.8021 88.5355 12.4587 91.1484 12.4587C92.148 12.462 93.1168 12.8053 93.8954 13.4323V12.5769L96.5852 12.5759ZM94.0133 17.6892C94.0133 16.0794 93.2352 14.774 91.5596 14.774C90.2049 14.774 89.1065 16.0794 89.1065 17.6892C89.1065 19.299 90.2049 20.6041 91.5596 20.6041C93.2352 20.6041 94.0133 19.299 94.0133 17.6892ZM78.0401 9.88015V13.4312C78.8188 12.8046 79.7875 12.4613 80.7871 12.4576C83.3999 12.4576 85.5173 14.7997 85.5173 17.6892C85.5173 20.5788 83.3996 22.9198 80.7871 22.9198C80.2669 22.941 79.7488 22.8427 79.2725 22.6323C78.7963 22.4219 78.3747 22.1051 78.0401 21.7063V22.7811H75.3516V9.88015H78.0401ZM80.3755 20.6041C81.7312 20.6041 82.8296 19.299 82.8296 17.6892C82.8296 16.0794 81.7315 14.774 80.3755 14.774C78.7002 14.774 77.9232 16.0794 77.9232 17.6892C77.9232 19.299 78.7005 20.6041 80.3755 20.6041ZM104.542 12.4774C102.663 12.4774 101.657 13.313 101.199 14.5525V12.5762H98.5102V22.7825H101.199V17.0984C101.546 15.8943 102.629 14.7734 103.725 14.7734C105.451 14.7734 105.753 15.9453 105.753 17.3907V22.7822H108.442V16.6044C108.442 14.3257 106.695 12.4784 104.541 12.4784" fill="#171CB3"/>
</g>
<defs>
<clipPath id="clip0_59_373">
<rect width="124" height="24" fill="white" transform="translate(0.304688)"/>
</clipPath>
</defs>
</svg>
