<svg width="102" height="32" viewBox="0 0 102 32" fill="none" xmlns="http://www.w3.org/2000/svg">
<g clip-path="url(#clip0_59_500)">
<path fill-rule="evenodd" clip-rule="evenodd" d="M38.5824 13.696C38.3793 13.5467 38.2074 13.3577 38.0765 13.1401C37.9456 12.9225 37.8584 12.6806 37.8199 12.4284L36.2956 13.6727L34.8127 12.816C34.6816 12.7266 34.5309 12.6717 34.374 12.656C34.3351 12.6564 34.2968 12.6653 34.2616 12.6822C34.2264 12.699 34.1952 12.7233 34.17 12.7535C34.1115 12.8166 34.0797 12.9008 34.0816 12.9876C34.0878 13.0627 34.1054 13.1362 34.1336 13.2058C34.1628 13.2786 34.1804 13.3557 34.1857 13.4342C34.1894 13.4679 34.1854 13.5021 34.1739 13.534C34.1624 13.5659 34.1437 13.5946 34.1194 13.6179C34.0951 13.6411 34.0658 13.6582 34.0338 13.6679C34.0019 13.6775 33.9681 13.6794 33.9353 13.6735C33.8996 13.6737 33.8642 13.6657 33.8319 13.6499C33.7997 13.6341 33.7714 13.6111 33.7492 13.5824C33.7271 13.5538 33.7116 13.5204 33.7041 13.4847C33.6965 13.4491 33.6971 13.4121 33.7056 13.3767C33.747 13.035 33.8729 12.7097 34.0716 12.4313L34.9988 10.9236C34.4138 10.4131 34.0224 9.70991 33.8925 8.936L33.8711 8.68436C33.8787 8.01829 34.1365 7.38054 34.5916 6.90255C34.8182 6.64405 35.097 6.43869 35.4089 6.30058C35.7208 6.16248 36.0584 6.09492 36.3983 6.10255C37.1601 6.11329 37.8974 6.3782 38.4975 6.85673C38.7926 6.45904 39.2068 6.17027 39.6773 6.03418L39.698 6.05746C39.5586 6.20291 39.4398 6.33624 39.3413 6.45745C39.2563 6.56167 39.1795 6.67256 39.1116 6.78909C38.9543 7.07479 38.875 7.39826 38.882 7.72582L38.9654 11.5978C38.9357 11.9971 39.0471 12.3941 39.2793 12.7171L39.6131 12.4429L39.77 12.6262L38.5824 13.696ZM36.1387 6.99127C35.8913 6.98415 35.6451 7.02687 35.414 7.11697C35.1829 7.20708 34.9715 7.3428 34.792 7.51636C34.6007 7.69353 34.4493 7.91089 34.3483 8.15347C34.2473 8.39604 34.1992 8.65806 34.2071 8.92146C34.218 9.27162 34.3062 9.61477 34.4653 9.92531C34.6244 10.2358 34.8501 10.5058 35.1258 10.7149L36.5146 8.48727C36.4712 8.40205 36.405 8.33108 36.3237 8.28257C36.2424 8.23405 36.1494 8.20997 36.0552 8.21309L35.8883 8.23564C35.752 8.25775 35.6232 8.31424 35.5137 8.39997C35.4042 8.4857 35.3175 8.59795 35.2613 8.72655C35.2538 8.5684 35.2809 8.41052 35.3406 8.26436C35.4003 8.11819 35.4912 7.9874 35.6066 7.88145C35.8393 7.69027 36.1326 7.59272 36.4311 7.60727C36.6314 7.60544 36.8311 7.6284 37.026 7.67564L37.2771 7.26473C36.9211 7.09176 36.5329 6.99852 36.1387 6.99127ZM37.8306 11.1258H35.2093L34.8227 11.7425L36.9532 12.816L37.8306 12.0393V11.1273V11.1258ZM37.7885 7.81309L37.5795 7.48218H37.4961L35.7314 10.3273H37.7885V7.81309ZM43.5226 8.63564L42.5718 10.0407L43.5533 10.7033V12.8051C43.3142 12.8904 43.0864 13.0054 42.8749 13.1476L42.6346 13.3127C42.5304 13.3855 42.4051 13.4749 42.2587 13.5811C41.9369 13.3943 41.5746 13.2924 41.2044 13.2844C40.8384 13.2937 40.4786 13.3833 40.1495 13.5469L40.014 13.4436L41.2565 11.5018L40.2536 10.896V9.13818C40.7322 8.90147 41.1667 8.58153 41.5375 8.19273C41.9441 8.44671 42.4004 8.6066 42.8742 8.66109L43.1453 8.62691C43.2478 8.62472 43.3454 8.58164 43.417 8.50691C43.4563 8.472 43.4878 8.42898 43.5094 8.3807C43.531 8.33242 43.5424 8.27999 43.5426 8.22691C43.5014 8.0648 43.4226 7.91515 43.3129 7.79055L43.2608 7.68727C43.2608 7.56558 43.3443 7.50473 43.5112 7.50473C43.72 7.50473 43.8243 7.64558 43.8243 7.92727C43.788 8.18674 43.6838 8.43144 43.5226 8.63564ZM42.029 10.8284L40.8713 12.4735C41.0944 12.4242 41.3222 12.4013 41.5504 12.4051C41.9452 12.4138 42.332 12.5195 42.6781 12.7135L42.6881 11.1942L42.029 10.8284ZM42.5411 9.32073C42.4434 9.32873 42.3386 9.33236 42.2273 9.33236C41.8659 9.32274 41.5104 9.23707 41.183 9.08073L41.1731 10.3942L41.7986 10.7491L42.8115 9.28727C42.722 9.30314 42.6318 9.31431 42.5411 9.32073ZM46.0947 13.6269C45.5432 13.1846 44.9002 12.876 44.2145 12.7244C44.3207 12.6069 44.4011 12.4678 44.4503 12.3161C44.4995 12.1645 44.5164 12.0039 44.4998 11.8451V9.13818C45.0621 8.96694 45.5722 8.65229 45.982 8.224C46.471 8.61206 47.038 8.88523 47.6426 9.024V12.7476C47.0697 12.922 46.5413 13.2224 46.0947 13.6276V13.6269ZM46.6582 9.58327L45.4578 9.08073V12.2335C45.5755 12.2873 45.696 12.3404 45.8144 12.3935C45.9328 12.4465 46.0641 12.5004 46.196 12.5535C46.3772 12.6296 46.5303 12.6865 46.6554 12.7244V9.58327H46.6582ZM50.3737 13.0785L49.7467 13.5811C49.321 13.2396 48.8304 12.9919 48.3059 12.8538C48.4053 12.7458 48.4816 12.618 48.5301 12.4785C48.5786 12.3389 48.5982 12.1906 48.5877 12.0429V9.13382C48.8244 9.02748 49.0502 8.89738 49.2617 8.74545C49.4777 8.59006 49.6818 8.41817 49.8723 8.23127L50.9287 8.94545L50.48 9.64218L49.5399 9.06036V12.304L50.4593 12.8065L50.908 12.4429L51.0128 12.5687C50.7955 12.7413 50.5825 12.9113 50.3737 13.0785ZM52.4423 13.6153C52.2299 13.515 52.0528 13.3505 51.9352 13.1442C51.8176 12.9379 51.765 12.6996 51.7846 12.4618L51.7953 12.256V9.27418L51.4922 8.92L52.2654 8.22327L53.0692 8.95418L52.8082 9.27418V12.4364C52.8281 12.515 52.8646 12.5882 52.9151 12.651C52.9656 12.7138 53.0289 12.7647 53.1006 12.8L53.2882 12.6633L53.3931 12.7665L52.4423 13.6153ZM52.234 7.70982H52.0985L52.3552 6.54545H53.1277L52.234 7.70982ZM56.7569 13.592C56.5418 13.472 56.3647 13.2919 56.2463 13.073C56.128 12.854 56.0733 12.6052 56.0886 12.3556L54.6691 13.6007H54.6171C54.4047 13.4192 54.2298 13.1966 54.1024 12.9457C53.9751 12.6947 53.8979 12.4205 53.8753 12.1389C53.8995 11.7405 54.0038 11.3514 54.1816 10.9957C54.3594 10.6401 54.6069 10.3254 54.9088 10.0713L54.4095 8.64364L54.545 8.65455C54.7459 8.6701 54.9475 8.63801 55.1341 8.56078C55.3207 8.48356 55.4873 8.36331 55.6207 8.20945L57.1036 8.74618L57.3953 8.49527L57.4167 8.54109C57.2528 8.81326 57.1324 9.11032 57.0601 9.42109V12.4138C57.0729 12.4943 57.1069 12.5697 57.1584 12.632C57.2099 12.6944 57.277 12.7414 57.3525 12.768L57.5401 12.6647L57.6557 12.768L56.7569 13.592ZM56.0886 9.36582L54.575 8.74909L55.013 10.0509L56.0886 10.6218V9.36582ZM56.0993 10.8284L55.013 10.2342C54.8252 10.5772 54.7214 10.9615 54.7105 11.3542C54.7203 11.896 54.9376 12.4123 55.3161 12.7927L56.1007 12.0655V10.8291L56.0993 10.8284ZM59.4582 8.96655V12.2909L60.0124 12.7935L60.3041 12.5425L60.4197 12.7025L59.4796 13.5935C59.0931 13.2291 58.6479 12.9353 58.1635 12.7251C58.3582 12.4981 58.4603 12.2038 58.4488 11.9025V8.95564H58.0836L58.0943 8.79564L59.4496 6.93382L59.4596 8.384H60.5252V8.96582H59.4596L59.4582 8.96655ZM61.9782 13.6153C61.7658 13.515 61.5888 13.3505 61.4711 13.1442C61.3535 12.9379 61.3009 12.6996 61.3205 12.4618L61.3305 12.256V9.27418L61.0281 8.92L61.8013 8.22327L62.6052 8.95418L62.3441 9.27418V12.4364C62.364 12.5149 62.4005 12.5881 62.4508 12.6508C62.5012 12.7136 62.5643 12.7645 62.6358 12.8L62.8242 12.6633L62.929 12.7665L61.9782 13.6153ZM61.7706 7.70909H61.6351L61.8862 6.54545H62.6587L61.7706 7.70909ZM66.2943 13.5913C66.0792 13.4712 65.9021 13.2912 65.7837 13.0722C65.6653 12.8533 65.6106 12.6044 65.6259 12.3549L64.2058 13.6H64.1537C63.9415 13.4184 63.7666 13.1957 63.6393 12.9448C63.512 12.6939 63.4347 12.4197 63.4119 12.1382C63.4364 11.7397 63.5407 11.3506 63.7187 10.995C63.8966 10.6393 64.1442 10.3247 64.4462 10.0705L63.9469 8.64291L64.0824 8.65382C64.2832 8.66949 64.4849 8.63744 64.6715 8.56021C64.8582 8.48298 65.0247 8.36267 65.158 8.20873L66.641 8.74545L66.9334 8.49455L66.9541 8.54036C66.7901 8.81252 66.6697 9.10958 66.5974 9.42036V12.4131C66.6102 12.4935 66.644 12.5689 66.6954 12.6312C66.7467 12.6936 66.8137 12.7406 66.8892 12.7673L67.0775 12.664L67.1916 12.7709L66.2943 13.5913ZM65.6259 9.36509L64.1116 8.74836L64.5503 10.0502L65.6259 10.6211V9.36655V9.36509ZM65.6366 10.8276L64.5503 10.2335C64.3625 10.5765 64.2588 10.9607 64.2479 11.3535C64.2576 11.8952 64.475 12.4116 64.8535 12.792L65.6381 12.0647V10.8284L65.6366 10.8276ZM75.2018 12.9178C74.9227 13.0633 74.5014 13.3183 73.9379 13.6829C73.7567 13.6145 73.6019 13.5573 73.4735 13.5113C73.3451 13.4652 73.246 13.431 73.1761 13.4087C72.759 13.2626 72.3217 13.1855 71.8807 13.1804C71.6003 13.1781 71.3215 13.2244 71.0562 13.3171C70.9172 13.3397 70.7874 13.4022 70.6819 13.4973C70.5765 13.5923 70.4997 13.716 70.4606 13.8538L70.4399 13.9338C70.4459 14.0387 70.4651 14.1423 70.497 14.2422C70.529 14.3421 70.5484 14.4457 70.5548 14.5505C70.5582 14.5833 70.5542 14.6165 70.5432 14.6475C70.5323 14.6785 70.5146 14.7065 70.4914 14.7296C70.4683 14.7526 70.4403 14.77 70.4097 14.7804C70.379 14.7909 70.3464 14.7941 70.3144 14.7898H70.2623C70.1853 14.762 70.1197 14.7086 70.0761 14.6381C70.0325 14.5677 70.0134 14.4843 70.0219 14.4015C70.0472 14.1218 70.1444 13.8539 70.3037 13.6247C70.3736 13.5486 70.4573 13.4516 70.5548 13.3338L70.8993 12.9171C71.1072 12.6616 71.2441 12.354 71.2959 12.0262V11.9367C71.3037 11.8929 71.3017 11.8479 71.2898 11.805C71.2779 11.7622 71.2565 11.7227 71.2273 11.6896C71.1981 11.6565 71.1618 11.6307 71.1212 11.6142C71.0807 11.5976 71.037 11.5908 70.9934 11.5942C70.7709 11.6406 70.5734 11.7704 70.4399 11.9578L70.4192 11.7396C70.4277 11.504 70.5206 11.2798 70.6803 11.1093C70.84 10.9388 71.0554 10.834 71.2859 10.8145L71.2959 10.6691C71.3244 10.5162 71.3006 10.3579 71.2284 10.2208C71.1562 10.0836 71.04 9.97588 70.8993 9.91564C70.7814 9.86164 70.6523 9.83815 70.5234 9.84727C70.2872 9.85052 70.0549 9.90899 69.8443 10.0182C69.8985 9.71982 70.0629 9.45404 70.3037 9.27564C70.5413 9.11322 70.8223 9.02941 71.1083 9.03564C71.111 8.62747 71.2045 8.22525 71.3818 7.85928C71.5591 7.49332 71.8156 7.17316 72.1318 6.92291L72.1104 6.87709C71.929 6.95985 71.7346 7.0091 71.5362 7.02255C71.3921 7.01342 71.2507 6.97871 71.1182 6.92C70.9998 6.87418 70.9043 6.84 70.8329 6.81673C70.7903 6.80376 70.7484 6.78847 70.7074 6.77091L70.457 6.73673C70.3136 6.74795 70.1757 6.79847 70.0581 6.88296C69.9404 6.96745 69.8474 7.08276 69.7887 7.21673C69.836 6.87647 69.9815 6.55826 70.2067 6.30255C70.313 6.1773 70.4444 6.07677 70.592 6.00776C70.7397 5.93876 70.9002 5.90288 71.0626 5.90255C71.2537 5.90855 71.4433 5.93934 71.6268 5.99418C71.9248 6.09926 72.2327 6.17239 72.5455 6.21236H72.5976C72.9501 6.17241 73.2971 6.0919 73.6319 5.97236C73.2128 6.21532 72.8524 6.55078 72.5769 6.95418C72.3378 7.40155 72.2257 7.908 72.2531 8.41673V10.1985C72.2684 10.6729 72.2122 11.1468 72.0862 11.6036C71.93 12.0397 71.7081 12.4482 71.4285 12.8145L71.4599 12.8487C71.874 12.6059 72.2184 12.2563 72.4583 11.8351C72.6983 11.4139 72.8255 10.9358 72.8273 10.4487V8.52145C72.7945 7.9817 72.9221 7.44441 73.1932 6.97964C73.52 6.56577 73.9653 6.26626 74.4671 6.12291C74.7402 6.01104 75.0293 5.94545 75.3231 5.92873C75.5064 5.92166 75.6879 5.96916 75.8452 6.06545C76.0198 6.17702 76.1616 6.3347 76.2554 6.52178C76.3492 6.70886 76.3916 6.91834 76.378 7.128C76.3195 7.71156 76.0518 8.25256 75.6262 8.64727C75.5706 8.70836 75.5093 8.77673 75.4436 8.85309C75.378 8.92945 75.306 9.00945 75.2296 9.09309C76.1488 9.19976 76.6084 9.61867 76.6084 10.3498V12.4291C76.1244 12.5407 75.6536 12.7051 75.204 12.9193L75.2018 12.9178ZM74.5542 6.49891C74.3101 6.54183 74.0911 6.67787 73.9418 6.8794C73.7925 7.08094 73.724 7.33286 73.7503 7.584V9.81164C73.7874 10.331 73.6889 10.8512 73.465 11.3193C73.1715 11.734 72.7848 12.0709 72.3373 12.3018L72.3479 12.3476C72.6612 12.2855 72.979 12.2509 73.298 12.2444C73.5909 12.2377 73.8831 12.2762 74.1647 12.3585V8.24727H74.363V9.424C74.655 9.28431 74.9039 9.0656 75.0825 8.79169C75.2611 8.51779 75.3626 8.19918 75.3759 7.87055C75.3748 7.58757 75.2979 7.31027 75.1534 7.06864C75.009 6.82701 74.8025 6.63025 74.5563 6.49964L74.5542 6.49891ZM75.3787 9.64C75.2753 9.48741 75.1246 9.37471 74.9507 9.32C74.7405 9.44658 74.5444 9.59606 74.3658 9.76582V10.3273L74.7631 10.4131C74.8147 10.4254 74.8668 10.4349 74.9193 10.4415C75.1026 10.4229 75.2821 10.3768 75.4522 10.3047L75.4622 10.1593C75.4831 9.98207 75.455 9.80243 75.3809 9.64073L75.3787 9.64ZM75.4501 10.5309C75.3523 10.5462 75.2582 10.5593 75.1683 10.5709C75.0781 10.582 74.9874 10.5876 74.8965 10.5876C74.8178 10.587 74.7392 10.5814 74.6611 10.5709L74.3637 10.5309V11.3876C74.4983 11.3646 74.6345 11.3532 74.771 11.3535H75.1576C75.256 11.3543 75.354 11.3657 75.4501 11.3876V10.5316V10.5309ZM75.4501 11.616C75.263 11.544 75.0651 11.5054 74.8652 11.5018C74.893 11.5018 74.8652 11.5076 74.7817 11.5185C74.6982 11.5295 74.5584 11.5513 74.3637 11.5811V12.4509C74.6005 12.5425 74.7881 12.6109 74.9279 12.6567C74.9835 12.6267 75.0549 12.5867 75.1419 12.5367C75.2289 12.4868 75.3316 12.4315 75.4501 12.3709V11.616ZM80.0151 13.592C79.8 13.472 79.6229 13.2919 79.5045 13.073C79.3861 12.854 79.3314 12.6052 79.3467 12.3556L77.9266 13.6007H77.8745C77.6623 13.4191 77.4876 13.1964 77.3604 12.9455C77.2331 12.6946 77.156 12.4204 77.1334 12.1389C77.1577 11.7405 77.2619 11.3514 77.4397 10.9957C77.6175 10.6401 77.865 10.3254 78.167 10.0713L77.6676 8.64364L77.8032 8.65455C78.004 8.67021 78.2057 8.63817 78.3923 8.56094C78.579 8.48371 78.7455 8.3634 78.8788 8.20945L80.3617 8.74618L80.6542 8.49527L80.6749 8.54109C80.5109 8.81325 80.3905 9.1103 80.3182 9.42109V12.4138C80.3309 12.4943 80.3649 12.5698 80.4164 12.6322C80.4679 12.6946 80.535 12.7415 80.6107 12.768L80.7983 12.6647L80.9131 12.768L80.0151 13.592ZM79.3467 9.36582L77.8324 8.74909L78.2711 10.0509L79.3467 10.6218V9.36582ZM79.3574 10.8284L78.2711 10.2342C78.0833 10.5772 77.9795 10.9615 77.9687 11.3542C77.9784 11.896 78.1958 12.4123 78.5742 12.7927L79.3588 12.0655V10.8291L79.3574 10.8284ZM84.6293 13.6269C84.4137 13.4907 84.2386 13.297 84.1229 13.0669C84.0254 12.8086 83.981 12.5326 83.9924 12.256V9.52727L83.523 9.08146L82.7812 9.67564V12.5091L83.0629 12.8975L82.3133 13.6276L81.5194 12.8967L81.8118 12.5425V9.60655C81.8104 9.50548 81.7872 9.40596 81.7438 9.31508C81.7004 9.2242 81.6379 9.14419 81.5608 9.08073L81.3939 9.20655L81.2897 9.08073L82.1457 8.224C82.3501 8.3461 82.5189 8.52162 82.6347 8.73243C82.7504 8.94325 82.8089 9.18173 82.804 9.42327C83.0955 9.18715 83.353 8.96897 83.5765 8.76873C83.8 8.56849 83.9878 8.39321 84.14 8.24291L84.8604 8.97382L85.3098 8.58545L85.4139 8.71127C85.3379 8.81794 85.2613 8.93212 85.1843 9.05382C85.1079 9.17527 85.0309 9.30182 84.9546 9.43055V12.4364C85.0132 12.5853 85.1153 12.7123 85.247 12.8L85.4667 12.6633L85.5709 12.7775L84.6293 13.6269ZM88.1765 13.0785L87.5502 13.5811C87.1244 13.2397 86.6338 12.9921 86.1094 12.8538C86.2088 12.7458 86.2851 12.618 86.3336 12.4785C86.3821 12.3389 86.4017 12.1906 86.3912 12.0429V9.13382C86.6277 9.02747 86.8532 8.89737 87.0645 8.74545C87.2806 8.59024 87.4847 8.41834 87.6751 8.23127L88.7329 8.94545L88.2842 9.64218L87.3441 9.06036V12.304L88.2628 12.8065L88.7122 12.4429L88.8163 12.5687C88.6019 12.7413 88.39 12.9113 88.1808 13.0785H88.1765ZM90.2493 13.6153C90.0369 13.515 89.8599 13.3505 89.7423 13.1442C89.6246 12.9379 89.572 12.6996 89.5917 12.4618L89.6024 12.256V9.27418L89.2992 8.92L90.0724 8.22327L90.8763 8.95418L90.6152 9.27418V12.4364C90.6352 12.5149 90.6716 12.5881 90.7219 12.6508C90.7723 12.7136 90.8354 12.7645 90.907 12.8L91.0953 12.6633L91.2001 12.7665L90.2493 13.6153ZM90.0403 7.70982H89.9048L90.1594 6.54545H90.9319L90.0403 7.70982ZM93.213 13.592C92.7745 13.2132 92.272 12.9189 91.7301 12.7236C91.9152 12.492 92.0117 12.1997 92.0019 11.9011V7.34546C91.9767 7.06758 91.8544 6.80818 91.6573 6.61455C91.911 6.68104 92.1466 6.80538 92.3464 6.97818L92.4612 6.96655C92.7477 6.65782 93.1255 6.45343 93.5369 6.38473C93.3763 6.50386 93.2461 6.66043 93.157 6.84135C93.0679 7.02227 93.0225 7.22229 93.0247 7.42473V12.2335L93.7872 12.7593L94.0383 12.5535L94.1631 12.6989L93.213 13.592ZM96.5312 13.6262C95.98 13.1854 95.3379 12.8781 94.6532 12.7273C94.7587 12.6095 94.8384 12.4702 94.887 12.3186C94.9356 12.167 94.9519 12.0066 94.9349 11.848V9.13818C95.4975 8.96714 96.0079 8.65247 96.4178 8.224C96.9067 8.61225 97.4738 8.88544 98.0784 9.024V12.7476C97.5074 12.9229 96.9808 13.2233 96.5355 13.6276L96.5312 13.6262ZM97.0954 9.58255L95.8943 9.08V12.2327C96.0127 12.2861 96.1316 12.3394 96.2509 12.3927C96.3703 12.4461 96.4972 12.4994 96.6318 12.5527C96.7823 12.6175 96.9358 12.6745 97.0919 12.7236V9.58327L97.0954 9.58255ZM101.304 9.69673L100.677 9.02255L100.27 9.36509V12.3236L100.834 12.8036L101.137 12.5644L101.262 12.7011L100.312 13.592C99.9194 13.225 99.4669 12.9311 98.975 12.7236C99.0781 12.6158 99.1571 12.4864 99.2064 12.3444C99.2556 12.2023 99.274 12.0511 99.2603 11.9011V9.60655C99.2587 9.5055 99.2354 9.40604 99.192 9.31518C99.1487 9.22432 99.0862 9.14429 99.0092 9.08073L98.8316 9.20655L98.7167 9.08073L99.6048 8.224C99.7737 8.30918 99.9257 8.42529 100.053 8.56655C100.176 8.72363 100.249 8.9148 100.262 9.11491L101.317 8.23491L102 9.04655L101.304 9.69673ZM49.027 25.8007C48.463 25.9935 47.9391 26.2917 47.4821 26.68C46.929 26.2403 46.2866 25.9319 45.6018 25.7775C45.7072 25.6592 45.7875 25.5201 45.8378 25.3688C45.8881 25.2176 45.9073 25.0574 45.8943 24.8982V22.1695C46.0389 22.1242 46.1802 22.0688 46.3173 22.0036C46.4742 21.9309 46.6497 21.8422 46.8451 21.7353L45.5262 20.8V19.7135L48.7004 21.9295C48.7938 21.7595 48.9409 21.6267 49.1176 21.5527C49.0636 21.7106 49.0355 21.8764 49.0342 22.0436V25.8015L49.027 25.8007ZM48.0349 22.5796L47.2103 21.9745L46.8658 22.2029V25.3215L48.0349 25.7782V22.5782V22.5796ZM50.6027 26.6691C50.3902 26.5689 50.213 26.4045 50.0952 26.1982C49.9774 25.9918 49.9248 25.7535 49.9443 25.5156L49.955 25.3098V22.3273L49.6526 21.9731L50.4251 21.2764L51.229 22.0073L50.9679 22.3273V25.4909C50.988 25.5695 51.0246 25.6426 51.075 25.7054C51.1255 25.7682 51.1887 25.8191 51.2604 25.8545L51.4479 25.7178L51.5528 25.8204L50.6027 26.6691ZM50.3937 20.7636H50.2582L50.5085 19.6H51.2853L50.3937 20.7636ZM55.279 26.6807C55.0632 26.5447 54.8881 26.351 54.7726 26.1207C54.6751 25.8624 54.6307 25.5864 54.642 25.3098V22.5804L54.172 22.1345L53.4309 22.7287V25.5615L53.7162 25.9498L52.9644 26.6807L52.1712 25.9498L52.4629 25.5956V22.6604C52.4615 22.5594 52.4384 22.4599 52.3951 22.3691C52.3519 22.2782 52.2895 22.1981 52.2126 22.1345L52.0457 22.2604L51.9415 22.1345L52.7975 21.2778C53.002 21.4 53.1707 21.5757 53.2863 21.7866C53.402 21.9976 53.4602 22.2362 53.4551 22.4778C53.7476 22.2417 54.0053 22.0235 54.2283 21.8233C54.4514 21.623 54.6392 21.4478 54.7918 21.2975L55.5123 22.0284L55.9616 21.64L56.0658 21.7658C55.9894 21.872 55.9124 21.984 55.8361 22.1084C55.7598 22.2327 55.6827 22.3556 55.6064 22.4851V25.4887C55.665 25.6376 55.7671 25.7646 55.8988 25.8524L56.1178 25.7156L56.2227 25.8298L55.279 26.6807ZM66.6302 26.7265C66.3723 26.6066 66.1589 26.4052 66.0216 26.1523C65.8844 25.8993 65.8304 25.6081 65.8677 25.3215L65.8571 20.5011L65.1052 19.896L64.897 20.0102V22.4102H65.4291L64.8863 23.2436V25.2196L65.1266 25.0255L65.2693 25.208L63.7001 26.7273C63.498 26.4916 63.3099 26.2861 63.1359 26.1105C62.9618 25.935 62.7982 25.7825 62.6451 25.6531V25.5615C62.6904 25.5308 62.732 25.4949 62.7692 25.4545C62.797 25.4204 62.8177 25.3956 62.832 25.3818C62.8854 25.305 62.9145 25.2134 62.9154 25.1193L62.9119 23.2429H61.7628V25.3818C61.7938 25.6847 61.7465 25.9907 61.6256 26.2692C61.5047 26.5477 61.3145 26.7891 61.0737 26.9695C60.8634 27.1228 60.6119 27.2063 60.3533 27.2087C60.3391 27.2087 60.2592 27.1978 60.1129 27.1745C59.9667 27.1513 59.7613 27.1207 59.4967 27.0829C59.4491 27.0752 59.4056 27.0693 59.3661 27.0655C59.3276 27.0618 59.2948 27.0604 59.257 27.0604C59.0967 27.0581 58.9395 27.1047 58.8054 27.1943C58.6713 27.2838 58.5665 27.4122 58.5045 27.5629H58.4424C58.3952 27.2771 58.4563 26.9837 58.6132 26.742C58.7701 26.5003 59.0112 26.3284 59.2877 26.2611C59.7617 26.2196 60.2076 26.0143 60.5516 25.6793C60.6246 25.5059 60.6636 25.3196 60.6665 25.1309C60.6657 24.9835 60.6463 24.8369 60.6087 24.6945C60.5732 24.5516 60.5169 24.4148 60.4418 24.2887C60.371 24.1696 60.2829 24.0619 60.1807 23.9695C60.0819 23.8791 59.9668 23.8092 59.8419 23.7636C59.7308 23.7087 59.6087 23.6813 59.4853 23.6836C59.2949 23.7003 59.1083 23.7467 58.9317 23.8211C58.969 23.5396 59.0996 23.2796 59.3019 23.0844C59.5269 22.9172 59.7927 22.8166 60.0702 22.7935C60.0229 22.287 60.115 21.7772 60.3363 21.3212C60.5576 20.8653 60.8991 20.4813 61.3227 20.2124L63.1922 19.104C63.405 19.244 63.5877 19.4265 63.7295 19.6405C63.8712 19.8545 63.9689 20.0955 64.0168 20.3491L65.7401 19.1382L66.8257 19.9491L67.233 19.6182L67.3478 19.7098C67.2765 19.816 67.2209 19.9062 67.1759 19.9782C67.131 20.0502 67.0939 20.1135 67.0661 20.1665C66.9853 20.3297 66.9424 20.5096 66.9405 20.6924V25.136C66.9405 25.5469 67.0247 25.7527 67.1916 25.7527C67.2389 25.7445 67.284 25.726 67.3236 25.6983C67.3633 25.6707 67.3966 25.6347 67.4213 25.5927L67.5568 25.7382L66.6302 26.7265ZM61.7014 20.2538C61.5031 20.4179 61.3427 20.6245 61.2314 20.8589C61.1381 21.1145 61.0954 21.3864 61.1058 21.6589V24.72C61.1334 24.9877 61.0886 25.2579 60.9764 25.5015C60.8641 25.7451 60.6886 25.9527 60.4689 26.1018C60.6054 26.1586 60.7498 26.1932 60.8969 26.2044C61.3358 26.2044 61.5552 25.9074 61.5552 25.3135V21.0618C61.5608 20.7931 61.6213 20.5286 61.7328 20.2851L61.7014 20.2538ZM62.2549 19.9338C62.0941 20.0879 61.9657 20.2737 61.8777 20.48C61.7896 20.6864 61.7437 20.9088 61.7428 21.1338V23.0865L62.1608 22.4131H62.9026L62.9126 20.4371C62.9164 20.0972 62.6991 19.9273 62.2606 19.9273L62.2549 19.9338ZM64.6801 20.1971L64.0018 20.6996L64.0118 22.4131H64.6801V20.1935V20.1971ZM64.6801 23.2465H64.0118L64.0046 25.1636C63.9933 25.2855 64.0207 25.4078 64.0827 25.5125C64.1448 25.6173 64.2382 25.6989 64.3492 25.7455L64.683 25.4145V23.2429L64.6801 23.2465ZM69.845 26.6844C69.2938 26.2421 68.651 25.9335 67.9655 25.7818C68.0716 25.6643 68.1518 25.5251 68.201 25.3735C68.2502 25.2219 68.2672 25.0614 68.2508 24.9025V22.1927C68.8133 22.0215 69.3237 21.7069 69.7338 21.2785C70.2226 21.6668 70.7897 21.94 71.3943 22.0785V25.8022C70.822 25.9765 70.2942 26.2767 69.8479 26.6815L69.845 26.6844ZM70.4085 22.6407L69.2081 22.1382V25.2909C69.3265 25.3442 69.4454 25.3976 69.5647 25.4509C69.686 25.5047 69.8137 25.5578 69.9456 25.6109C70.1268 25.687 70.2799 25.744 70.405 25.7818V22.6378L70.4085 22.6407ZM73.547 26.6502C73.1085 26.2714 72.606 25.9771 72.0641 25.7818C72.2486 25.5498 72.3448 25.2578 72.3351 24.9593V20.3993C72.31 20.1214 72.1877 19.862 71.9906 19.6684C72.2446 19.7347 72.4805 19.859 72.6803 20.032L72.7952 20.0204C73.0814 19.7114 73.4594 19.5069 73.8708 19.4385C73.7104 19.5576 73.5802 19.7141 73.4911 19.8948C73.402 20.0756 73.3566 20.2755 73.3587 20.4778V25.2865L74.1212 25.8124L74.3715 25.6065L74.4971 25.752L73.547 26.6502ZM78.5072 25.8051C77.943 25.9981 77.4189 26.2962 76.9615 26.6844C76.4087 26.2446 75.7666 25.9362 75.082 25.7818C75.1873 25.6636 75.2676 25.5245 75.3179 25.3732C75.3683 25.2219 75.3875 25.0617 75.3744 24.9025V22.1695C75.519 22.1241 75.6603 22.0686 75.7974 22.0036C75.9536 21.9309 76.1298 21.8422 76.3245 21.7353L75.0042 20.8V19.7135L78.1784 21.9295C78.2719 21.7593 78.4193 21.6266 78.5963 21.5527C78.5424 21.7106 78.5142 21.8764 78.5129 22.0436V25.8015L78.5072 25.8051ZM77.515 22.584L76.6897 21.9789L76.3459 22.2073V25.3258L77.515 25.7825V22.5825V22.584ZM80.9923 26.6851C80.441 26.2428 79.7983 25.9342 79.1128 25.7825C79.2182 25.6647 79.2978 25.5254 79.3464 25.3738C79.395 25.2222 79.4114 25.0618 79.3945 24.9033V22.1927C79.957 22.0215 80.4674 21.7069 80.8774 21.2785C81.3663 21.6668 81.9334 21.94 82.538 22.0785V25.8022C81.968 25.9776 81.4425 26.2777 80.998 26.6815L80.9923 26.6851ZM81.5558 22.6415L80.3553 22.1389V25.2916C80.4737 25.345 80.5926 25.3983 80.712 25.4516C80.8332 25.5055 80.9609 25.5585 81.0928 25.6116C81.274 25.6878 81.4271 25.7447 81.5522 25.7825V22.6378L81.5558 22.6415ZM85.1222 26.6851C84.5695 26.2453 83.9273 25.9369 83.2427 25.7825C83.348 25.6643 83.4284 25.5252 83.4787 25.3739C83.529 25.2227 83.5482 25.0625 83.5351 24.9033V22.2415C83.2867 21.9418 83.137 21.5701 83.1072 21.1789C83.1426 20.8839 83.2553 20.6041 83.4336 20.369C83.6118 20.1339 83.849 19.9522 84.12 19.8429L84.1721 19.9338C84.0574 20.0254 83.9614 20.1391 83.8898 20.2685C83.8182 20.398 83.7723 20.5405 83.7548 20.688C83.8393 20.9442 83.9662 21.1838 84.13 21.3964C84.3625 21.6974 84.4976 22.0646 84.5166 22.4473L85.9995 21.2836C86.349 21.5709 86.5861 21.9762 86.6679 22.4262V25.8073C86.1002 25.9835 85.5761 26.2816 85.1308 26.6815L85.1222 26.6851ZM85.6864 22.7578C85.6382 22.5068 85.5134 22.2777 85.3298 22.1033L84.4945 22.7775V25.2902C84.7351 25.4122 84.9829 25.5191 85.2363 25.6102L85.685 25.7811V22.752L85.6864 22.7578ZM90.1452 26.6524C89.9301 26.5323 89.753 26.3523 89.6346 26.1333C89.5162 25.9144 89.4615 25.6655 89.4768 25.416L88.0567 26.6611H88.0046C87.7923 26.4795 87.6175 26.2568 87.4902 26.0059C87.3628 25.755 87.2855 25.4808 87.2628 25.1993C87.2875 24.7994 87.3927 24.409 87.5721 24.0525C87.7514 23.696 88.0008 23.3811 88.3049 23.1273L87.8056 21.6996L87.9411 21.7105C88.142 21.7262 88.3436 21.6941 88.5302 21.6169C88.7169 21.5396 88.8834 21.4194 89.0168 21.2655L90.4997 21.8022L90.7921 21.5513L90.8128 21.5971C90.6492 21.8694 90.5288 22.1664 90.4562 22.4771V25.4698C90.469 25.5503 90.503 25.6257 90.5545 25.688C90.606 25.7504 90.6731 25.7974 90.7486 25.824L90.9369 25.7215L91.0518 25.824L90.1452 26.6524ZM89.4768 22.4262L87.9625 21.8095L88.4012 23.1113L89.4768 23.6822V22.4204V22.4262ZM89.4868 23.8887L88.4012 23.2945C88.2132 23.6376 88.1092 24.0218 88.098 24.4145C88.1078 24.9565 88.3254 25.4729 88.7043 25.8531L89.4889 25.1258V23.8895L89.4868 23.8887ZM78.5065 6.77964L78.5307 6.84509L78.4801 6.96582C78.5514 7.13061 78.6633 7.27381 78.8049 7.38149C78.9465 7.48917 79.113 7.55768 79.2882 7.58036C79.4776 7.54539 79.6545 7.45957 79.8006 7.33174C79.9466 7.20391 80.0566 7.03869 80.1192 6.85309L80.2911 6.90109C80.152 7.20011 79.9584 7.46939 79.7205 7.69455C79.5392 7.86148 79.3042 7.95489 79.06 7.95709C78.8675 7.93366 78.6856 7.85488 78.5354 7.72996C78.3853 7.60505 78.273 7.43915 78.2119 7.25164L78.5065 6.77964ZM58.7912 15.0873H58.3954L58.5644 13.9236H59.3619L58.7912 15.0873ZM11.9625 13.8764C11.7786 13.7464 11.6222 13.5799 11.5026 13.387C11.383 13.1941 11.3026 12.9787 11.2664 12.7535L9.8726 13.856L8.51735 13.0975C8.39721 13.0167 8.25967 12.9668 8.11649 12.952C8.08139 12.9522 8.04672 12.9599 8.01476 12.9747C7.98279 12.9895 7.95427 13.011 7.93104 13.0378C7.90477 13.0652 7.88405 13.0976 7.8701 13.1332C7.85614 13.1688 7.84922 13.2068 7.84972 13.2451C7.8556 13.3113 7.87173 13.3761 7.89751 13.4371C7.92391 13.5015 7.94005 13.5697 7.94531 13.6393C7.94802 13.6697 7.94377 13.7004 7.9329 13.7289C7.92203 13.7574 7.90482 13.783 7.88264 13.8035C7.86045 13.8241 7.83389 13.8392 7.80503 13.8475C7.77618 13.8559 7.74581 13.8573 7.71633 13.8516C7.68421 13.8526 7.6523 13.8461 7.62306 13.8325C7.59382 13.8189 7.56803 13.7986 7.5477 13.7732C7.52736 13.7478 7.51302 13.718 7.50577 13.6861C7.49853 13.6542 7.49857 13.621 7.50591 13.5891C7.54363 13.2841 7.65897 12.9945 7.84045 12.7491L8.68926 11.4138C8.15795 10.9681 7.79944 10.3443 7.67782 9.65382L7.65856 9.43127C7.66692 8.83762 7.90331 8.27099 8.31693 7.85309C8.52719 7.62261 8.78305 7.44029 9.06759 7.31817C9.35213 7.19606 9.65885 7.13694 9.96747 7.14473C10.6603 7.15311 11.3323 7.38704 11.8855 7.81236C12.1589 7.45833 12.5368 7.20335 12.9633 7.08509L12.9825 7.10545C12.8556 7.23346 12.7474 7.35152 12.658 7.45964C12.5804 7.55063 12.5103 7.64792 12.4483 7.75055C12.3049 8.00222 12.2323 8.28936 12.2386 8.58036L12.3149 12.0102C12.2878 12.3651 12.3893 12.7178 12.6002 13.0015L12.9055 12.7585L13.0482 12.9207L11.9625 13.8764ZM9.72995 7.93745C9.27589 7.92392 8.83444 8.09082 8.49881 8.40291C8.32533 8.55737 8.18748 8.74902 8.09512 8.96414C8.00276 9.17926 7.95818 9.41253 7.96456 9.64727C7.97615 9.95984 8.05785 10.2655 8.20338 10.5409C8.34892 10.8162 8.55442 11.0539 8.8041 11.2356L10.0737 9.26255C10.0326 9.18639 9.97157 9.12336 9.8974 9.08047C9.82322 9.03759 9.73883 9.01653 9.65362 9.01964L9.50098 9.04C9.37793 9.05906 9.26142 9.10888 9.16185 9.18503C9.06228 9.26117 8.98275 9.36126 8.93035 9.47636C8.92358 9.33549 8.94823 9.19487 9.00247 9.06512C9.05671 8.93537 9.13912 8.81985 9.24348 8.72727C9.45819 8.55746 9.72528 8.47132 9.99671 8.48436C10.1798 8.48287 10.3625 8.50338 10.541 8.54545L10.7699 8.18182C10.4436 8.02767 10.0895 7.94446 9.72995 7.93745ZM11.2756 11.6H8.88042L8.52734 12.1462L10.4739 13.0975L11.2756 12.4095V11.6ZM11.2371 8.66618L11.0467 8.37527H10.9704L9.35761 10.8945H11.2371V8.66909V8.66618ZM16.8165 19.1229C16.562 19.2514 16.1773 19.4773 15.6623 19.8007C15.4961 19.7404 15.3549 19.6895 15.2344 19.6487C15.1138 19.608 15.0261 19.576 14.9626 19.5578C14.5808 19.4284 14.1816 19.3602 13.7793 19.3556C13.5234 19.3538 13.2689 19.3949 13.026 19.4771C12.9004 19.4957 12.7826 19.5502 12.6863 19.6344C12.5899 19.7186 12.519 19.829 12.4818 19.9527L12.4633 20.0255C12.4689 20.1185 12.4864 20.2105 12.5153 20.2989C12.5444 20.3871 12.5621 20.4788 12.5681 20.5716C12.5715 20.6014 12.5681 20.6316 12.5581 20.6597C12.5481 20.6879 12.5317 20.7133 12.5104 20.7339C12.4891 20.7545 12.4633 20.7698 12.4352 20.7785C12.4071 20.7872 12.3774 20.7891 12.3484 20.784H12.3006C12.2312 20.7605 12.1717 20.7136 12.1318 20.6512C12.0919 20.5887 12.074 20.5142 12.0809 20.44C12.1045 20.1911 12.1938 19.9534 12.3391 19.752C12.4024 19.6846 12.4787 19.5985 12.5681 19.4938L12.8827 19.1244C13.0718 18.9 13.1971 18.6271 13.245 18.3353V18.2545C13.252 18.215 13.2498 18.1743 13.2387 18.1358C13.2276 18.0972 13.2079 18.0618 13.181 18.0324C13.1541 18.0029 13.1209 17.9803 13.084 17.9662C13.0471 17.9521 13.0075 17.947 12.9683 17.9513C12.7665 17.9918 12.5866 18.1071 12.4633 18.2749L12.444 18.0829C12.4544 17.8711 12.5408 17.6705 12.6868 17.5194C12.8328 17.3682 13.0282 17.2771 13.2357 17.2633L13.245 17.1316C13.2702 16.9948 13.2479 16.8532 13.1817 16.7313C13.1156 16.6094 13.0098 16.5149 12.8827 16.464C12.7746 16.4158 12.6566 16.3948 12.5389 16.4029C12.3237 16.4059 12.112 16.4578 11.919 16.5549C11.9704 16.2894 12.1211 16.0546 12.3391 15.9004C12.5574 15.7563 12.8131 15.6823 13.0731 15.688C13.077 15.3237 13.1634 14.9653 13.3256 14.6407C13.4879 14.316 13.7215 14.0341 14.0082 13.8167L13.989 13.776C13.8229 13.8501 13.6456 13.8944 13.4647 13.9069C13.3334 13.8988 13.2043 13.8681 13.0831 13.816C12.9747 13.7753 12.8891 13.7433 12.8256 13.7251C12.7866 13.7138 12.7483 13.7002 12.7108 13.6844L12.4818 13.6538C12.3522 13.6628 12.2272 13.7069 12.1199 13.7815C12.0125 13.8562 11.9267 13.9587 11.8712 14.0785C11.9153 13.7756 12.0483 13.4934 12.2528 13.2691C12.3519 13.1572 12.4729 13.0678 12.6081 13.0067C12.7433 12.9457 12.8896 12.9144 13.0375 12.9149C13.2117 12.92 13.3847 12.9471 13.5524 12.9956C13.8252 13.0886 14.1065 13.1532 14.392 13.1884H14.4398C14.7613 13.153 15.0779 13.0818 15.3842 12.976C15.0031 13.19 14.6739 13.4882 14.4205 13.8487C14.203 14.243 14.1006 14.6924 14.1252 15.144V16.7222C14.1389 17.1426 14.0874 17.5625 13.9726 17.9665C13.829 18.3543 13.6261 18.7164 13.3713 19.0393L13.3998 19.0698C13.7746 18.861 14.0881 18.5541 14.3078 18.1807C14.5276 17.8073 14.6458 17.3809 14.6502 16.9455V15.2284C14.6205 14.7489 14.7371 14.2718 14.984 13.8625C15.2863 13.4937 15.6928 13.2288 16.1481 13.104C16.399 13.0043 16.6638 12.9461 16.9327 12.9316C17.0998 12.9253 17.2653 12.9674 17.4099 13.0531C17.5677 13.1495 17.6965 13.2883 17.7823 13.4542C17.8681 13.6202 17.9075 13.8069 17.8964 13.9942C17.8415 14.5148 17.5963 14.9952 17.2095 15.3396C17.1586 15.3939 17.103 15.4545 17.0426 15.5215C16.9819 15.5891 16.917 15.6596 16.8471 15.7338C17.6869 15.8308 18.1068 16.2017 18.1068 16.8465V18.6909C17.663 18.7885 17.2306 18.9333 16.8165 19.1229ZM16.2251 13.4371C16.0053 13.4712 15.8067 13.5899 15.67 13.7687C15.5334 13.9475 15.4691 14.1729 15.4904 14.3985V16.3716C15.5245 16.8323 15.4356 17.2937 15.233 17.7069C14.9622 18.0771 14.6089 18.3763 14.2022 18.5796L14.2115 18.6204C14.4979 18.5655 14.7883 18.5351 15.0796 18.5295C15.3472 18.5237 15.6141 18.5577 15.8721 18.6305V14.9818H16.0532V16.024C16.3177 15.9049 16.5445 15.7131 16.7083 15.4701C16.872 15.2271 16.9663 14.9425 16.9805 14.648C16.9767 14.3947 16.9041 14.1474 16.7707 13.9337C16.6374 13.7199 16.4485 13.548 16.2251 13.4371ZM16.9762 16.2182C16.8805 16.0821 16.7429 15.9825 16.5853 15.9353C16.394 16.0469 16.2149 16.179 16.0511 16.3295V16.8247L16.4134 16.8975C16.4605 16.9085 16.5081 16.917 16.5561 16.9229C16.7231 16.9062 16.8869 16.8653 17.0426 16.8015L17.0518 16.6698C17.0687 16.515 17.0425 16.3585 16.9762 16.2182ZM17.0433 17.0073C16.9541 17.0204 16.8685 17.0327 16.7858 17.0429C16.7034 17.0531 16.6205 17.0582 16.5375 17.0582C16.466 17.0576 16.3945 17.0525 16.3236 17.0429L16.0518 17.0073V17.7673C16.1746 17.7467 16.2989 17.7365 16.4234 17.7367H16.7801C16.87 17.7375 16.9597 17.7478 17.0475 17.7673V17.0087L17.0433 17.0073ZM17.0433 17.9687C16.872 17.9049 16.6914 17.8707 16.509 17.8676C16.534 17.8676 16.509 17.8727 16.4327 17.8829C16.3564 17.8931 16.2287 17.9113 16.0511 17.9382V18.7076C16.267 18.7886 16.4386 18.8492 16.5661 18.8895C16.6167 18.8625 16.6823 18.8276 16.7615 18.7833C16.8407 18.7389 16.9349 18.6909 17.0433 18.6378V17.9702V17.9687ZM22.4742 24.4713C22.2414 24.3691 22.0475 24.1924 21.9219 23.9679C21.7963 23.7434 21.7458 23.4833 21.7781 23.2269L21.7688 18.9578L21.0819 18.4218L20.8907 18.5229V20.6473H21.3772L20.8779 21.3862V23.136L21.0969 22.9644L21.2303 23.1258L19.7994 24.4713C19.6149 24.2623 19.4432 24.0802 19.2844 23.9251C19.1256 23.7699 18.976 23.6352 18.8358 23.5207V23.4415C18.8741 23.4135 18.9092 23.3813 18.9406 23.3455C18.9663 23.3149 18.9856 23.2931 18.9977 23.28C19.0467 23.2126 19.0737 23.1312 19.0747 23.0473L19.0647 21.3884H18.0155V23.2793C18.0426 23.5495 17.9986 23.8223 17.8878 24.0694C17.7771 24.3165 17.6038 24.5291 17.3856 24.6851C17.192 24.8214 16.9626 24.8954 16.7273 24.8975C16.7145 24.8975 16.6417 24.8873 16.5076 24.8669C16.3735 24.8465 16.1866 24.8196 15.9448 24.7862C15.9006 24.7789 15.8606 24.7738 15.8257 24.7709C15.7907 24.768 15.7544 24.7658 15.7258 24.7658C15.581 24.7626 15.4386 24.8032 15.3163 24.8824C15.1941 24.9616 15.0976 25.0759 15.0389 25.2109H14.9812C14.9419 24.9531 15.0012 24.6899 15.1468 24.4754C15.2924 24.2609 15.5132 24.1116 15.7636 24.0582C16.1943 24.0229 16.6007 23.841 16.9177 23.5418C16.9844 23.3887 17.02 23.2235 17.0226 23.056C17.0222 22.9245 17.0047 22.7937 16.9705 22.6669C16.9374 22.5401 16.8859 22.419 16.8179 22.3076C16.7526 22.2015 16.672 22.1058 16.5789 22.024C16.488 21.9439 16.3829 21.8822 16.2694 21.8422C16.168 21.793 16.057 21.7682 15.9448 21.7695C15.7713 21.7841 15.6008 21.825 15.4391 21.8909C15.4738 21.6391 15.5936 21.4076 15.7779 21.2364C15.9847 21.0879 16.2269 20.9989 16.4791 20.9789C16.4376 20.5267 16.5229 20.0718 16.7249 19.6671C16.9269 19.2623 17.2374 18.9243 17.6203 18.6924L19.3279 17.7105C19.5209 17.8322 19.6873 17.9928 19.817 18.1826C19.9467 18.3723 20.0368 18.5872 20.0819 18.8138L21.6561 17.7411L22.6483 18.4596L23.0206 18.1687L23.1255 18.2495C23.062 18.344 23.0092 18.4233 22.9678 18.4873C22.9265 18.5513 22.8965 18.6073 22.868 18.6545C22.7943 18.7983 22.7549 18.9578 22.7531 19.12V23.0545C22.7531 23.4187 22.8295 23.6007 22.9821 23.6007C23.025 23.5937 23.066 23.5774 23.1023 23.553C23.1386 23.5285 23.1693 23.4964 23.1925 23.4589L23.3159 23.5905L22.4742 24.4713ZM17.9748 18.7367C17.7952 18.8811 17.6491 19.0641 17.5469 19.2727C17.4617 19.4984 17.4226 19.7395 17.432 19.9811V22.6909C17.4561 22.93 17.4144 23.1712 17.3116 23.3876C17.2088 23.6039 17.0489 23.7867 16.85 23.9156C16.9752 23.9661 17.1073 23.9967 17.2416 24.0065C17.3362 24.0067 17.4295 23.9847 17.5145 23.9424C17.5995 23.9001 17.6739 23.8385 17.7319 23.7623C17.79 23.6861 17.8302 23.5974 17.8494 23.503C17.8686 23.4086 17.8664 23.3109 17.8429 23.2175V19.4545C17.8478 19.216 17.903 18.9814 18.0048 18.7665L17.9748 18.7367ZM18.4805 18.4531C18.3346 18.5875 18.2176 18.7513 18.1371 18.9342C18.0565 19.1171 18.0141 19.3151 18.0126 19.5156V21.2458L18.3942 20.6487H19.0719L19.0818 18.8982C19.0809 18.6019 18.88 18.4536 18.4791 18.4531H18.4805ZM20.6917 18.6858L20.0719 19.1309L20.0812 20.648H20.6917V18.6844V18.6858ZM20.6917 21.3869H20.0812L20.0719 23.0865C20.0622 23.1957 20.0877 23.305 20.1444 23.3981C20.2012 23.4911 20.2862 23.5628 20.3864 23.6022L20.6917 23.3113V21.3869ZM5.85537 5.32509H5.44238C5.32821 5.32509 5.21872 5.27885 5.13799 5.19654C5.05726 5.11423 5.01191 5.00259 5.01191 4.88618C5.01191 4.76978 5.05726 4.65814 5.13799 4.57583C5.21872 4.49352 5.32821 4.44727 5.44238 4.44727H5.85537C5.96954 4.44727 6.07903 4.49352 6.15976 4.57583C6.24049 4.65814 6.28584 4.76978 6.28584 4.88618C6.28584 5.00259 6.24049 5.11423 6.15976 5.19654C6.07903 5.27885 5.96954 5.32509 5.85537 5.32509ZM5.44238 4.63273C5.37617 4.63273 5.31266 4.65955 5.26584 4.70728C5.21903 4.75502 5.19273 4.81976 5.19273 4.88727C5.19273 4.95478 5.21903 5.01953 5.26584 5.06726C5.31266 5.115 5.37617 5.14182 5.44238 5.14182H5.85537C5.92158 5.14182 5.98508 5.115 6.0319 5.06726C6.07871 5.01953 6.10502 4.95478 6.10502 4.88727C6.10502 4.81976 6.07871 4.75502 6.0319 4.70728C5.98508 4.65955 5.92158 4.63273 5.85537 4.63273H5.44238ZM5.83825 4.528C5.83755 4.5661 5.82582 4.60314 5.80455 4.63447C5.78328 4.6658 5.75342 4.69003 5.71869 4.70412C5.68397 4.7182 5.64593 4.72152 5.60936 4.71365C5.57279 4.70578 5.53933 4.68707 5.51315 4.65988C5.48697 4.63268 5.46925 4.59821 5.46221 4.56079C5.45517 4.52336 5.45914 4.48465 5.4736 4.44952C5.48806 4.41438 5.51236 4.38438 5.54348 4.36328C5.5746 4.34218 5.61115 4.33092 5.64852 4.33091C5.67369 4.3311 5.69856 4.33635 5.72173 4.34637C5.74489 4.35639 5.7659 4.37097 5.78353 4.38928C5.80115 4.40759 5.81506 4.42927 5.82445 4.45308C5.83384 4.47688 5.83853 4.50234 5.83825 4.528ZM5.73839 7.42255H5.56364V5.26618H5.74196V7.42255H5.73839ZM6.27407 7.43055H5.89461V6.56509H6.27693V7.43055H6.27407ZM5.98875 7.20655H5.60929V6.75055H5.9916V7.20655H5.98875ZM5.02297 5.81818V6.24727C5.02777 6.30679 5.02042 6.36667 5.00138 6.42314C4.98234 6.47962 4.95201 6.53145 4.91234 6.57537C4.87266 6.6193 4.82447 6.65435 4.77083 6.67833C4.7172 6.70231 4.65927 6.71469 4.6007 6.71469C4.54213 6.71469 4.4842 6.70231 4.43056 6.67833C4.37692 6.65435 4.32874 6.6193 4.28906 6.57537C4.24938 6.53145 4.21907 6.47962 4.20003 6.42314C4.18099 6.36667 4.17363 6.30679 4.17843 6.24727V5.81818C4.17363 5.75867 4.18099 5.69878 4.20003 5.64231C4.21907 5.58584 4.24938 5.534 4.28906 5.49008C4.32874 5.44616 4.37692 5.4111 4.43056 5.38712C4.4842 5.36314 4.54213 5.35076 4.6007 5.35076C4.65927 5.35076 4.7172 5.36314 4.77083 5.38712C4.82447 5.4111 4.87266 5.44616 4.91234 5.49008C4.95201 5.534 4.98234 5.58584 5.00138 5.64231C5.02042 5.69878 5.02777 5.75867 5.02297 5.81818ZM4.35676 6.24727C4.35305 6.2822 4.35659 6.31752 4.36716 6.35096C4.37773 6.38439 4.39509 6.41518 4.4181 6.44132C4.44111 6.46746 4.46926 6.48837 4.50072 6.50268C4.53218 6.517 4.56625 6.52439 4.6007 6.52439C4.63515 6.52439 4.66921 6.517 4.70068 6.50268C4.73214 6.48837 4.76029 6.46746 4.78331 6.44132C4.80632 6.41518 4.82368 6.38439 4.83424 6.35096C4.84481 6.31752 4.84836 6.2822 4.84465 6.24727V5.81818C4.84836 5.78326 4.84481 5.74793 4.83424 5.7145C4.82368 5.68106 4.80632 5.65028 4.78331 5.62413C4.76029 5.59799 4.73214 5.57708 4.70068 5.56277C4.66921 5.54846 4.63515 5.54106 4.6007 5.54106C4.56625 5.54106 4.53218 5.54846 4.50072 5.56277C4.46926 5.57708 4.44111 5.59799 4.4181 5.62413C4.39509 5.65028 4.37773 5.68106 4.36716 5.7145C4.35659 5.74793 4.35305 5.78326 4.35676 5.81818V6.24727ZM4.25547 5.83564C4.29385 5.83491 4.33157 5.84586 4.36382 5.86707C4.39607 5.88828 4.4214 5.91881 4.43658 5.95475C4.45176 5.99069 4.45609 6.03043 4.44904 6.0689C4.44199 6.10737 4.42387 6.14283 4.39698 6.17075C4.3701 6.19868 4.33567 6.21782 4.29808 6.22572C4.26049 6.23363 4.22144 6.22994 4.18591 6.21514C4.15038 6.20033 4.11998 6.17508 4.09858 6.14259C4.07718 6.11011 4.06574 6.07186 4.06573 6.03273C4.0661 5.98147 4.08619 5.93241 4.12168 5.89609C4.15716 5.85978 4.2052 5.83912 4.25547 5.83855V5.83564ZM7.04156 5.93964V6.12509H4.96591V5.94255H7.04156V5.93964ZM7.0487 5.38327V5.77745H6.21558V5.38545H7.0487V5.38327ZM6.83471 5.67418V6.06836H6.39533V5.67927H6.83471V5.67418ZM24.9522 5.32H24.5371C24.4229 5.32 24.3134 5.27376 24.2327 5.19145C24.152 5.10914 24.1066 4.9975 24.1066 4.88109C24.1066 4.76469 24.152 4.65305 24.2327 4.57074C24.3134 4.48842 24.4229 4.44218 24.5371 4.44218H24.9508C25.0076 4.44209 25.064 4.45341 25.1165 4.47551C25.1691 4.4976 25.2169 4.53004 25.2571 4.57097C25.2974 4.61189 25.3294 4.6605 25.3512 4.71403C25.3731 4.76755 25.3844 4.82494 25.3844 4.88291C25.3845 4.94088 25.3734 4.99831 25.3518 5.0519C25.3301 5.1055 25.2983 5.15422 25.2581 5.19528C25.218 5.23634 25.1703 5.26894 25.1178 5.29121C25.0653 5.31348 25.009 5.325 24.9522 5.32509V5.32ZM24.5371 4.63273C24.4708 4.63273 24.4074 4.65955 24.3605 4.70728C24.3137 4.75502 24.2874 4.81976 24.2874 4.88727C24.2874 4.95478 24.3137 5.01953 24.3605 5.06726C24.4074 5.115 24.4708 5.14182 24.5371 5.14182H24.9508C25.017 5.14182 25.0805 5.115 25.1273 5.06726C25.1741 5.01953 25.2004 4.95478 25.2004 4.88727C25.2004 4.81976 25.1741 4.75502 25.1273 4.70728C25.0805 4.65955 25.017 4.63273 24.9508 4.63273H24.5371ZM24.9336 4.528C24.9329 4.5661 24.9212 4.60314 24.9 4.63447C24.8787 4.6658 24.8488 4.69003 24.8141 4.70412C24.7794 4.7182 24.7413 4.72152 24.7048 4.71365C24.6682 4.70578 24.6347 4.68707 24.6085 4.65988C24.5824 4.63268 24.5646 4.59821 24.5576 4.56079C24.5506 4.52336 24.5545 4.48465 24.569 4.44952C24.5835 4.41438 24.6078 4.38438 24.6389 4.36328C24.67 4.34218 24.7065 4.33092 24.7439 4.33091C24.7692 4.33091 24.7942 4.33602 24.8176 4.34595C24.8409 4.35588 24.8621 4.37044 24.8798 4.38877C24.8976 4.4071 24.9117 4.42884 24.9211 4.45274C24.9306 4.47664 24.9354 4.50222 24.9351 4.528H24.9336ZM24.8338 7.42255H24.6555V5.26618H24.8338V7.42255ZM25.3688 7.43055H24.99V6.56509H25.3688V7.43055ZM25.0834 7.20655H24.7083V6.75055H25.0877V7.20655H25.0834ZM25.3688 6.25018V5.81818C25.3639 5.75867 25.3713 5.69878 25.3903 5.64231C25.4094 5.58584 25.4397 5.534 25.4794 5.49008C25.5191 5.44616 25.5672 5.4111 25.6209 5.38712C25.6745 5.36314 25.7325 5.35076 25.791 5.35076C25.8496 5.35076 25.9075 5.36314 25.9612 5.38712C26.0148 5.4111 26.063 5.44616 26.1027 5.49008C26.1423 5.534 26.1727 5.58584 26.1917 5.64231C26.2107 5.69878 26.2181 5.75867 26.2133 5.81818V6.24727C26.2204 6.30779 26.2149 6.36916 26.1971 6.42735C26.1793 6.48554 26.1496 6.53923 26.11 6.5849C26.0704 6.63056 26.0218 6.66717 25.9674 6.69231C25.9129 6.71744 25.8538 6.73055 25.7941 6.73075C25.7343 6.73096 25.6751 6.71827 25.6205 6.6935C25.5659 6.66874 25.517 6.63248 25.4771 6.58709C25.4372 6.5417 25.4072 6.48821 25.389 6.43015C25.3708 6.37208 25.3649 6.31075 25.3716 6.25018H25.3688ZM26.035 5.81818C26.0387 5.78326 26.0351 5.74793 26.0246 5.7145C26.014 5.68106 25.9966 5.65028 25.9736 5.62413C25.9506 5.59799 25.9225 5.57708 25.891 5.56277C25.8595 5.54846 25.8255 5.54106 25.791 5.54106C25.7566 5.54106 25.7225 5.54846 25.691 5.56277C25.6596 5.57708 25.6314 5.59799 25.6084 5.62413C25.5854 5.65028 25.568 5.68106 25.5575 5.7145C25.5469 5.74793 25.5434 5.78326 25.5471 5.81818V6.24727C25.5434 6.2822 25.5469 6.31752 25.5575 6.35096C25.568 6.38439 25.5854 6.41518 25.6084 6.44132C25.6314 6.46746 25.6596 6.48837 25.691 6.50268C25.7225 6.517 25.7566 6.52439 25.791 6.52439C25.8255 6.52439 25.8595 6.517 25.891 6.50268C25.9225 6.48837 25.9506 6.46746 25.9736 6.44132C25.9966 6.41518 26.014 6.38439 26.0246 6.35096C26.0351 6.31752 26.0387 6.2822 26.035 6.24727V5.81818ZM26.1355 6.22982C26.0972 6.23054 26.0594 6.2196 26.0272 6.19838C25.9949 6.17717 25.9696 6.14665 25.9544 6.1107C25.9392 6.07476 25.9349 6.03502 25.942 5.99655C25.949 5.95809 25.9671 5.92263 25.994 5.8947C26.0209 5.86677 26.0553 5.84764 26.0929 5.83973C26.1305 5.83183 26.1696 5.83551 26.2051 5.85032C26.2406 5.86512 26.271 5.89038 26.2924 5.92286C26.3138 5.95535 26.3253 5.99359 26.3253 6.03273C26.3264 6.08449 26.3074 6.13461 26.2724 6.1721C26.2373 6.20959 26.1892 6.23139 26.1384 6.23273L26.1355 6.22982ZM23.3501 6.12582V5.94327H25.4251V6.12873H23.353L23.3501 6.12582ZM23.343 6.68218V6.29091H24.1804V6.68509H23.3459L23.343 6.68218ZM23.557 6.39127V5.99709H23.9957V6.39127H23.557ZM25.4879 26.1578V25.7287C25.4831 25.6692 25.4904 25.6093 25.5095 25.5529C25.5285 25.4964 25.5588 25.4445 25.5985 25.4006C25.6382 25.3567 25.6864 25.3216 25.74 25.2977C25.7936 25.2737 25.8516 25.2613 25.9101 25.2613C25.9687 25.2613 26.0266 25.2737 26.0803 25.2977C26.1339 25.3216 26.1821 25.3567 26.2218 25.4006C26.2615 25.4445 26.2918 25.4964 26.3108 25.5529C26.3299 25.6093 26.3372 25.6692 26.3324 25.7287V26.1578C26.3402 26.2188 26.3352 26.2807 26.3176 26.3395C26.3001 26.3983 26.2704 26.4526 26.2307 26.4988C26.1909 26.5449 26.1419 26.5819 26.087 26.6073C26.0321 26.6326 25.9726 26.6458 25.9123 26.6458C25.852 26.6458 25.7924 26.6326 25.7375 26.6073C25.6826 26.5819 25.6336 26.5449 25.5939 26.4988C25.5541 26.4526 25.5245 26.3983 25.5069 26.3395C25.4894 26.2807 25.4843 26.2188 25.4922 26.1578H25.4879ZM26.1541 25.7287C26.1578 25.6938 26.1543 25.6585 26.1437 25.625C26.1331 25.5916 26.1158 25.5608 26.0927 25.5347C26.0697 25.5085 26.0416 25.4876 26.0101 25.4733C25.9787 25.459 25.9446 25.4516 25.9101 25.4516C25.8757 25.4516 25.8416 25.459 25.8102 25.4733C25.7787 25.4876 25.7505 25.5085 25.7275 25.5347C25.7045 25.5608 25.6872 25.5916 25.6766 25.625C25.666 25.6585 25.6625 25.6938 25.6662 25.7287V26.1578C25.6625 26.1927 25.666 26.2281 25.6766 26.2615C25.6872 26.2949 25.7045 26.3257 25.7275 26.3519C25.7505 26.378 25.7787 26.3989 25.8102 26.4132C25.8416 26.4275 25.8757 26.4349 25.9101 26.4349C25.9446 26.4349 25.9787 26.4275 26.0101 26.4132C26.0416 26.3989 26.0697 26.378 26.0927 26.3519C26.1158 26.3257 26.1331 26.2949 26.1437 26.2615C26.1543 26.2281 26.1578 26.1927 26.1541 26.1578V25.7287ZM26.2554 26.1404C26.217 26.1411 26.1793 26.1301 26.147 26.1089C26.1148 26.0877 26.0894 26.0572 26.0743 26.0212C26.0591 25.9853 26.0547 25.9456 26.0618 25.9071C26.0688 25.8686 26.087 25.8332 26.1139 25.8052C26.1407 25.7773 26.1752 25.7582 26.2128 25.7503C26.2504 25.7424 26.2894 25.7461 26.3249 25.7609C26.3605 25.7757 26.3909 25.8009 26.4123 25.8334C26.4337 25.8659 26.4451 25.9041 26.4451 25.9433C26.4455 25.9943 26.4263 26.0435 26.3917 26.0803C26.357 26.1171 26.3097 26.1387 26.2597 26.1404H26.2554ZM23.4693 26.0364V25.8509H25.5449V26.0364H23.4693ZM23.4621 26.5927V26.1985H24.2953V26.5927H23.4671H23.4621ZM23.6761 26.3018V25.9047H24.1148V26.2989H23.6811L23.6761 26.3018ZM24.5963 26.5964H25.0093C25.1234 26.5964 25.2329 26.6426 25.3136 26.7249C25.3944 26.8072 25.4397 26.9189 25.4397 27.0353C25.4397 27.1517 25.3944 27.2633 25.3136 27.3456C25.2329 27.4279 25.1234 27.4742 25.0093 27.4742H24.5963C24.5396 27.4738 24.4836 27.4619 24.4314 27.4394C24.3792 27.4169 24.3318 27.3842 24.2921 27.343C24.2523 27.3018 24.2209 27.2531 24.1996 27.1995C24.1783 27.146 24.1675 27.0887 24.1679 27.0309C24.1684 26.9731 24.1799 26.916 24.202 26.8628C24.2241 26.8096 24.2562 26.7613 24.2966 26.7207C24.337 26.6802 24.3848 26.6481 24.4373 26.6264C24.4898 26.6047 24.546 26.5938 24.6027 26.5942L24.5963 26.5964ZM25.0093 27.2887C25.0755 27.2887 25.139 27.2619 25.1858 27.2142C25.2326 27.1664 25.2589 27.1017 25.2589 27.0342C25.2589 26.9667 25.2326 26.9019 25.1858 26.8542C25.139 26.8065 25.0755 26.7796 25.0093 26.7796H24.5963C24.5301 26.7796 24.4666 26.8065 24.4197 26.8542C24.3729 26.9019 24.3466 26.9667 24.3466 27.0342C24.3466 27.1017 24.3729 27.1664 24.4197 27.2142C24.4666 27.2619 24.5301 27.2887 24.5963 27.2887H25.0093ZM24.6134 27.3935C24.6141 27.3553 24.6258 27.3183 24.6471 27.2869C24.6684 27.2556 24.6983 27.2313 24.7331 27.2173C24.7679 27.2032 24.806 27.1999 24.8425 27.2079C24.8791 27.2158 24.9126 27.2346 24.9387 27.2618C24.9649 27.2891 24.9826 27.3236 24.9895 27.3611C24.9965 27.3986 24.9924 27.4373 24.9778 27.4724C24.9633 27.5076 24.9388 27.5375 24.9076 27.5585C24.8764 27.5795 24.8398 27.5907 24.8024 27.5905C24.7525 27.5883 24.7054 27.5661 24.6712 27.5289C24.6371 27.4916 24.6186 27.4422 24.6198 27.3913L24.6134 27.3935ZM24.7132 24.4989H24.8916V26.6553H24.7132V24.4967V24.4989ZM24.1776 24.4909H24.557V25.3564H24.1776V24.4909ZM24.4629 24.7149H24.8424V25.1709H24.4657V24.7127L24.4629 24.7149ZM5.52012 26.5956H5.93311C6.04728 26.5956 6.15677 26.6419 6.2375 26.7242C6.31823 26.8065 6.36358 26.9181 6.36358 27.0345C6.36358 27.151 6.31823 27.2626 6.2375 27.3449C6.15677 27.4272 6.04728 27.4735 5.93311 27.4735H5.52012C5.4635 27.4732 5.40748 27.4616 5.35526 27.4393C5.30303 27.417 5.25563 27.3844 5.21576 27.3434C5.17588 27.3024 5.14432 27.2538 5.12286 27.2004C5.10141 27.147 5.09049 27.0897 5.09072 27.032C5.09096 26.9743 5.10235 26.9171 5.12423 26.8639C5.14612 26.8106 5.17808 26.7623 5.21828 26.7217C5.25849 26.681 5.30615 26.6488 5.35855 26.627C5.41096 26.6051 5.46707 26.5939 5.52369 26.5942L5.52012 26.5956ZM5.93311 27.288C5.99933 27.288 6.06283 27.2612 6.10965 27.2134C6.15647 27.1657 6.18277 27.101 6.18277 27.0335C6.18277 26.9659 6.15647 26.9012 6.10965 26.8535C6.06283 26.8057 5.99933 26.7789 5.93311 26.7789H5.52012C5.45391 26.7789 5.39042 26.8057 5.3436 26.8535C5.29678 26.9012 5.27048 26.9659 5.27048 27.0335C5.27048 27.101 5.29678 27.1657 5.3436 27.2134C5.39042 27.2612 5.45391 27.288 5.52012 27.288H5.93311ZM5.53724 27.3927C5.53795 27.3546 5.54967 27.3176 5.57094 27.2863C5.59221 27.2549 5.62208 27.2307 5.6568 27.2166C5.69153 27.2025 5.72957 27.1992 5.76613 27.2071C5.8027 27.215 5.83617 27.2337 5.86235 27.2609C5.88853 27.288 5.90625 27.3225 5.91328 27.3599C5.92032 27.3974 5.91636 27.4361 5.9019 27.4712C5.88744 27.5063 5.86313 27.5364 5.83201 27.5575C5.80089 27.5786 5.76436 27.5898 5.72698 27.5898C5.67653 27.5885 5.62864 27.5669 5.59377 27.5297C5.55889 27.4925 5.53986 27.4427 5.54081 27.3913L5.53724 27.3927ZM5.6371 24.4982H5.81543V26.6545H5.6371V24.4967V24.4982ZM5.10142 24.4902H5.4809V25.3556H5.10142V24.4902ZM5.38674 24.7142H5.76621V25.1702H5.38674V24.7127V24.7142ZM5.10142 25.6705V26.0996C5.10622 26.1592 5.09888 26.219 5.07984 26.2755C5.0608 26.332 5.03048 26.3838 4.9908 26.4277C4.95112 26.4717 4.90293 26.5067 4.8493 26.5307C4.79566 26.5547 4.73773 26.5671 4.67916 26.5671C4.62059 26.5671 4.56266 26.5547 4.50902 26.5307C4.45538 26.5067 4.4072 26.4717 4.36752 26.4277C4.32784 26.3838 4.29753 26.332 4.27849 26.2755C4.25945 26.219 4.25209 26.1592 4.2569 26.0996V25.6727C4.2569 25.5582 4.30154 25.4483 4.38099 25.3673C4.46045 25.2862 4.56821 25.2407 4.68058 25.2407C4.79295 25.2407 4.90073 25.2862 4.98019 25.3673C5.05964 25.4483 5.10428 25.5582 5.10428 25.6727L5.10142 25.6705ZM4.43522 26.0996C4.43151 26.1346 4.43506 26.1699 4.44562 26.2033C4.45619 26.2368 4.47355 26.2675 4.49656 26.2937C4.51957 26.3198 4.54772 26.3407 4.57918 26.355C4.61064 26.3694 4.64471 26.3768 4.67916 26.3768C4.71361 26.3768 4.74768 26.3694 4.77914 26.355C4.8106 26.3407 4.83876 26.3198 4.86177 26.2937C4.88478 26.2675 4.90214 26.2368 4.91271 26.2033C4.92327 26.1699 4.92681 26.1346 4.9231 26.0996V25.6727C4.92681 25.6378 4.92327 25.6025 4.91271 25.569C4.90214 25.5356 4.88478 25.5048 4.86177 25.4787C4.83876 25.4525 4.8106 25.4316 4.77914 25.4173C4.74768 25.403 4.71361 25.3956 4.67916 25.3956C4.64471 25.3956 4.61064 25.403 4.57918 25.4173C4.54772 25.4316 4.51957 25.4525 4.49656 25.4787C4.47355 25.5048 4.45619 25.5356 4.44562 25.569C4.43506 25.6025 4.43151 25.6378 4.43522 25.6727V26.1018V26.0996ZM4.33393 25.688C4.37231 25.6873 4.41002 25.6982 4.44227 25.7194C4.47452 25.7406 4.49986 25.7712 4.51504 25.8071C4.53022 25.8431 4.53455 25.8828 4.5275 25.9213C4.52045 25.9597 4.50233 25.9952 4.47545 26.0231C4.44856 26.051 4.41413 26.0702 4.37654 26.0781C4.33895 26.086 4.2999 26.0823 4.26437 26.0675C4.22884 26.0527 4.19844 26.0274 4.17704 25.995C4.15564 25.9625 4.1442 25.9242 4.14419 25.8851C4.14381 25.8591 4.14852 25.8333 4.15804 25.8092C4.16756 25.785 4.18169 25.7631 4.19963 25.7446C4.21756 25.7261 4.23892 25.7115 4.26247 25.7015C4.28602 25.6915 4.31129 25.6864 4.33678 25.6865L4.33393 25.688ZM7.12002 25.792V25.9775H5.04437V25.7905H7.12002V25.792ZM7.13287 25.2364V25.6305H6.29975V25.2364H7.13287ZM6.91888 25.5273V25.9215H6.48021V25.5273H6.91888ZM27.0921 32H3.70409V31.5411C3.71132 30.6509 3.37199 29.7941 2.7605 29.1586C2.14902 28.5231 1.31531 28.1609 0.442234 28.1513H0V3.848H0.442234C1.31519 3.8384 2.14879 3.47624 2.76025 2.84093C3.37172 2.20562 3.71113 1.349 3.70409 0.458909V0H27.0921V0.458909C27.0848 1.34906 27.4242 2.20578 28.0357 2.84114C28.6472 3.47649 29.4809 3.83859 30.3539 3.848H30.7962V28.1513H30.3539C29.4808 28.1607 28.647 28.5229 28.0354 29.1584C27.4239 29.7939 27.0846 30.6508 27.0921 31.5411V32ZM4.56503 31.0815H26.2311C26.3255 30.1118 26.7419 29.2041 27.4112 28.5086C28.0805 27.8131 28.9627 27.3714 29.9117 27.2567V4.74255C28.9626 4.62798 28.0804 4.18637 27.411 3.49082C26.7417 2.79527 26.3254 1.8875 26.2311 0.917818H4.56503C4.47072 1.8875 4.05445 2.79527 3.38512 3.49082C2.71579 4.18637 1.83355 4.62798 0.884479 4.74255V27.2567C1.8335 27.3714 2.71567 27.8131 3.38498 28.5086C4.05428 29.2041 4.4706 30.1118 4.56503 31.0815ZM25.4922 30.4065H5.30614L5.26334 30.2335C5.04569 29.3498 4.60109 28.5412 3.97527 27.8908C3.34944 27.2404 2.56499 26.7718 1.70261 26.5331L1.53642 26.488V5.51055L1.70261 5.46546C2.56506 5.22688 3.34959 4.75829 3.97543 4.1079C4.60127 3.45752 5.04582 2.64883 5.26334 1.76509L5.30614 1.592H25.4922L25.5357 1.76582C25.753 2.64954 26.1974 3.45824 26.8231 4.10864C27.4489 4.75904 28.2333 5.22763 29.0957 5.46618L29.2619 5.51127V26.4887L29.0957 26.5338C28.2333 26.7724 27.4489 27.2411 26.8232 27.8914C26.1975 28.5418 25.7531 29.3505 25.5357 30.2342L25.4922 30.4065ZM5.64566 29.944H25.1512C25.4018 29.0475 25.8685 28.2291 26.5088 27.5636C27.149 26.8981 27.9425 26.4066 28.8168 26.1338V5.86545C27.9424 5.59277 27.149 5.10126 26.5087 4.43573C25.8684 3.77021 25.4017 2.95185 25.1512 2.05527H5.64566C5.39488 2.95184 4.92803 3.77016 4.28765 4.43567C3.64728 5.10117 2.85375 5.5927 1.97937 5.86545V26.1338C2.85369 26.4067 3.64716 26.8983 4.28751 27.5637C4.92787 28.2292 5.39476 29.0475 5.64566 29.944Z" fill="#EBECEE"/>
</g>
<defs>
<clipPath id="clip0_59_500">
<rect width="102" height="32" fill="white"/>
</clipPath>
</defs>
</svg>
