<svg width="40" height="40" viewBox="0 0 40 40" fill="none" xmlns="http://www.w3.org/2000/svg">
<rect width="40" height="40" rx="20" fill="white" fill-opacity="0.6"/>
<g filter="url(#filter0_d_66_1314)">
<path fill-rule="evenodd" clip-rule="evenodd" d="M20.0021 22.8314L27.0727 29.9021C27.4479 30.2773 27.9568 30.4881 28.4874 30.4881C29.018 30.4881 29.5269 30.2773 29.9021 29.9021C30.2773 29.5269 30.4881 29.018 30.4881 28.4874C30.4881 27.9568 30.2773 27.448 29.9021 27.0728L22.8287 20.0021L29.9007 12.9314C30.0864 12.7457 30.2337 12.5251 30.3342 12.2824C30.4346 12.0397 30.4863 11.7796 30.4862 11.517C30.4862 11.2543 30.4344 10.9942 30.3338 10.7516C30.2332 10.5089 30.0859 10.2885 29.9001 10.1028C29.7143 9.91708 29.4938 9.7698 29.2511 9.66934C29.0084 9.56888 28.7483 9.5172 28.4856 9.51726C28.2229 9.51733 27.9629 9.56912 27.7202 9.6697C27.4776 9.77027 27.2571 9.91766 27.0714 10.1034L20.0021 17.1741L12.9314 10.1034C12.747 9.91233 12.5264 9.75986 12.2824 9.65493C12.0385 9.55 11.7761 9.4947 11.5105 9.49227C11.2449 9.48984 10.9816 9.54032 10.7357 9.64076C10.4899 9.74121 10.2665 9.88961 10.0786 10.0773C9.89077 10.265 9.74216 10.4882 9.64148 10.734C9.5408 10.9797 9.49007 11.2431 9.49225 11.5086C9.49444 11.7742 9.54948 12.0366 9.65419 12.2807C9.75889 12.5248 9.91114 12.7455 10.1021 12.9301L17.1754 20.0021L10.1034 27.0741C9.91248 27.2587 9.76022 27.4794 9.65552 27.7235C9.55082 27.9676 9.49577 28.23 9.49359 28.4956C9.49141 28.7611 9.54213 29.0245 9.64281 29.2702C9.74349 29.516 9.8921 29.7392 10.08 29.9269C10.2678 30.1146 10.4912 30.263 10.7371 30.3634C10.9829 30.4639 11.2463 30.5144 11.5118 30.5119C11.7774 30.5095 12.0398 30.4542 12.2838 30.3493C12.5277 30.2443 12.7483 30.0919 12.9327 29.9008L20.0021 22.8314Z" fill="#545461"/>
</g>
<defs>
<filter id="filter0_d_66_1314" x="3.49219" y="6.49219" width="32.9961" height="33.0195" filterUnits="userSpaceOnUse" color-interpolation-filters="sRGB">
<feFlood flood-opacity="0" result="BackgroundImageFix"/>
<feColorMatrix in="SourceAlpha" type="matrix" values="0 0 0 0 0 0 0 0 0 0 0 0 0 0 0 0 0 0 127 0" result="hardAlpha"/>
<feOffset dy="3"/>
<feGaussianBlur stdDeviation="3"/>
<feComposite in2="hardAlpha" operator="out"/>
<feColorMatrix type="matrix" values="0 0 0 0 0.481519 0 0 0 0 0.481519 0 0 0 0 0.522917 0 0 0 0.6 0"/>
<feBlend mode="normal" in2="BackgroundImageFix" result="effect1_dropShadow_66_1314"/>
<feBlend mode="normal" in="SourceGraphic" in2="effect1_dropShadow_66_1314" result="shape"/>
</filter>
</defs>
</svg>
