<svg width="108" height="32" viewBox="0 0 108 32" fill="none" xmlns="http://www.w3.org/2000/svg">
<path d="M51.5592 4.44775C50.66 4.08276 49.9709 3.53952 49.9709 2.39363C49.9709 0.891246 51.1222 0 52.5677 0C54.0132 0 55.0133 0.942175 55.0385 2.487L53.8956 2.75862C53.7779 1.68912 53.2905 1.20531 52.5425 1.20531C51.887 1.20531 51.2567 1.57029 51.2567 2.2748C51.2567 2.97931 51.887 3.24244 52.3912 3.43767L53.5678 3.90451C54.6015 4.31194 55.3159 4.88064 55.3159 6.07745C55.3159 7.63077 54.1057 8.49655 52.5761 8.49655C50.9289 8.49655 49.7356 7.48647 49.7188 5.79735L50.8617 5.55968C51.0046 6.63767 51.5256 7.28276 52.5509 7.28276C53.2653 7.28276 54.0048 6.97719 54.0048 6.15385C54.0048 5.38992 53.3661 5.16923 52.677 4.89761L51.5424 4.43926L51.5592 4.44775Z" fill="#EBECEE"/>
<path d="M59.5444 8.42737L59.5192 7.99448C59.057 8.29156 58.5779 8.50376 58.0821 8.50376C57.0988 8.50376 55.9727 7.85867 55.9727 6.02525V2.47724H57.2081V5.9149C57.2081 7.08626 57.7795 7.32392 58.2249 7.32392C58.7292 7.32392 59.3175 7.02684 59.4856 6.07618V2.46875H60.7126V8.42737H59.5444Z" fill="#EBECEE"/>
<path d="M65.3685 4.86321C65.192 3.79371 64.5785 3.58151 64.0827 3.58151C63.5112 3.58151 62.9145 3.88708 62.7044 4.86321H65.3601H65.3685ZM62.696 5.8648C62.8389 7.09557 63.5112 7.33323 64.0574 7.33323C64.6037 7.33323 65.0911 7.09557 65.4357 6.59477L66.5114 6.87488C66.1921 7.87647 65.2844 8.50459 64.0827 8.50459C62.7212 8.50459 61.4102 7.68973 61.4102 5.47435C61.4102 3.25896 62.7548 2.41016 64.049 2.41016C65.3433 2.41016 66.6711 3.21652 66.6711 5.46586V5.8648H62.696Z" fill="#EBECEE"/>
<path d="M71.2296 5.0489C71.0699 3.91999 70.4228 3.58047 69.843 3.58047C69.2631 3.58047 68.4983 3.9115 68.4983 5.44784C68.4983 6.98418 69.2547 7.3237 69.8261 7.3237C70.3976 7.3237 71.0279 7.0436 71.2212 6.07596V5.04041L71.2296 5.0489ZM71.2885 8.42715L71.2633 7.97728C70.759 8.35076 70.3388 8.49505 69.8261 8.49505C68.5907 8.49505 67.2461 7.68869 67.2461 5.45633C67.2461 3.22397 68.5992 2.40062 69.8093 2.40062C70.2968 2.40062 70.7338 2.52794 71.2212 2.88444V0.0664062H72.4482V8.42715H71.2801H71.2885Z" fill="#EBECEE"/>
<path d="M74.9418 1.72481C74.4796 1.72481 74.1266 1.35134 74.1266 0.901468C74.1266 0.451601 74.4796 0.078125 74.9418 0.078125C75.404 0.078125 75.7654 0.451601 75.7654 0.901468C75.7654 1.35134 75.3956 1.72481 74.9418 1.72481ZM73.1602 8.43038V7.29298H74.3451V3.61765H73.1602V2.48025H75.5637V7.29298H76.7487V8.43038H73.1602Z" fill="#EBECEE"/>
<path d="M80.628 5.79757L79.2329 5.89094C78.611 5.94187 78.3421 6.205 78.3421 6.68882C78.3421 6.99439 78.4597 7.32542 79.2497 7.32542C79.6783 7.32542 80.1826 7.23205 80.628 6.74823V5.79757ZM80.6952 8.42887L80.67 7.99598C80.191 8.3355 79.6783 8.50526 79.1404 8.50526C78.0227 8.50526 77.0898 7.95354 77.0898 6.73974C77.0898 5.52595 77.9387 4.96574 79.1993 4.88086L80.6196 4.78749V4.60924C80.6196 3.9302 80.2498 3.5737 79.5691 3.5737C79.09 3.5737 78.6698 3.75195 78.3589 4.11693L77.3588 3.81985C77.6277 2.98802 78.5269 2.40234 79.6363 2.40234C81.0146 2.40234 81.8634 3.31057 81.8634 4.49041V8.42887H80.6952Z" fill="#EBECEE"/>
<path d="M52.4047 21.4501C50.934 20.8559 49.8163 19.9731 49.8163 18.0888C49.8163 15.6357 51.7072 14.1758 54.0687 14.1758C56.4303 14.1758 58.0691 15.7121 58.1111 18.2416L56.2454 18.6829C56.0521 16.9344 55.2537 16.1535 54.0351 16.1535C52.9678 16.1535 51.9425 16.7477 51.9425 17.902C51.9425 19.0564 52.9678 19.4723 53.7914 19.8034L55.7159 20.5673C57.4136 21.2379 58.5733 22.1631 58.5733 24.1153C58.5733 26.6447 56.59 28.0707 54.094 28.0707C51.4046 28.0707 49.4465 26.4241 49.4297 23.6569L51.2954 23.275C51.5223 25.0405 52.3795 26.093 54.0603 26.093C55.2201 26.093 56.4387 25.5922 56.4387 24.2511C56.4387 23.0034 55.3882 22.6384 54.2704 22.197L52.4215 21.4501H52.4047Z" fill="#EBECEE"/>
<path d="M74.1028 22.1203C73.817 20.3718 72.8086 20.0323 72.0102 20.0323C71.0773 20.0323 70.1024 20.5331 69.7663 22.1203H74.1112H74.1028ZM69.741 23.75C69.968 25.7617 71.0773 26.1522 71.9681 26.1522C72.859 26.1522 73.6658 25.7702 74.2204 24.9384L75.9685 25.3967C75.4558 27.0264 73.9683 28.062 72.0102 28.062C69.7831 28.062 67.6484 26.7378 67.6484 23.1134C67.6484 19.489 69.8419 18.1055 71.9513 18.1055C74.0608 18.1055 76.2374 19.4296 76.2374 23.0965V23.75H69.741Z" fill="#EBECEE"/>
<path d="M86.3693 16.9738C85.6298 16.9738 85.0331 16.3372 85.0331 15.5563C85.0331 14.7754 85.6214 14.1133 86.3693 14.1133C87.1173 14.1133 87.7392 14.7499 87.7392 15.5563C87.7392 16.3626 87.1341 16.9738 86.3693 16.9738ZM83.4531 27.9488V26.0899H85.3945V20.0804H83.4531V18.2215H87.3778V26.0899H89.3192V27.9488H83.4531Z" fill="#EBECEE"/>
<path d="M96.1538 22.4259C95.9017 20.7368 94.9352 20.0238 93.8511 20.0238C92.9182 20.0238 91.6996 20.5585 91.6996 23.0965C91.6996 25.6344 92.9014 26.1522 93.8931 26.1522C94.8091 26.1522 95.9101 25.6938 96.1622 24.1405V22.4344L96.1538 22.4259ZM96.1538 27.1113C95.2546 27.9007 94.515 28.0705 93.8091 28.0705C91.8845 28.0705 89.6406 26.7463 89.6406 23.0795C89.6406 19.4126 91.8845 18.1055 93.7923 18.1055C94.6495 18.1055 95.3554 18.3771 96.2126 19.124L96.2715 18.2243H98.1792V27.9516C98.1792 30.2774 96.5404 32.0004 93.9687 32.0004C91.9854 32.0004 90.5231 30.9988 90.044 29.3352L91.7921 28.8768C92.3467 29.7002 93.1451 30.0821 94.0444 30.0821C95.3974 30.0821 96.1622 29.2418 96.1622 27.9516V27.1113H96.1538Z" fill="#EBECEE"/>
<path d="M105.868 22.1203C105.583 20.3718 104.574 20.0323 103.776 20.0323C102.843 20.0323 101.868 20.5331 101.523 22.1203H105.868ZM101.507 23.75C101.734 25.7617 102.843 26.1522 103.734 26.1522C104.625 26.1522 105.431 25.7702 105.978 24.9384L107.734 25.3967C107.221 27.0264 105.734 28.062 103.776 28.062C101.549 28.062 99.4141 26.7378 99.4141 23.1134C99.4141 19.489 101.608 18.1055 103.717 18.1055C105.826 18.1055 108.003 19.4296 108.003 23.0965V23.75H101.507Z" fill="#EBECEE"/>
<path d="M82.6234 18.2491C82.262 18.1557 81.9007 18.1133 81.6906 18.1133C80.9258 18.1133 80.1106 18.6141 79.3878 19.344L79.3122 18.2321H77.4297V27.9594H79.4467V22.3403C79.7156 20.787 80.6484 20.2692 81.5057 20.2692C81.7914 20.2692 82.136 20.3287 82.6318 20.422V18.2576L82.6234 18.2491Z" fill="#EBECEE"/>
<path d="M62.2263 27.9585L58.7891 18.2227H60.8817L63.2096 25.1574L65.546 18.2227H67.6302L64.2013 27.9585H62.2263Z" fill="#EBECEE"/>
<path d="M19.3798 0.0664062H13.8415V11.2197H0V16.7964H13.8415V27.9497H19.3798V16.7964H44.2896V11.2197H19.3798V0.0664062Z" fill="#414C76"/>
<path d="M13.8416 0.0664062H0V11.2197H13.8416V0.0664062Z" fill="#EBECEE"/>
<path d="M44.2926 0.0664062H19.3828V11.2197H44.2926V0.0664062Z" fill="#EBECEE"/>
<path d="M13.8416 16.8008H0V27.9541H13.8416V16.8008Z" fill="#EBECEE"/>
<path d="M44.2926 16.8008H19.3828V27.9541H44.2926V16.8008Z" fill="#EBECEE"/>
</svg>
