<svg width="43" height="48" viewBox="0 0 43 48" fill="none" xmlns="http://www.w3.org/2000/svg">
<path d="M0.0234375 31.6328H2.08329V37.6752C2.08329 38.3511 2.16327 38.8445 2.31659 39.1554C2.56324 39.7096 3.09654 39.9799 3.91648 39.9799C4.73641 39.9799 5.26303 39.7028 5.50968 39.1554C5.66966 38.8445 5.74299 38.3511 5.74299 37.6752V31.6328H7.80283V37.6752C7.80283 38.7228 7.64284 39.5339 7.32287 40.1151C6.72958 41.183 5.58968 41.7169 3.91648 41.7169C2.24328 41.7169 1.09669 41.183 0.5034 40.1151C0.183426 39.5339 0.0234375 38.716 0.0234375 37.6752V31.6328Z" fill="#EBECEE"/>
<path d="M9.78516 31.6328H11.7783V35.6881L15.5247 31.6328H18.1445L14.1648 35.6813L18.3511 41.4669H15.7447L12.7516 37.175L11.7783 38.1821V41.4669H9.78516V31.6328Z" fill="#EBECEE"/>
<path d="M25.3795 36.8203C25.2195 36.9217 25.0596 37.0028 24.8996 37.0636C24.7396 37.1244 24.5196 37.1785 24.2396 37.2326L23.6797 37.3407C23.153 37.4353 22.7731 37.5502 22.5464 37.6854C22.1598 37.9152 21.9665 38.2667 21.9665 38.7465C21.9665 39.1723 22.0865 39.4833 22.3198 39.6725C22.5598 39.8617 22.8464 39.9564 23.1864 39.9564C23.7263 39.9564 24.2196 39.8009 24.6796 39.4832C25.1329 39.1656 25.3729 38.5911 25.3862 37.753V36.8203H25.3795ZM23.873 35.651C24.3329 35.5902 24.6596 35.5226 24.8596 35.4347C25.2129 35.286 25.3929 35.0495 25.3929 34.7251C25.3929 34.333 25.2595 34.0627 24.9862 33.914C24.7129 33.7653 24.3129 33.691 23.7863 33.691C23.193 33.691 22.7797 33.8397 22.5331 34.1303C22.3598 34.3466 22.2398 34.6372 22.1798 35.0089H19.8C19.8533 34.1708 20.0799 33.4814 20.4932 32.9475C21.1465 32.1026 22.2731 31.6836 23.8663 31.6836C24.9062 31.6836 25.8262 31.8931 26.6328 32.3054C27.4394 32.7177 27.8393 33.5085 27.8393 34.6575V39.0439C27.8393 39.3481 27.8393 39.7198 27.8593 40.1524C27.8793 40.4836 27.926 40.6998 28.006 40.8215C28.086 40.9364 28.206 41.0378 28.3726 41.1121V41.4839H25.6862C25.6128 41.2879 25.5595 41.1121 25.5328 40.9364C25.5062 40.7674 25.4795 40.5714 25.4662 40.3551C25.1262 40.7336 24.7263 41.0513 24.2796 41.3149C23.7463 41.6258 23.1397 41.7812 22.4664 41.7812C21.6065 41.7812 20.8999 41.5312 20.3399 41.0378C19.78 40.5444 19.5 39.8415 19.5 38.9358C19.5 37.7598 19.9533 36.9081 20.8532 36.381C21.3465 36.0971 22.0731 35.8876 23.033 35.7659L23.8797 35.6578L23.873 35.651Z" fill="#EBECEE"/>
<path d="M32.3084 28.5547H29.8086V31.0892H32.3084V28.5547Z" fill="#EBECEE"/>
<path d="M32.3084 31.9062H29.8086V41.4767H32.3084V31.9062Z" fill="#EBECEE"/>
<path d="M40.0024 38.8764C40.369 38.3492 40.549 37.6666 40.549 36.8285C40.549 35.6592 40.2557 34.8212 39.6757 34.321C39.3157 34.0169 38.9024 33.8614 38.4292 33.8614C37.7092 33.8614 37.1759 34.1385 36.8426 34.6927C36.5026 35.247 36.336 35.9296 36.336 36.7542C36.336 37.6396 36.5093 38.3425 36.8493 38.8764C37.1893 39.4036 37.7159 39.674 38.4092 39.674C39.1024 39.674 39.6357 39.4104 40.0024 38.8832M39.3958 32.0636C39.8424 32.3204 40.2024 32.6719 40.4757 33.1247V28.5625H42.9755V41.4853H40.5757V40.1606C40.2223 40.7283 39.8224 41.1406 39.3691 41.3975C38.9158 41.6543 38.3558 41.7827 37.6892 41.7827C36.5893 41.7827 35.6561 41.3299 34.9028 40.4242C34.1495 39.5185 33.7695 38.3628 33.7695 36.9434C33.7695 35.3078 34.1428 34.0236 34.8828 33.0909C35.6227 32.1582 36.616 31.6851 37.8559 31.6851C38.4292 31.6851 38.9358 31.8135 39.3824 32.0636H39.3958Z" fill="#EBECEE"/>
<path d="M43 0H0.0234375V26.0146H43V0Z" fill="#414C76"/>
<path fill-rule="evenodd" clip-rule="evenodd" d="M43.0001 8.672V3.03516L33.6875 8.672H43.0001Z" fill="#EBECEE"/>
<path fill-rule="evenodd" clip-rule="evenodd" d="M17.2142 0H5.03516L17.2142 7.37385V0Z" fill="#EBECEE"/>
<path fill-rule="evenodd" clip-rule="evenodd" d="M0.0234375 17.3438V22.9806L9.33603 17.3438H0.0234375Z" fill="#EBECEE"/>
<path fill-rule="evenodd" clip-rule="evenodd" d="M25.8047 0V7.37385L37.977 0H25.8047Z" fill="#EBECEE"/>
<path fill-rule="evenodd" clip-rule="evenodd" d="M0.0234375 3.03516V8.672H9.33603L0.0234375 3.03516Z" fill="#EBECEE"/>
<path fill-rule="evenodd" clip-rule="evenodd" d="M43.0001 22.9806V17.3438H33.6875L43.0001 22.9806Z" fill="#EBECEE"/>
<path fill-rule="evenodd" clip-rule="evenodd" d="M5.03516 26.0145H17.2142V18.6406L5.03516 26.0145Z" fill="#EBECEE"/>
<path fill-rule="evenodd" clip-rule="evenodd" d="M25.8047 26.0145H37.9837L25.8047 18.6406V26.0145Z" fill="#EBECEE"/>
<path d="M0.0234375 26.0146L14.349 17.3431H17.2154V17.6337L3.36318 26.0146H0.0234375ZM25.8081 8.38091L39.6603 0H43L28.6745 8.67154H25.8081V8.38091ZM32.0142 17.3431L43 23.9937V26.0146L28.6745 17.3431H32.0142ZM11.0092 8.67154L0.0234375 2.02088V0L14.349 8.67154H11.0092Z" fill="#EBECEE"/>
<path d="M18.9353 26.0146V15.6061H0.0234375V10.4086H18.9353V0H24.0882V10.4086H43V15.6061H24.0882V26.0146H18.9353Z" fill="#EBECEE"/>
<path d="M0 45.2223V44.8911H0.373302V44.5532C0.373302 44.3707 0.426645 44.2288 0.533303 44.1341C0.639961 44.0395 0.793284 43.9922 0.993268 43.9922C1.0266 43.9922 1.06659 43.9922 1.11325 43.9989C1.15992 43.9989 1.19991 44.0125 1.23324 44.026V44.3504C1.23324 44.3504 1.16658 44.3301 1.13325 44.3301C1.09325 44.3301 1.05992 44.3234 1.02659 44.3234C0.939931 44.3234 0.866605 44.3437 0.819942 44.3774C0.773279 44.4112 0.746624 44.4788 0.746624 44.5802V44.8979H1.17992V45.229H0.746624V47.1688H0.379975V45.229H0.00667265L0 45.2223Z" fill="#EBECEE"/>
<path d="M1.77909 44.8918V45.3717H1.78576C1.87242 45.1892 1.98574 45.054 2.11239 44.9661C2.23905 44.8783 2.40572 44.8377 2.6057 44.8445V45.2365C2.45905 45.2365 2.33239 45.2568 2.2324 45.2973C2.12574 45.3379 2.04574 45.3987 1.97908 45.4798C1.91242 45.5609 1.86574 45.6555 1.83908 45.7637C1.81241 45.8786 1.79243 46.007 1.79243 46.1489V47.156H1.42578V44.8918H1.77243H1.77909Z" fill="#EBECEE"/>
<path d="M3.13137 46.3905C3.1647 46.4986 3.21803 46.5865 3.27803 46.6608C3.33802 46.7352 3.41801 46.7892 3.498 46.823C3.58466 46.8636 3.67134 46.8771 3.76466 46.8771C3.85799 46.8771 3.95131 46.8568 4.03131 46.823C4.11797 46.7825 4.19128 46.7284 4.25128 46.6608C4.31127 46.5932 4.3646 46.4986 4.39794 46.3905C4.43127 46.2823 4.45128 46.1607 4.45128 46.0255C4.45128 45.8903 4.43127 45.7687 4.39794 45.6605C4.3646 45.5524 4.31127 45.4645 4.25128 45.3902C4.18462 45.3158 4.1113 45.2617 4.03131 45.2212C3.94465 45.1806 3.85799 45.1671 3.76466 45.1671C3.67134 45.1671 3.578 45.1874 3.498 45.2212C3.41134 45.2617 3.33802 45.3158 3.27803 45.3902C3.21137 45.4645 3.1647 45.5524 3.13137 45.6605C3.09804 45.7687 3.07805 45.8903 3.07805 46.0255C3.07805 46.1607 3.09804 46.2823 3.13137 46.3905ZM2.75807 45.5591C2.80473 45.4172 2.87139 45.2888 2.96472 45.1806C3.05805 45.0725 3.17138 44.9914 3.3047 44.9306C3.43802 44.8697 3.598 44.8359 3.77132 44.8359C3.94464 44.8359 4.10463 44.863 4.23795 44.9306C4.37128 44.9914 4.48461 45.0793 4.57793 45.1806C4.67126 45.2888 4.73792 45.4104 4.78458 45.5591C4.83125 45.7011 4.85123 45.8565 4.85123 46.0255C4.85123 46.1945 4.83125 46.3432 4.78458 46.4918C4.73792 46.6338 4.67126 46.7622 4.57793 46.8636C4.48461 46.9717 4.37128 47.0528 4.23795 47.1137C4.10463 47.1745 3.94464 47.2015 3.77132 47.2015C3.598 47.2015 3.43802 47.1745 3.3047 47.1137C3.17138 47.0528 3.05805 46.9717 2.96472 46.8636C2.87139 46.7554 2.80473 46.6338 2.75807 46.4918C2.71141 46.3499 2.69141 46.1945 2.69141 46.0255C2.69141 45.8565 2.71807 45.7011 2.75807 45.5591Z" fill="#EBECEE"/>
<path d="M5.58377 44.89V45.2212H5.59043C5.75708 44.9644 5.99707 44.8359 6.31038 44.8359C6.45037 44.8359 6.57702 44.863 6.68368 44.9238C6.79701 44.9846 6.87699 45.0793 6.92365 45.2212C6.99698 45.0995 7.09697 45.0049 7.21696 44.9373C7.33695 44.8697 7.47695 44.8359 7.62361 44.8359C7.73693 44.8359 7.83692 44.8495 7.93025 44.8765C8.02357 44.9035 8.0969 44.9373 8.16356 44.9914C8.23023 45.0455 8.27688 45.1131 8.31687 45.1942C8.3502 45.2753 8.37021 45.3766 8.37021 45.4915V47.1542H8.00356V45.6673C8.00356 45.5997 8.00356 45.5321 7.98357 45.4713C7.96357 45.4104 7.95025 45.3564 7.91692 45.3091C7.88359 45.2617 7.84358 45.2279 7.78359 45.2009C7.73026 45.1739 7.65694 45.1604 7.56362 45.1604C7.38363 45.1604 7.23697 45.2144 7.13697 45.3158C7.03032 45.4172 6.98365 45.5591 6.98365 45.7349V47.1475H6.61702V45.6605C6.61702 45.5862 6.61035 45.5186 6.59702 45.4578C6.58369 45.3969 6.56368 45.3428 6.53035 45.2955C6.49702 45.2482 6.45702 45.2144 6.40369 45.1874C6.35037 45.1604 6.28371 45.1468 6.19705 45.1468C6.09039 45.1468 5.99706 45.1671 5.92373 45.2144C5.8504 45.2617 5.78374 45.3091 5.73708 45.3699C5.69042 45.4307 5.65709 45.4983 5.63042 45.5591C5.61042 45.6267 5.5971 45.6808 5.5971 45.7213V47.1339H5.23047V44.8697H5.5771L5.58377 44.89Z" fill="#EBECEE"/>
<path d="M11.0749 44.8964V45.2276H10.6283V46.6334C10.6283 46.674 10.6283 46.7145 10.6416 46.7348C10.6416 46.7619 10.6616 46.7821 10.6816 46.7957C10.7016 46.8092 10.7283 46.8227 10.7683 46.8227C10.8016 46.8227 10.8483 46.8227 10.9083 46.8227H11.0749V47.1539H10.7949C10.7016 47.1539 10.6216 47.1539 10.5483 47.1336C10.4816 47.1201 10.4283 47.093 10.3816 47.0592C10.3416 47.0255 10.3083 46.9781 10.2883 46.9106C10.2683 46.843 10.255 46.7619 10.255 46.6537V45.2141H9.875V44.8829H10.255V44.207H10.6216V44.8829H11.0682L11.0749 44.8964Z" fill="#EBECEE"/>
<path d="M11.7573 44.0312V45.2276H11.7639C11.7906 45.16 11.8306 45.0991 11.8839 45.0518C11.9372 45.0045 11.9972 44.964 12.0572 44.9369C12.1239 44.9099 12.1906 44.8829 12.2639 44.8693C12.3305 44.8558 12.4039 44.8491 12.4705 44.8491C12.6172 44.8491 12.7438 44.8693 12.8372 44.9099C12.9372 44.9504 13.0172 45.0113 13.0772 45.0789C13.1372 45.1532 13.1771 45.2411 13.2038 45.3357C13.2305 45.4371 13.2371 45.5452 13.2371 45.6736V47.1606H12.8705V45.6263C12.8705 45.4844 12.8305 45.3762 12.7505 45.2951C12.6705 45.214 12.5572 45.1735 12.4172 45.1735C12.3039 45.1735 12.2039 45.1938 12.1239 45.2276C12.0439 45.2613 11.9706 45.3087 11.9172 45.3763C11.8639 45.4438 11.8239 45.5182 11.7972 45.5993C11.7706 45.6872 11.7573 45.7818 11.7573 45.8832V47.1606H11.3906V44.0312H11.7573Z" fill="#EBECEE"/>
<path d="M15.2203 45.5573C15.187 45.4762 15.1403 45.4086 15.087 45.3546C15.0336 45.3005 14.967 45.2532 14.887 45.2194C14.8137 45.1856 14.727 45.1721 14.6337 45.1721C14.5403 45.1721 14.4537 45.1924 14.3737 45.2194C14.2937 45.2532 14.2337 45.3005 14.1737 45.3613C14.1204 45.4222 14.0737 45.4897 14.0404 45.5641C14.007 45.6452 13.9937 45.7263 13.987 45.8142H15.2736C15.2736 45.7263 15.2469 45.6452 15.2136 45.5641M15.3003 47.0172C15.1336 47.1456 14.9203 47.2132 14.667 47.2132C14.487 47.2132 14.3337 47.1862 14.2004 47.1254C14.067 47.0645 13.9604 46.9834 13.8671 46.8821C13.7804 46.7739 13.7071 46.6523 13.6671 46.5036C13.6204 46.3549 13.5938 46.1994 13.5938 46.0237C13.5938 45.848 13.6204 45.6925 13.6737 45.5506C13.7271 45.4086 13.8004 45.2802 13.8937 45.1788C13.9871 45.0707 14.1004 44.9896 14.227 44.9355C14.3537 44.8747 14.4937 44.8477 14.647 44.8477C14.847 44.8477 15.0136 44.8882 15.1403 44.9693C15.2736 45.0504 15.3803 45.1586 15.4536 45.287C15.5336 45.4154 15.5869 45.5573 15.6203 45.706C15.6536 45.8615 15.6603 46.0034 15.6603 46.1386H13.987C13.987 46.24 13.9937 46.3346 14.0204 46.4225C14.047 46.5103 14.087 46.5914 14.147 46.659C14.207 46.7266 14.2804 46.7807 14.367 46.8212C14.4537 46.8618 14.5603 46.8821 14.6803 46.8821C14.8337 46.8821 14.9603 46.8415 15.0603 46.7739C15.1603 46.6996 15.227 46.5914 15.2603 46.4427H15.6203C15.5736 46.6996 15.4603 46.8888 15.2936 47.0172H15.3003Z" fill="#EBECEE"/>
<path d="M18.7574 46.8091C18.9374 46.8091 19.0841 46.7618 19.1841 46.6604C19.2841 46.559 19.3374 46.4239 19.3374 46.2481C19.3374 46.1468 19.3174 46.0589 19.2841 45.9913C19.2441 45.9237 19.1974 45.8696 19.1374 45.8291C19.0774 45.7885 19.0041 45.7615 18.9241 45.748C18.8441 45.7345 18.7574 45.7277 18.6708 45.7277H17.7309V46.8091H18.7574ZM18.5508 45.3763C18.7841 45.3763 18.9508 45.3357 19.0574 45.2478C19.1574 45.1667 19.2107 45.0383 19.2107 44.8761C19.2107 44.768 19.1907 44.6801 19.1574 44.6125C19.1241 44.5449 19.0774 44.4976 19.0174 44.4638C18.9574 44.43 18.8841 44.403 18.8108 44.3962C18.7308 44.3895 18.6441 44.3827 18.5575 44.3827H17.7375V45.3763H18.5575H18.5508ZM18.4375 44.0313C18.5041 44.0313 18.5774 44.0313 18.6508 44.0313C18.7241 44.0313 18.8041 44.0312 18.8774 44.0448C18.9507 44.0448 19.0241 44.065 19.0907 44.0786C19.1574 44.0921 19.2107 44.1124 19.2574 44.1461C19.3574 44.207 19.4441 44.2948 19.5174 44.403C19.5907 44.5111 19.624 44.6463 19.624 44.8018C19.624 44.9707 19.584 45.1127 19.504 45.2343C19.424 45.356 19.3107 45.4438 19.1641 45.5047C19.3574 45.552 19.4974 45.6398 19.604 45.775C19.704 45.9102 19.7574 46.0724 19.7574 46.2684C19.7574 46.3833 19.7374 46.4915 19.6974 46.5996C19.6574 46.7077 19.5974 46.8024 19.5174 46.8835C19.4374 46.9646 19.3441 47.0322 19.2241 47.0862C19.1041 47.1403 18.9707 47.1606 18.8174 47.1606H17.3242V44.0313H18.4441H18.4375Z" fill="#EBECEE"/>
<path d="M20.4951 44.8918V45.3717H20.5017C20.5884 45.1892 20.7017 45.054 20.8284 44.9661C20.9551 44.8783 21.1217 44.8377 21.3217 44.8445V45.2365C21.175 45.2365 21.0484 45.2568 20.9484 45.2973C20.8417 45.3379 20.7617 45.3987 20.6951 45.4798C20.6284 45.5609 20.5884 45.6555 20.5551 45.7637C20.5284 45.8786 20.5151 46.007 20.5151 46.1489V47.156H20.1484V44.8918H20.4951Z" fill="#EBECEE"/>
<path d="M21.9331 44.8896V47.1538H21.5664V44.8896H21.9331ZM21.5664 44.4841V44.0312H21.9331V44.4841H21.5664Z" fill="#EBECEE"/>
<path d="M23.3913 44.8964V45.2276H22.9447V46.6334C22.9447 46.674 22.9447 46.7145 22.958 46.7348C22.958 46.7619 22.978 46.7821 22.998 46.7957C23.018 46.8092 23.0447 46.8227 23.0847 46.8227C23.118 46.8227 23.1647 46.8227 23.2247 46.8227H23.3913V47.1539H23.1113C23.018 47.1539 22.938 47.1539 22.8647 47.1336C22.798 47.1201 22.7447 47.093 22.698 47.0592C22.658 47.0255 22.6247 46.9781 22.6047 46.9106C22.5847 46.843 22.5714 46.7619 22.5714 46.6537V45.2141H22.1914V44.8829H22.5714V44.207H22.938V44.8829H23.3847L23.3913 44.8964Z" fill="#EBECEE"/>
<path d="M24.0971 44.8896V47.1538H23.7305V44.8896H24.0971ZM23.7305 44.4841V44.0312H24.0971V44.4841H23.7305Z" fill="#EBECEE"/>
<path d="M24.8876 46.6551C24.9209 46.7092 24.9676 46.7565 25.0209 46.7903C25.0742 46.8241 25.1409 46.8511 25.2075 46.8646C25.2809 46.8781 25.3542 46.8849 25.4275 46.8849C25.4875 46.8849 25.5475 46.8849 25.6075 46.8714C25.6675 46.8646 25.7275 46.8444 25.7808 46.8241C25.8342 46.8038 25.8808 46.7632 25.9142 46.7227C25.9475 46.6754 25.9675 46.6213 25.9675 46.547C25.9675 46.4523 25.9342 46.378 25.8608 46.3307C25.7875 46.2834 25.7008 46.2428 25.5942 46.209C25.4875 46.182 25.3675 46.1482 25.2409 46.1279C25.1142 46.1009 24.9942 46.0671 24.8876 46.0198C24.7809 45.9725 24.6876 45.9116 24.6209 45.8305C24.5476 45.7494 24.5143 45.6345 24.5143 45.4858C24.5143 45.3709 24.5409 45.2763 24.5876 45.1885C24.6409 45.1073 24.7009 45.0398 24.7809 44.9924C24.8609 44.9384 24.9476 44.9046 25.0476 44.8775C25.1476 44.8505 25.2475 44.8438 25.3409 44.8438C25.4675 44.8438 25.5809 44.8573 25.6942 44.8775C25.8008 44.8978 25.8941 44.9384 25.9741 44.9924C26.0541 45.0465 26.1208 45.1209 26.1741 45.2087C26.2208 45.3033 26.2541 45.4183 26.2608 45.5534H25.8942C25.8942 45.4791 25.8675 45.4182 25.8408 45.3709C25.8075 45.3236 25.7675 45.2831 25.7208 45.256C25.6742 45.229 25.6208 45.202 25.5608 45.1952C25.5009 45.1817 25.4409 45.1749 25.3809 45.1749C25.3275 45.1749 25.2675 45.1749 25.2142 45.1885C25.1609 45.1952 25.1075 45.2155 25.0609 45.2358C25.0142 45.256 24.9742 45.2898 24.9476 45.3236C24.9209 45.3574 24.9009 45.4047 24.9009 45.4656C24.9009 45.5331 24.9209 45.5805 24.9676 45.6278C25.0142 45.6683 25.0675 45.7089 25.1409 45.7359C25.2142 45.7629 25.2875 45.7832 25.3742 45.8035C25.4609 45.8238 25.5475 45.8441 25.6342 45.8643C25.7275 45.8846 25.8142 45.9116 25.9008 45.9387C25.9875 45.9657 26.0675 46.0063 26.1341 46.0536C26.2008 46.1009 26.2541 46.1617 26.3008 46.2361C26.3408 46.3104 26.3608 46.3983 26.3608 46.5064C26.3608 46.6416 26.3341 46.7565 26.2741 46.8511C26.2208 46.939 26.1475 47.0133 26.0542 47.0674C25.9608 47.1215 25.8608 47.162 25.7475 47.1823C25.6342 47.2026 25.5209 47.2161 25.4075 47.2161C25.2809 47.2161 25.1676 47.2026 25.0542 47.1755C24.9409 47.1485 24.8409 47.108 24.7542 47.0471C24.6676 46.9863 24.6009 46.9052 24.5476 46.8106C24.4943 46.7092 24.4676 46.5943 24.4609 46.4523H24.8276C24.8276 46.5335 24.8476 46.601 24.8809 46.6619" fill="#EBECEE"/>
<path d="M27.0893 44.0312V45.2276H27.096C27.1226 45.16 27.1626 45.0991 27.2159 45.0518C27.2693 45.0045 27.3293 44.964 27.3893 44.9369C27.4559 44.9099 27.5226 44.8829 27.5892 44.8693C27.6626 44.8558 27.7292 44.8491 27.7959 44.8491C27.9425 44.8491 28.0626 44.8693 28.1625 44.9099C28.2625 44.9504 28.3425 45.0113 28.4025 45.0789C28.4625 45.1532 28.5025 45.2411 28.5292 45.3357C28.5558 45.4371 28.5692 45.5452 28.5692 45.6736V47.1606H28.2025V45.6263C28.2025 45.4844 28.1625 45.3762 28.0826 45.2951C28.0026 45.214 27.8892 45.1735 27.7492 45.1735C27.6359 45.1735 27.5359 45.1938 27.4559 45.2276C27.3759 45.2613 27.3026 45.3087 27.2493 45.3763C27.196 45.4438 27.1559 45.5182 27.1293 45.5993C27.1026 45.6872 27.0893 45.7818 27.0893 45.8832V47.1606H26.7227V44.0312H27.0893Z" fill="#EBECEE"/>
<path d="M32.027 45.6943C32.0004 45.5929 31.9604 45.5051 31.9004 45.424C31.8471 45.3428 31.7737 45.282 31.6871 45.2347C31.6004 45.1874 31.4938 45.1671 31.3804 45.1671C31.2538 45.1671 31.1538 45.1942 31.0671 45.2415C30.9805 45.2888 30.9138 45.3564 30.8538 45.4375C30.8005 45.5186 30.7605 45.6064 30.7338 45.7078C30.7072 45.8092 30.6938 45.9173 30.6938 46.0187C30.6938 46.1269 30.7072 46.235 30.7338 46.3432C30.7605 46.4445 30.8005 46.5392 30.8605 46.6135C30.9138 46.6946 30.9871 46.7554 31.0805 46.8028C31.1671 46.8501 31.2804 46.8771 31.4071 46.8771C31.5338 46.8771 31.6404 46.8501 31.7271 46.8028C31.8137 46.7554 31.8804 46.6879 31.9337 46.6067C31.9871 46.5256 32.0204 46.431 32.047 46.3296C32.067 46.2215 32.0804 46.1134 32.0804 46.0052C32.0804 45.8971 32.067 45.7957 32.0404 45.6943M30.7205 44.89V45.1942H30.7272C30.7872 45.0657 30.8805 44.9779 31.0138 44.9238C31.1405 44.863 31.2871 44.8359 31.4404 44.8359C31.6137 44.8359 31.7604 44.8697 31.8937 44.9306C32.0204 44.9982 32.127 45.0793 32.2137 45.1874C32.3004 45.2955 32.3604 45.424 32.407 45.5659C32.4537 45.7078 32.4737 45.8633 32.4737 46.0187C32.4737 46.1742 32.4537 46.3296 32.4137 46.4716C32.3737 46.6135 32.307 46.7419 32.227 46.8433C32.1404 46.9514 32.0337 47.0326 31.9071 47.0934C31.7804 47.1542 31.6271 47.188 31.4604 47.188C31.4071 47.188 31.3471 47.188 31.2738 47.1677C31.2071 47.1542 31.1405 47.1339 31.0738 47.1137C31.0071 47.0866 30.9471 47.0528 30.8871 47.0055C30.8272 46.9582 30.7805 46.9041 30.7405 46.8365H30.7338V47.9991H30.3672V44.8697H30.7338L30.7205 44.89Z" fill="#EBECEE"/>
<path d="M34.3242 45.5573C34.2908 45.4762 34.2441 45.4086 34.1908 45.3546C34.1375 45.3005 34.0708 45.2532 33.9908 45.2194C33.9175 45.1856 33.8309 45.1721 33.7375 45.1721C33.6442 45.1721 33.5575 45.1924 33.4775 45.2194C33.4042 45.2532 33.3376 45.3005 33.2842 45.3613C33.2309 45.4222 33.1842 45.4897 33.1576 45.5641C33.1242 45.6452 33.1042 45.7263 33.1042 45.8142H34.3908C34.3908 45.7263 34.3641 45.6452 34.3308 45.5641M34.4175 47.0172C34.2508 47.1456 34.0375 47.2132 33.7842 47.2132C33.6042 47.2132 33.4509 47.1862 33.3176 47.1254C33.1842 47.0645 33.0776 46.9834 32.9843 46.8821C32.8976 46.7739 32.8309 46.6523 32.7843 46.5036C32.7376 46.3549 32.7176 46.1994 32.7109 46.0237C32.7109 45.848 32.7376 45.6925 32.7909 45.5506C32.8443 45.4086 32.9176 45.2802 33.0109 45.1788C33.1042 45.0707 33.2176 44.9896 33.3442 44.9355C33.4709 44.8747 33.6109 44.8477 33.7642 44.8477C33.9642 44.8477 34.1308 44.8882 34.2575 44.9693C34.3908 45.0504 34.4975 45.1586 34.5708 45.287C34.6508 45.4154 34.7041 45.5573 34.7374 45.706C34.7641 45.8615 34.7774 46.0034 34.7708 46.1386H33.0976C33.0976 46.24 33.1042 46.3346 33.1309 46.4225C33.1576 46.5103 33.1976 46.5914 33.2576 46.659C33.3176 46.7266 33.3909 46.7807 33.4775 46.8212C33.5642 46.8618 33.6709 46.8821 33.7908 46.8821C33.9442 46.8821 34.0708 46.8415 34.1708 46.7739C34.2708 46.6996 34.3375 46.5914 34.3708 46.4427H34.7308C34.6841 46.6996 34.5775 46.8888 34.4041 47.0172H34.4175Z" fill="#EBECEE"/>
<path d="M35.4439 46.3905C35.4772 46.4986 35.5305 46.5865 35.5905 46.6608C35.6505 46.7352 35.7305 46.7892 35.8105 46.823C35.8905 46.8568 35.9838 46.8771 36.0772 46.8771C36.1705 46.8771 36.2638 46.8568 36.3505 46.823C36.4371 46.7825 36.5105 46.7284 36.5705 46.6608C36.6371 46.5865 36.6838 46.4986 36.7171 46.3905C36.7504 46.2823 36.7704 46.1607 36.7704 46.0255C36.7704 45.8903 36.7504 45.7687 36.7171 45.6605C36.6838 45.5524 36.6304 45.4645 36.5705 45.3902C36.5105 45.3158 36.4305 45.2617 36.3505 45.2212C36.2638 45.1806 36.1772 45.1671 36.0772 45.1671C35.9772 45.1671 35.8905 45.1874 35.8105 45.2212C35.7305 45.255 35.6505 45.3158 35.5905 45.3902C35.5239 45.4645 35.4772 45.5524 35.4439 45.6605C35.4105 45.7687 35.3906 45.8903 35.3906 46.0255C35.3906 46.1607 35.4105 46.2823 35.4439 46.3905ZM35.0706 45.5591C35.1172 45.4172 35.1839 45.2888 35.2772 45.1806C35.3705 45.0725 35.4839 44.9914 35.6172 44.9306C35.7505 44.8697 35.9105 44.8359 36.0838 44.8359C36.2571 44.8359 36.4171 44.863 36.5505 44.9306C36.6838 44.9914 36.7971 45.0793 36.8904 45.1806C36.9838 45.2888 37.0504 45.4104 37.0971 45.5591C37.1437 45.7011 37.1637 45.8565 37.1637 46.0255C37.1637 46.1945 37.1437 46.3432 37.0971 46.4918C37.0504 46.6338 36.9838 46.7622 36.8904 46.8636C36.7971 46.9717 36.6838 47.0528 36.5505 47.1137C36.4171 47.1745 36.2571 47.2015 36.0838 47.2015C35.9105 47.2015 35.7505 47.1745 35.6172 47.1137C35.4839 47.0528 35.3705 46.9717 35.2772 46.8636C35.1839 46.7554 35.1172 46.6338 35.0706 46.4918C35.0239 46.3499 35.0039 46.1945 35.0039 46.0255C35.0039 45.8565 35.0239 45.7011 35.0706 45.5591Z" fill="#EBECEE"/>
<path d="M39.2391 45.6943C39.2125 45.5929 39.1725 45.5051 39.1125 45.424C39.0592 45.3428 38.9858 45.282 38.8992 45.2347C38.8125 45.1874 38.7059 45.1671 38.5925 45.1671C38.4659 45.1671 38.3659 45.1942 38.2792 45.2415C38.1926 45.2888 38.1259 45.3564 38.0659 45.4375C38.0126 45.5186 37.9726 45.6064 37.9459 45.7078C37.9192 45.8092 37.9126 45.9173 37.9126 46.0187C37.9126 46.1269 37.9259 46.235 37.9526 46.3432C37.9793 46.4445 38.0193 46.5392 38.0792 46.6135C38.1326 46.6946 38.2059 46.7554 38.2992 46.8028C38.3859 46.8501 38.4992 46.8771 38.6259 46.8771C38.7525 46.8771 38.8592 46.8501 38.9458 46.8028C39.0325 46.7554 39.0992 46.6879 39.1525 46.6067C39.2058 46.5256 39.2392 46.431 39.2658 46.3296C39.2858 46.2215 39.2991 46.1134 39.2991 46.0052C39.2991 45.8971 39.2858 45.7957 39.2591 45.6943M37.9392 44.89V45.1942H37.9459C38.0059 45.0657 38.0992 44.9779 38.2326 44.9238C38.3592 44.863 38.5059 44.8359 38.6592 44.8359C38.8325 44.8359 38.9858 44.8697 39.1125 44.9306C39.2391 44.9982 39.3458 45.0793 39.4325 45.1874C39.5191 45.2955 39.5791 45.424 39.6258 45.5659C39.6724 45.7078 39.6924 45.8633 39.6924 46.0187C39.6924 46.1742 39.6724 46.3296 39.6324 46.4716C39.5924 46.6135 39.5258 46.7419 39.4458 46.8433C39.3658 46.9447 39.2525 47.0326 39.1258 47.0934C38.9992 47.1542 38.8458 47.188 38.6792 47.188C38.6259 47.188 38.5659 47.188 38.4925 47.1677C38.4259 47.1542 38.3592 47.1339 38.2925 47.1137C38.2259 47.0866 38.1659 47.0528 38.1059 47.0055C38.0459 46.9582 37.9992 46.9041 37.9592 46.8365H37.9526V47.9991H37.5859V44.8697H37.9526L37.9392 44.89Z" fill="#EBECEE"/>
<path d="M40.4213 44.0312H40.0547V47.1606H40.4213V44.0312Z" fill="#EBECEE"/>
<path d="M42.4206 45.5573C42.3873 45.4762 42.3406 45.4086 42.2873 45.3546C42.234 45.3005 42.1673 45.2532 42.0873 45.2194C42.014 45.1856 41.9273 45.1721 41.834 45.1721C41.7407 45.1721 41.654 45.1924 41.5741 45.2194C41.5007 45.2532 41.4341 45.3005 41.3807 45.3613C41.3274 45.4222 41.2807 45.4897 41.2541 45.5641C41.2207 45.6452 41.2007 45.7263 41.2007 45.8142H42.4806C42.4806 45.7263 42.454 45.6452 42.4206 45.5641M42.5073 47.0172C42.3407 47.1456 42.1273 47.2132 41.874 47.2132C41.694 47.2132 41.5407 47.1862 41.4074 47.1254C41.2741 47.0645 41.1674 46.9834 41.0741 46.8821C40.9874 46.7739 40.9208 46.6523 40.8741 46.5036C40.8274 46.3549 40.8008 46.1994 40.8008 46.0237C40.8008 45.848 40.8274 45.6925 40.8808 45.5506C40.9341 45.4086 41.0074 45.2802 41.1007 45.1788C41.1941 45.0707 41.3074 44.9896 41.4341 44.9355C41.5607 44.8747 41.7007 44.8477 41.854 44.8477C42.054 44.8477 42.2207 44.8882 42.3473 44.9693C42.4806 45.0504 42.5873 45.1586 42.6606 45.287C42.7406 45.4154 42.7939 45.5573 42.8273 45.706C42.8539 45.8615 42.8673 46.0034 42.8606 46.1386H41.1874C41.1874 46.24 41.1941 46.3346 41.2208 46.4225C41.2474 46.5103 41.2874 46.5914 41.3474 46.659C41.4074 46.7266 41.4807 46.7807 41.5674 46.8212C41.654 46.8618 41.7607 46.8821 41.8807 46.8821C42.034 46.8821 42.1607 46.8415 42.2607 46.7739C42.3607 46.6996 42.4273 46.5914 42.454 46.4427H42.8139C42.7673 46.6996 42.6606 46.8888 42.4873 47.0172H42.5073Z" fill="#EBECEE"/>
</svg>
