<svg width="93" height="32" viewBox="0 0 93 32" fill="none" xmlns="http://www.w3.org/2000/svg">
<g clip-path="url(#clip0_59_498)">
<path fill-rule="evenodd" clip-rule="evenodd" d="M91.9297 31.4912H84.6274C84.3599 30.1803 84.0735 28.8996 83.8475 27.6038C83.8526 27.4937 83.8329 27.3838 83.79 27.2827C83.747 27.1816 83.6819 27.0919 83.5996 27.0206C83.5174 26.9493 83.4203 26.8983 83.3157 26.8715C83.2112 26.8447 83.102 26.8428 82.9966 26.8659C80.0686 26.9041 77.1393 26.8947 74.2113 26.871C74.0391 26.8437 73.8633 26.887 73.722 26.9914C73.5808 27.0959 73.4855 27.2531 73.4568 27.4289C73.0535 28.6613 72.6122 29.8808 72.161 31.096C72.1272 31.1884 72.0734 31.2717 72.0035 31.3396C71.9336 31.4076 71.8496 31.4584 71.7577 31.4883C69.1183 31.5121 66.479 31.5056 63.7628 31.5056C64.2555 30.289 64.7264 29.13 65.2022 27.9688C68.6069 19.6795 72.0116 11.3904 75.4163 3.1016C75.6643 2.3049 76.1704 1.61844 76.8511 1.15543C77.5318 0.692421 78.3464 0.480503 79.1607 0.554623H85.5712C85.7824 1.56247 85.9935 2.56096 86.2005 3.55873C87.8756 11.7506 89.5505 19.9425 91.2252 28.1344C91.4398 29.184 91.6939 30.2221 91.929 31.2695V31.4912H91.9297ZM82.3723 20.4985C81.5938 16.6895 80.8239 12.931 80.0588 9.17316L79.9645 9.15444L75.9364 20.4985H82.3723ZM60.1184 0.00390625C61.0819 0.186759 62.0532 0.336496 63.0041 0.561822C63.8748 0.766991 64.7271 1.05279 65.6526 1.32203L64.2886 7.84784C63.0682 7.48214 61.9012 7.06172 60.699 6.79104C59.0736 6.35842 57.3688 6.34334 55.7363 6.74713C55.0505 6.94595 54.4138 7.29144 53.8683 7.76073C53.6596 7.91887 53.4891 8.12385 53.37 8.35992C53.2509 8.59599 53.1863 8.85686 53.1812 9.12246C53.1761 9.38806 53.2307 9.65132 53.3406 9.89199C53.4506 10.1327 53.613 10.3443 53.8155 10.5107C54.4299 11.0723 55.1009 11.5656 55.8172 11.9822C57.4149 12.9634 59.0922 13.8157 60.6448 14.8617C61.5637 15.4143 62.3498 16.1704 62.9455 17.0744C63.5412 17.9785 63.9314 19.0075 64.0873 20.086C64.3864 21.9313 64.1349 23.826 63.3656 25.5229C62.5964 27.2199 61.3451 28.6405 59.7749 29.5994C57.682 30.9449 55.293 31.7329 52.8259 31.8915C49.401 32.2219 45.9463 31.8221 42.6801 30.7173C42.4591 30.6454 42.243 30.5503 42.0277 30.4603C41.9516 30.4199 41.8784 30.3739 41.8088 30.3228L43.2228 23.5631C43.7858 23.8143 44.3137 24.067 44.8543 24.2873C47.3694 25.414 50.1505 25.7684 52.859 25.3074C53.5956 25.1563 54.2957 24.8578 54.9191 24.4291C55.2244 24.2458 55.4813 23.9891 55.6676 23.6812C55.8538 23.3733 55.9638 23.0236 55.9879 22.6624C56.0121 22.3012 55.9496 21.9394 55.8061 21.6085C55.6625 21.2776 55.4421 20.9875 55.1641 20.7634C54.3319 20.0988 53.4477 19.5053 52.5204 18.9889C51.1128 18.1135 49.6178 17.3677 48.2862 16.3886C47.4222 15.8169 46.6904 15.0596 46.1417 14.1694C45.5929 13.2791 45.2402 12.2773 45.1083 11.2335C44.9187 9.69386 45.1301 8.13031 45.7213 6.70116C46.3125 5.27201 47.2624 4.028 48.4748 3.09512C50.647 1.37607 53.2612 0.340322 55.9988 0.11405C56.1519 0.086361 56.3032 0.0495844 56.4521 0.00390625H60.1184ZM31.7221 0.579819C31.3117 1.58767 30.9232 2.54872 30.5298 3.5069C26.7717 12.6596 23.0179 21.814 19.2684 30.97C19.2194 31.1492 19.1079 31.3039 18.955 31.4047C18.8021 31.5055 18.6183 31.5455 18.4386 31.5171C16.0666 31.497 13.694 31.4891 11.3228 31.5222C11.2299 31.5391 11.1345 31.5357 11.043 31.5122C10.9515 31.4887 10.866 31.4455 10.792 31.3857C10.718 31.3258 10.6573 31.2505 10.6139 31.1648C10.5704 31.0792 10.5453 30.985 10.5401 30.8887C8.52641 22.8885 6.48247 14.897 4.49413 6.89111C4.36432 6.20858 4.07146 5.56949 3.64165 5.03077C3.21184 4.49205 2.65842 4.07044 2.0307 3.80349C-0.164376 2.8462 -2.44013 2.09537 -4.76837 1.56031C-4.87113 1.53511 -4.97318 1.50776 -5.07031 1.48328C-5.05905 0.554623 -5.05905 0.554623 -4.19404 0.554623C-0.0428047 0.554623 4.10843 0.554623 8.25966 0.554623C9.15897 0.506149 10.0435 0.803223 10.7397 1.38753C11.4358 1.97184 11.8933 2.80119 12.0224 3.71279C13.0763 9.34522 14.1177 14.98 15.1467 20.6173C15.1925 20.8635 15.2438 21.109 15.3128 21.4559C15.4205 21.2493 15.4958 21.1334 15.5444 21.0067C18.1242 14.3492 20.699 7.68995 23.269 1.02903C23.3056 0.874105 23.3973 0.738696 23.5263 0.649243C23.6553 0.55979 23.8122 0.522718 23.9665 0.545265C26.3743 0.564702 28.7821 0.554623 31.1907 0.556063C31.3462 0.555343 31.5018 0.569741 31.7221 0.579819ZM28.578 31.5078L35.059 0.587738H42.9243C42.5971 2.15638 42.2768 3.69479 41.9544 5.2332C40.1714 13.7404 38.3937 22.2483 36.6215 30.7569C36.6214 30.874 36.5957 30.9896 36.5463 31.0953C36.497 31.2009 36.4251 31.2939 36.336 31.3675C36.247 31.441 36.143 31.4933 36.0316 31.5204C35.9202 31.5476 35.8043 31.5489 35.6924 31.5243C33.5373 31.4819 31.38 31.5078 29.2242 31.5078H28.578Z" fill="#EBECEE"/>
</g>
<defs>
<clipPath id="clip0_59_498">
<rect width="93" height="32" fill="white"/>
</clipPath>
</defs>
</svg>
