<svg width="80" height="56" viewBox="0 0 80 56" fill="none" xmlns="http://www.w3.org/2000/svg">
<rect x="16" y="6" width="31" height="30" fill="white"/>
<path d="M78.5391 12.0674C78.5391 12.0674 77.7743 6.57956 75.3917 4.16017C72.3913 0.973658 68.9791 0.973658 67.4495 0.796629C56.3305 1.33655e-06 39.6814 0 39.6814 0H39.652C39.652 0 23.0028 1.33655e-06 11.8838 0.796629C10.3248 0.973658 6.94203 1.00316 3.94166 4.16017C1.55902 6.57956 0.794217 12.0674 0.794217 12.0674C0.794217 12.0674 0 18.4995 0 24.961V31.0095C0 37.4415 0.794217 43.9031 0.794217 43.9031C0.794217 43.9031 1.55902 49.3909 3.94166 51.8103C6.97145 54.9968 10.9131 54.8788 12.678 55.2034C19.0318 55.823 39.652 56 39.652 56C39.652 56 56.3305 55.9705 67.4495 55.1739C69.0085 54.9968 72.3913 54.9673 75.3917 51.8103C77.7743 49.3909 78.5391 43.9031 78.5391 43.9031C78.5391 43.9031 79.3333 37.471 79.3333 31.0095V24.961C79.3333 18.4995 78.5391 12.0674 78.5391 12.0674ZM31.4451 38.2972V15.9326L52.8889 27.1444L31.4451 38.2972Z" fill="#DB2724"/>
</svg>
